<?xml version="1.0" encoding="UTF-8"?><svg id="Layer_2" xmlns="http://www.w3.org/2000/svg" viewBox="0 0 1111.93 1135.46"><g id="Layer_5"><path d="m90.69,504.56l6.31,8.29-.88,1.1-33.76-18.99.74-1.94c1.63.67,4.19,1.54,6.82,2.1,17,3.62,35.23-2.35,38.76-18.88,2.73-12.83-3.87-25.06-17.31-27.92-6.65-1.42-12.86-.32-21.28,4.35-7.86,4.3-17.06,11.07-25.75,14.71-6.01,2.44-11.37,4.85-20.49,2.9-13.6-2.9-27.14-18.22-22.36-40.63,2.34-10.97,9.59-18.47,13.2-21.74l-3.74-5.97.79-1.45,33.65,15.73-.74,1.94c-1.51-.48-2.87-.93-4.26-1.23-8.5-1.81-32.52-4.34-36.43,14.05-2.63,12.36,5.8,22.08,16,24.25,8.35,1.78,13.92-.11,22.74-4.36,7.01-3.35,13.81-8.69,20.39-12.29,9.83-5.18,17.2-7.16,24.77-5.55,20.09,4.28,27.18,24.85,23.16,43.71-3.75,17.62-16.52,25.24-20.31,27.82Z" fill="#fff" stroke="#fff" stroke-miterlimit="10"/><path d="m123.56,414.76c2.73-7.61,3.02-12.5,1.28-17.1-.71-1.88-5.73-6.91-9.56-10.71-10.46-10.25-24.2-22.84-27.51-25.88-9.27-8.67-31.53-28.9-42.76-38.98l-7.27,15.79c-3.97,8.44,6.37,31.28,9.4,37.66l-1.3.97-19.71-18.57,39.72-88.33,20.23,18.97-.65,1.44c-7.4-2.81-22.96-6.34-24.52-2.88l-9.54,20.83c11.02,10.16,36.45,33.37,42.63,39.27,6.47,6.03,17.48,15.83,26.89,24.57,3.53,3.32,8.37,7.58,10.53,8.55,4.03,1.81,9-4.61,11.78-9.25l1.25,1.08-19.63,43.66-1.25-1.08Z" fill="#fff" stroke="#fff" stroke-miterlimit="10"/><path d="m146.09,351.52c2.38-3.35,8.53-13.17,3.78-42.52-6.31-39.51-9.52-62.3-17.31-113.11l-1.14-2.67,4.19-15.31,1.62-.55c7.64,11.84,29.27,43.6,34.33,51.27l20.41,30.22c2.52,3.73,6.78,9.59,9.41,11.61,2.38,1.83,8.6-3.16,12.37-7.03l.96,1.34-28.01,36.46-.96-1.34c3.38-5.17,4.86-10.21,4.22-15.09-.26-1.99-3.86-7.94-6.84-12.62-5.55-8.85-11.05-17.26-16.36-25.12l-19.44,25.31c2.31,13.33,4.05,24.03,5.25,29.73,2.39,12.19,4.83,19.65,7.09,21.38,3.88,2.98,8.46-1.67,12.04-5.3l.96,1.34-25.6,33.33-.96-1.34Zm18.68-107.57c-11.65-17.51-21.87-32.74-28.98-43.97,3.41,22.54,7.35,47.48,10.69,67.78l18.29-23.81Z" fill="#fff" stroke="#fff" stroke-miterlimit="10"/><path d="m241.77,234.42c5.91-5.51,7.92-9.33,8.48-14.21.23-2-1.93-8.77-3.59-13.9-4.85-14.72-9.01-26.55-12.02-34.65l-31.95-19.6c-4.83-3.02-12.51-7.61-15.35-8.38-6.06-2.04-9.3.74-13.8,3.71l-.49-1.63,34.62-27.54.49,1.63c-4.9,4.5-9.23,9.97-6.57,13.31.98,1.24,5.89,4.61,8.72,6.39l33.63,20.69,2.43-42.11c.19-4.59.46-13.89-2.99-18.22-2.85-3.59-8.93-.57-14.07,3.12l-.49-1.63,32.77-26.07.49,1.63c-6.73,5.76-10.33,14.68-12.06,33.82-.69,7.01-2.41,34.02-3.64,51.76l12.23,32.88c2.08,5.41,3.97,10.57,5.44,12.43,2.75,3.46,10.61-.37,15.21-3.22l.61,1.53-37.46,29.81-.61-1.53Z" fill="#fff" stroke="#fff" stroke-miterlimit="10"/><path d="m353.76,153.24c7.53-2.95,10.95-5.8,13.27-10.14.95-1.77,1.44-8.86,1.78-14.25.84-14.62,1.3-33.25,1.42-37.75.54-14.53.88-25.37,1.12-39.81.04-3.15.05-7.45-.77-10.17-2.02-6.65-9.75-5.46-14.79-4.1l.15-1.7,43.69-13.27-.15,1.7c-4.8,2.12-8.45,3.72-11.38,10.39-1.55,3.61-1.79,12.6-2.12,19.14l-1.11,30.06,48.68-14.78c.59-14.38.89-22.07,1.13-36.51.13-2.84-.09-7.9-.78-10.17-2.02-6.65-9.75-5.46-14.78-4.1l.15-1.7,43.69-13.27-.15,1.7c-4.8,2.12-8.62,4.77-11.33,10.54-1.59,3.46-1.83,12.45-2.16,18.99-.4,11.19-.37,17.28-.77,28.47-.64,16.38-.87,24.87-1.31,41.35-.18,4.84-.21,11.29.48,13.56,1.28,4.23,8.64,3.98,13.96,3.03v1.65s-44.6,13.54-44.6,13.54v-1.65c7.52-2.95,10.95-5.8,13.26-10.14.95-1.77,1.44-8.86,1.78-14.25.84-14.62,1.19-33.06,1.42-37.75l-48.83,14.83-.83,36.42c-.09,5.15-.25,11.14.44,13.41,1.28,4.23,8.38,4.22,14.01,3.18v1.65s-44.59,13.54-44.59,13.54v-1.65Z" fill="#fff" stroke="#fff" stroke-miterlimit="10"/><path d="m508.17,89.84c-.11-13.43,4.99-26.27,6.68-31.66,4.46-14.26,7.55-23.13,12.01-37.08.93-2.69,2.15-7.13,2.13-9.97-.06-6.95-7.81-7.99-13.03-8.11l.62-1.58,45.82-.39-.62,1.59c-5.21.68-9.15,1.18-13.85,6.75-2.5,3.02-5.13,10.47-7.44,17.13-3.55,10.14-5.55,16.48-9.24,27.73-4.47,13.63-7.54,24.4-7.44,35.93.11,12.48,7.61,21.9,21.83,21.78,17.22-.15,28.83-10.36,39.16-40.94,2.77-8.24,5.53-18.53,11.07-36.44,2.61-8.4,4.76-16.32,4.72-20.74-.05-5.84-5.62-10.06-15.27-11.4l.62-1.59,40.61-.34-.62,1.58c-8.05,1.18-13.24,4.38-17.61,10.42-2.5,3.34-5.42,12.37-8.82,22.04-3.24,9.35-7.7,24.4-12.16,38.34-4.31,13.31-14.17,43.26-44.35,43.51-27.18.23-34.73-14.24-34.83-26.57Z" fill="#fff" stroke="#fff" stroke-miterlimit="10"/><path d="m693.74,135.78l-5.18-106.55c-14.83,22.12-22.17,33.2-39.96,60.07-5.67,8.59-10.15,15.88-11.37,20.29-1.52,5.48,4.42,10.08,12.49,13.47l-.88,1.4-40.65-11.29.88-1.4c5.19.79,12.09.73,17.58-2.5,5.29-3.12,11.16-10.68,18.44-20.95,5.45-7.83,13.29-18.94,21.47-31.26,7.94-12.06,17.45-25.65,18.64-29.92,1.65-5.94-6.56-10.02-11.53-12.22l1.03-1.35,28.01,7.78,5.3,96.09c10.69-16.05,21.71-33.33,33-50.36,4.79-7.2,9.07-14.37,10.26-18.63,1.56-5.63-2.62-11.22-11.53-15.17l1.03-1.35,39.13,10.86-1.03,1.35c-8.06-1.09-13.93.56-19.8,5.16-3.32,2.52-8.62,10.4-14.55,18.75-5.69,8.1-13.29,18.94-21.32,31.31-7.17,10.47-17.68,27.07-24.94,37.84-.52.68-1.84,1.29-2.9,1-.76-.21-1.31-1.18-1.62-2.42Z" fill="#fff" stroke="#fff" stroke-miterlimit="10"/><path d="m764.94,119.53c14.72-24.7,61.77-49.64,99.5-27.15,15.88,9.46,18.97,19.4,20.56,23.84l6.99-1.54,1.11,1.22-24.31,25.06-1.6-1.32c1.48-1.87,3.32-4.64,4.21-6.14,3.32-5.56,11.14-27.02-6.92-37.78-25.38-15.12-71.68,7.32-90.36,38.67-9.06,15.2-8.25,32.05,6.27,40.71,7.46,4.45,17.71,6.69,25.8,2.69,3.38-1.66,6.11-4.08,11.06-8.68,2.35-2.09,5.65-5.46,7.1-7.91,3.72-6.24-3.48-11.45-7.87-14.26l1.35-1.03,38,22.65-1.35,1.03c-3.23-1.37-7.36-4.02-13.83-1.8-3.71,1.28-7.9,5.23-12.76,9.69-4.32,3.86-8.97,8.26-12.4,11.55-16.02-1.82-26.71-5.8-35.8-11.22-23.62-14.07-28.75-34.79-14.75-58.27Z" fill="#fff" stroke="#fff" stroke-miterlimit="10"/><path d="m833.58,206.13c6.12,5.28,9.8,6.53,14.72,6.55,2.01,0,8.5-2.87,13.43-5.08,13.32-6.08,30.01-14.38,34.04-16.37,13.1-6.31,22.84-11.06,35.72-17.59,2.8-1.44,6.61-3.43,8.63-5.43,4.94-4.89.28-11.17-3.28-14.99l1.57-.66c9.34,9.43,16.12,15.83,27.91,27.73,13.79,13.92,19.3,29.81,6.61,42.37-10.44,10.34-30.67,11.25-51.26-4.6-4.53,13.16-10.31,30-13.03,38.93-4.54,14.73-4,19.53,2.33,27.27l-1.46.77-19.12-19.31c5.33-16.4,10.78-34.47,19.6-57.22l-4.66-6.06c-10.86,5.2-18.25,9.19-31.47,15.83-4.59,2.32-9.97,4.98-11.65,6.65-3.14,3.11.18,9.39,3.73,13.87l-1.46.78-32.36-32.67,1.46-.77Zm127.56,5.3c9.54-9.45,9.83-23.08,1.71-31.27l-3.34-3.37c-5.93,1.2-44.79,21.01-51.96,24.55,1.22,1.46,3.33,3.59,4.56,4.83,20.9,21.1,39.59,14.6,49.02,5.26Z" fill="#fff" stroke="#fff" stroke-miterlimit="10"/><path d="m921.7,300.78c4.71,6.57,8.24,9.05,13.01,10.23,1.95.48,8.94-.79,14.25-1.78,15.22-2.92,27.49-5.54,35.91-7.49l23.53-29.18c3.62-4.4,9.15-11.44,10.28-14.15,2.8-5.76.46-9.32-1.92-14.17l1.68-.28,22.89,37.86-1.68.28c-3.84-5.43-8.71-10.43-12.36-8.22-1.35.82-5.32,5.25-7.45,7.83l-24.83,30.7,41.46,7.8c4.53.77,13.72,2.23,18.45-.63,3.92-2.37,1.7-8.78-1.3-14.36l1.68-.28,21.66,35.83-1.68.28c-4.85-7.41-13.24-12.12-32-16.29-6.86-1.57-33.43-6.74-50.87-10.24l-34.17,7.92c-5.63,1.37-10.99,2.58-13.02,3.81-3.79,2.29-.99,10.57,1.24,15.5l-1.6.41-24.77-40.97,1.6-.41Z" fill="#fff" stroke="#fff" stroke-miterlimit="10"/><path d="m66.81,833.89l-10.31-1.49-.15-1.41,37.38-10.12.84,1.9c-1.64.67-4.07,1.84-6.34,3.28-14.66,9.33-23.48,26.37-14.41,40.63,7.04,11.06,20.32,15.16,31.92,7.78,5.73-3.65,9.39-8.79,12.13-18.02,2.59-8.58,4.41-19.85,8.06-28.54,2.58-5.95,4.71-11.43,12.58-16.43,11.73-7.46,32.12-6.02,44.42,13.3,6.02,9.46,6.11,19.9,5.83,24.76l6.85,1.64.45,1.59-35.02,12.36-.84-1.9c1.42-.71,2.7-1.34,3.9-2.11,7.33-4.67,26.23-19.69,16.14-35.55-6.79-10.66-19.61-11.68-28.4-6.08-7.2,4.58-9.85,9.83-13.16,19.05-2.65,7.31-3.76,15.88-5.93,23.06-3.38,10.58-7.25,17.16-13.78,21.32-17.33,11.03-36.8,1.32-47.15-14.94-9.67-15.2-5.9-29.58-5.02-34.08Z" fill="#fff" stroke="#fff" stroke-miterlimit="10"/><path d="m127.86,940.09c6.15,5.24,10.63,7.24,15.54,7.23,2.01,0,8.49-2.92,13.4-5.16,13.28-6.17,29.92-14.58,33.93-16.6,11.39-5.61,38.18-19.29,51.57-26.24l-12.2-12.38c-6.49-6.69-31.52-5.08-38.55-4.51l-.45-1.56,24.33-11.89,68.62,68.36-24.89,12.22-1.12-1.12c5.24-5.93,14.04-19.24,11.35-21.92l-16.12-16.28c-13.39,6.73-44.09,22.31-51.79,26.02-7.93,3.93-20.98,10.77-32.48,16.48-4.35,2.13-10.05,5.16-11.72,6.84-3.12,3.14,1.14,10.05,4.5,14.29l-1.45.79-33.92-33.79,1.45-.78Z" fill="#fff" stroke="#fff" stroke-miterlimit="10"/><path d="m194.99,1009.8c3.6,1.99,14.04,7.02,42.68-.94,38.57-10.63,60.87-16.35,110.51-29.7l2.53-1.43,15.68,2.47.72,1.55c-10.93,8.9-40.1,33.9-47.17,39.78l-27.79,23.63c-3.43,2.91-8.78,7.8-10.5,10.64-1.56,2.57,4.09,8.2,8.35,11.52l-1.22,1.11-39.33-23.81,1.22-1.11c5.52,2.78,10.69,3.7,15.46,2.53,1.95-.48,7.47-4.71,11.79-8.19,8.18-6.5,15.93-12.89,23.16-19.04l-27.3-16.53c-12.99,3.77-23.44,6.68-28.97,8.5-11.86,3.72-19,6.97-20.47,9.4-2.54,4.19,2.6,8.22,6.59,11.38l-1.22,1.11-35.95-21.76,1.22-1.11Zm108.98,6.69c16.12-13.51,30.12-25.35,40.51-33.66-22.03,5.88-46.38,12.55-66.19,18.11l25.68,15.55Z" fill="#fff" stroke="#fff" stroke-miterlimit="10"/><path d="m355.36,1096.72c7.9,1.71,12.18,1.18,16.51-1.15,1.77-.95,6.1-6.58,9.37-10.88,9.33-12.38,16.67-22.55,21.6-29.64l-2.13-37.43c-.27-5.69-.89-14.62-1.87-17.39-1.79-6.15-5.92-7.22-10.93-9.22l1.06-1.33,42.37,12.72-1.06,1.33c-6.49-1.45-13.45-1.89-14.68,2.19-.45,1.51-.42,7.46-.27,10.81l2.19,39.42,35.98-22.03c3.88-2.47,11.67-7.55,13.26-12.85,1.32-4.39-4.63-7.66-10.59-9.78l1.06-1.33,40.1,12.04-1.06,1.33c-8.57-2.24-17.95-.11-34.66,9.39-6.14,3.43-29.32,17.43-44.59,26.54l-20.03,28.8c-3.25,4.8-6.42,9.29-7.1,11.56-1.27,4.24,6.35,8.51,11.32,10.66l-.91,1.38-45.86-13.76.91-1.38Z" fill="#fff" stroke="#fff" stroke-miterlimit="10"/><path d="m537.63,1133.3c7.99-1.19,11.97-3.21,15.2-6.92,1.32-1.52,3.38-8.31,4.92-13.49,4.09-14.06,8.69-32.12,9.81-36.48,3.77-14.04,6.53-24.53,9.98-38.55.74-3.06,1.71-7.25,1.51-10.08-.48-6.94-8.28-7.5-13.5-7.3l.52-1.62,82.59-5.76,1.79,25.69-1.54.58c-4.79-7.43-14.3-23.39-20.43-22.65l-31.28,3.45-13.62,52.26,8.35-.58c23.33-1.63,31.55-19.94,33.61-26.73l1.94.5-13.22,55.72-1.75-.19c.11-3.02.11-5.23-.04-7.44-.26-3.78-.81-20.69-17.67-19.51l-11.98.83-9.08,35.63c-1.37,5.32-2.73,10.8-2.57,13.17.31,4.41,7.54,5.97,13.26,6.2l-.36,1.61-46.81,3.26.36-1.61Z" fill="#fff" stroke="#fff" stroke-miterlimit="10"/><path d="m675.23,1076.37c-8.73-25.9,1.21-76.1,39.84-89.11,19.02-6.41,40.88,3.57,50.36,31.72,9.38,27.85-3.96,75.86-40.04,88.02-20.66,6.96-41.74-5.61-50.16-30.62Zm72.9-63.73c-5.95-17.67-17.18-27.23-29.9-22.94-24.56,8.27-38.34,55.93-26.19,92.02,6.71,19.91,18.22,26.87,30.05,22.89,20.06-6.76,39.96-50.64,26.04-91.97Z" fill="#fff" stroke="#fff" stroke-miterlimit="10"/><path d="m806.59,1025.38c-15.33-22.63-19.16-73.66,14.6-96.52,16.62-11.25,40.35-7.48,57.01,17.12,16.48,24.34,16.44,74.16-15.09,95.52-18.05,12.22-41.72,5.73-56.52-16.11Zm53.23-80.89c-10.45-15.44-23.82-21.65-34.94-14.12-21.46,14.53-22.02,64.14-.67,95.67,11.78,17.4,24.74,21.03,35.07,14.03,17.53-11.87,24.99-59.48.54-95.58Z" fill="#fff" stroke="#fff" stroke-miterlimit="10"/><path d="m943.14,981.4l-.91-1.38c4.69-6.58,5.99-10.85,5.56-15.75-.18-2-3.64-8.2-6.3-12.9-7.29-12.7-17.11-28.54-19.47-32.37-7.5-12.46-13.14-21.72-20.84-33.93-1.69-2.65-4.03-6.26-6.21-8.09-5.33-4.46-11.15.76-14.62,4.66l-.81-1.5,25.25-30.17c20.28-24.23,48.41-27.06,70.94-8.2,26.41,22.11,33.42,61.98,5.84,94.93-13.69,16.36-25.45,29.18-38.44,44.68Zm19.29-130.36c-23.38-19.57-45.98-11.29-54.9-.63-2.43,2.91-4.34,6.67-4.21,8.22.18,2,5.42,10.51,11.2,20.09,5.78,9.58,11.47,19.28,17.11,28.54l19.35,31.03c2.74,4.35,5.99,9.34,7.8,10.86,3.39,2.84,8.76.12,14.34-6.54,25.66-30.65,17.77-67.75-10.7-91.58Z" fill="#fff" stroke="#fff" stroke-miterlimit="10"/><path d="m1040.08,852.88c3.06-7.48,3.56-12.36,2.02-17.02-.63-1.91-5.42-7.15-9.09-11.12-10.01-10.69-23.18-23.87-26.36-27.06-10.15-10.41-17.76-18.13-28.05-28.26-2.25-2.2-5.36-5.17-7.9-6.45-6.21-3.12-10.89,3.72-13.37,8.3l-1.13-1.27,20.95-41.63,1.13,1.27c-1.78,4.94-3.13,9.04-.39,15.9,1.4,3.54,7.75,9.91,12.26,14.66l23.33,23.94c6.2,6.3,16.77,16.58,25.79,25.71,3.38,3.47,8.03,7.93,10.15,9,3.95,1.99,9.05-3.93,12.03-8.45l1.2,1.13-21.38,42.48-1.2-1.13Z" fill="#fff" stroke="#fff" stroke-miterlimit="10"/><path d="m1085.5,761.35c1.33-7.97.64-12.38-1.9-16.59-1.04-1.72-6.87-5.78-11.31-8.84-12.12-8.23-27.88-18.17-31.68-20.58-12.19-7.92-21.32-13.77-33.59-21.38-2.68-1.65-6.37-3.86-9.13-4.55-6.75-1.68-9.69,5.57-11.1,10.59l-1.38-.99,20.33-81.72,24.99,6.22.08,1.65c-8.12,1.89-23.6,6.51-24.98,8.77-2.22,3.68-4.39,10.47-5.88,16.45-1.72,6.9-3.05,15.52-3.7,19.43l44.37,28.46,1.87-7.51c5.34-21.47-9.81-35.17-15.64-39.22l1.07-1.69,48.93,29.75-.73,1.61c-2.68-.99-4.64-1.64-7.09-2.25-3.68-.92-19.63-5.53-23.63,10.57l-2.52,10.12c11.62,6.96,19.83,12.58,32.21,20.39,3.95,2.45,13.15,7.34,17.49,9.56l10.25-45.16c1.22-5.56-10.53-23.78-18.36-36.15l1.11-1.19,25.77,16.83-24.45,98.28-1.42-.84Z" fill="#fff" stroke="#fff" stroke-miterlimit="10"/><path d="m237.93,680.15c-4.11.73-6.09-.66-6.81-4.77l-14.09-79.91c-.73-4.11.66-6.09,4.77-6.81l11.94-2.1c4.11-.73,6.09.66,6.81,4.77l.28,1.56.68-1.29c2.87-5.42,9.51-9.64,17.35-11.02,18.18-3.21,31.32,7.85,35.15,29.57,4.25,24.12-5.31,40.07-26.24,43.76-4.58.81-9.09.21-12.06-.43l-.73-.16,3.05,17.32c.73,4.11-.66,6.09-4.77,6.81l-15.33,2.7Zm17.89-76.35c-3.32.59-6.68,2.39-8.58,4.61l-.15.18,4.15,23.53.3.09c1.95.58,4.35,1.1,7.45.55,7.1-1.25,9.66-6.87,7.84-17.18-1.6-9.08-5.1-12.82-11.01-11.78Z" fill="#fff" stroke-width="0"/><path d="m258.94,581.07c17.87-3.15,30.8,7.75,34.57,29.16,4.2,23.81-5.22,39.55-25.83,43.18-4.5.79-8.94.21-11.87-.42l-1.45-.31.26,1.46,2.92,16.58c.68,3.86-.5,5.55-4.36,6.23l-15.33,2.7c-3.86.68-5.55-.5-6.23-4.36l-14.09-79.91c-.68-3.86.5-5.55,4.36-6.23l11.94-2.1c3.86-.68,5.55.5,6.23,4.36l.02.13.51,2.87,1.36-2.58c2.8-5.29,9.31-9.41,16.99-10.77m.13,52.18c7.32-1.29,10.1-7.27,8.25-17.76-1.64-9.29-5.43-13.27-11.59-12.19-3.43.6-6.91,2.48-8.87,4.78l-.31.36.08.46,4.05,22.99.11.61.59.18c1.89.56,4.46,1.13,7.68.57m-.31-53.17c-8.54,1.51-14.98,6.14-17.7,11.28l-.02-.13c-.78-4.4-2.99-5.95-7.39-5.17l-11.94,2.1c-4.4.78-5.95,2.99-5.17,7.39l14.09,79.91c.78,4.4,2.99,5.95,7.39,5.17l15.33-2.7c4.4-.78,5.95-2.99,5.17-7.39l-2.92-16.58c3.64.78,7.98,1.18,12.25.43,21.23-3.74,30.94-19.96,26.64-44.34-3.88-21.99-17.26-33.23-35.73-29.97h0Zm.13,52.18c-2.76.49-5.03.11-7.22-.54l-4.05-22.99c1.83-2.14,5.14-3.89,8.29-4.44,5.65-1,8.9,2.71,10.43,11.38,1.75,9.93-.65,15.4-7.44,16.6h0Z" fill="#fff" stroke-width="0"/><path d="m316.25,643.8c-4.11.73-6.09-.66-6.81-4.77l-8.73-49.5c-.46-2.63.58-4.24,3.02-4.67.56-.1,1.18-.13,1.86-.1,3.01.02,5.48-.18,8.03-.63s4.94-1.11,7.74-2.15c.65-.27,1.25-.45,1.8-.55,2.44-.43,3.98.73,4.44,3.36l8.73,49.5c.73,4.11-.66,6.09-4.77,6.81l-15.33,2.7Zm-3.9-66.94c-10.54,1.86-17.2-1.99-18.76-10.82s3.39-14.73,13.93-16.59,17.2,1.99,18.76,10.82-3.39,14.73-13.93,16.59Z" fill="#fff" stroke-width="0"/><path d="m307.6,549.95c10.22-1.8,16.68,1.9,18.18,10.42s-3.3,14.21-13.52,16.01c-10.22,1.8-16.68-1.9-18.18-10.42s3.3-14.2,13.52-16.01m15.66,31.97c2.15-.38,3.45.61,3.86,2.95l8.73,49.5c.68,3.86-.5,5.55-4.36,6.23l-15.33,2.7c-3.86.68-5.55-.5-6.23-4.36l-8.73-49.5c-.41-2.34.47-3.71,2.62-4.09.52-.09,1.11-.12,1.79-.09,3.02.02,5.52-.18,8.1-.64s5-1.13,7.87-2.19c.59-.25,1.16-.42,1.68-.51m-15.83-32.96c-10.8,1.91-15.93,8.12-14.33,17.17s8.53,13.13,19.34,11.23c10.8-1.91,15.93-8.12,14.33-17.17s-8.53-13.13-19.34-11.23h0Zm15.66,31.97c-.59.1-1.22.29-1.89.57-2.68.99-5.02,1.66-7.66,2.13s-5.07.64-7.92.62c-.73-.03-1.38,0-1.97.11-2.7.48-3.94,2.36-3.43,5.25l8.73,49.5c.78,4.4,2.99,5.95,7.39,5.17l15.33-2.7c4.4-.78,5.95-2.99,5.17-7.39l-8.73-49.5c-.51-2.89-2.32-4.24-5.02-3.76h0Z" fill="#fff" stroke-width="0"/><path d="m383.22,633.54c-23.6,4.16-37.71-5.91-41.95-29.92-4.26-24.18,5.88-38.62,30.15-42.89,6.57-1.16,11.86-1.04,14.63-.54,4,.71,5.82,2.97,5.72,7.09l-.13,10.26c-.04,4.06-1.54,4.88-3.16,5.17-.85.15-1.91.15-3.46.01-3.76-.39-5.36-.37-8.14.12-7.4,1.3-9.72,5.8-8.01,15.52s5.69,13.63,13.17,12.31c2.73-.48,4.89-1.09,10.52-3.42.69-.28,1.33-.48,1.9-.58,1.68-.3,3.72-.07,4.51,4.4l1.68,9.55c.77,4.35-.4,6.66-4.44,8.85-3.12,1.74-7.49,3.11-12.98,4.08Z" fill="#fff" stroke-width="0"/><path d="m371.51,561.22c6.5-1.15,11.73-1.03,14.45-.54,3.71.66,5.4,2.76,5.31,6.6l-.13,10.26c-.04,3.87-1.44,4.45-2.75,4.68-.8.14-1.83.14-3.31,0-3.82-.4-5.45-.37-8.29.13-7.65,1.35-10.16,6.16-8.41,16.1s5.93,14.09,13.75,12.71c2.77-.49,4.96-1.1,10.62-3.45.66-.27,1.26-.46,1.79-.55,1.62-.29,3.22,0,3.93,3.99l1.68,9.55c.73,4.14-.33,6.24-4.19,8.33-3.07,1.71-7.39,3.06-12.82,4.02-23.27,4.1-37.19-5.83-41.37-29.52-2.11-11.94-.69-21.55,4.21-28.54,4.92-7.02,13.51-11.65,25.53-13.77m-.17-.98c-24.75,4.36-34.87,18.97-30.55,43.47,4.25,24.12,18.53,34.56,42.53,30.33,5.78-1.02,10.07-2.42,13.13-4.13,4.26-2.31,5.49-4.86,4.69-9.38l-1.68-9.55c-.69-3.89-2.39-5.28-5.09-4.8-.62.11-1.28.31-2,.61-5.43,2.25-7.65,2.9-10.41,3.39-7.16,1.26-10.86-2.1-12.59-11.9-1.64-9.3.44-13.68,7.6-14.94,2.76-.49,4.32-.5,8.01-.12,1.36.13,2.57.16,3.59-.02,2.22-.39,3.54-1.82,3.57-5.65l.13-10.26c.1-4.55-2.12-6.88-6.13-7.6-2.54-.46-7.77-.7-14.8.54h0Z" fill="#fff" stroke-width="0"/><path d="m460.73,618.32c-4.74.84-6.88-.1-9.17-4.01-2.79-4.79-6.86-10.24-11.76-15.76l-.38-.43-.37.44c-1.45,1.72-2.8,3.12-3.67,3.99l-.18.18,2.42,13.7c.73,4.11-.66,6.09-4.77,6.81l-15.33,2.7c-4.11.73-6.09-.66-6.81-4.77l-14.09-79.91c-.73-4.11.66-6.09,4.77-6.81l15.33-2.7c4.11-.73,6.09.66,6.81,4.77l6.85,38.83.69-.93c3.54-4.74,6.28-10.78,8.38-18.47,1.34-4.9,2.63-6.13,7.25-6.95l16.33-2.88c3.35-.59,5.04.59,5.63,3.94.83,4.73-3.63,16.56-10.86,28.79l-.21.36.31.27c10.68,9.37,21.46,23.86,22.61,30.41.58,3.31-.63,5.04-3.94,5.63l-15.83,2.79Z" fill="#fff" stroke-width="0"/><path d="m416.79,532.25c3.86-.68,5.55.5,6.23,4.36l6.65,37.69.4,2.28,1.38-1.85c3.57-4.79,6.34-10.89,8.46-18.64,1.31-4.75,2.39-5.8,6.86-6.59l16.33-2.88c3.09-.54,4.5.45,5.05,3.54.81,4.62-3.63,16.32-10.8,28.45l-.42.71.62.55c10.61,9.31,21.31,23.67,22.45,30.12.54,3.05-.49,4.51-3.54,5.05l-15.83,2.79c-4.53.8-6.47-.05-8.65-3.77-2.81-4.82-6.89-10.3-11.82-15.84l-.77-.86-.74.88c-1.44,1.71-2.77,3.09-3.64,3.96l-.37.37.09.51,2.37,13.44c.68,3.86-.5,5.55-4.36,6.23l-15.33,2.7c-3.86.68-5.55-.5-6.23-4.36l-14.09-79.91c-.68-3.86.5-5.55,4.36-6.23l15.33-2.7m-.17-.98l-15.33,2.7c-4.4.78-5.95,2.99-5.17,7.39l14.09,79.91c.78,4.4,2.99,5.95,7.39,5.17l15.33-2.7c4.4-.78,5.95-2.99,5.17-7.39l-2.37-13.44c1.1-1.1,2.41-2.5,3.7-4.02,5.17,5.82,9.1,11.22,11.7,15.68,2.41,4.11,4.79,5.11,9.69,4.25l15.83-2.79c3.64-.64,4.97-2.69,4.35-6.21-1.22-6.91-12.2-21.43-22.77-30.7,7.19-12.15,11.81-24.11,10.93-29.13-.64-3.64-2.56-4.99-6.21-4.35l-16.33,2.88c-4.77.84-6.23,2.13-7.65,7.31-2.05,7.49-4.74,13.53-8.3,18.3l-6.65-37.69c-.78-4.4-2.99-5.95-7.39-5.17h0Z" fill="#fff" stroke-width="0"/><path d="m506.98,611.72c-12.91,2.28-22.59-3.9-24.68-15.74-2.58-14.66,8.81-23.46,36.95-28.55l.49-.09-.31-1.75c-.65-3.66-3.35-7.69-12.59-6.06-5.8,1.02-10.37,2.86-16.87,6.76-.96.57-1.78.9-2.51,1.03-1.94.34-3.35-.84-4.71-3.94l-3.64-8.17c-1.71-3.99-.95-6.38,2.81-8.84,6.78-4.32,17.26-8.18,26.69-9.85,21.21-3.74,34.26,4.67,37.72,24.32l6.23,35.3c.73,4.11-.66,6.09-4.77,6.81l-12.06,2.13c-4.11.73-6.1-.77-6.88-5.15l-.33-1.87-.69,1.06c-4.42,6.77-11.24,10.89-20.86,12.59Zm14.61-30.95c-12,2.37-15.97,4.83-15.16,9.4.38,2.17,1.88,4.58,6.86,3.7,2.55-.45,7.93-2.11,10.07-5.16l.12-.17-1.39-7.87-.5.1Z" fill="#fff" stroke-width="0"/><path d="m508.7,537.03c10.49-1.85,18.97-.74,25.22,3.3,6.21,4.02,10.22,10.95,11.93,20.62l6.23,35.3c.68,3.86-.5,5.55-4.36,6.23l-12.06,2.13c-3.86.68-5.57-.6-6.3-4.74l-.11-.63-.44-2.49-1.38,2.12c-4.34,6.65-11.05,10.7-20.53,12.37-12.61,2.22-22.07-3.8-24.1-15.33-2.52-14.32,8.75-22.94,36.55-27.97l.98-.18-.17-.98-.22-1.26c-.56-3.18-3.02-8.26-13.17-6.47-5.87,1.03-10.48,2.89-17.03,6.82-.91.54-1.68.85-2.35.97-1.24.22-2.6-.07-4.16-3.65l-3.64-8.15c-1.61-3.76-.93-5.91,2.61-8.23,6.74-4.29,17.15-8.13,26.52-9.78m4.67,57.34c2.81-.5,8.16-2.18,10.39-5.37l.24-.34-.07-.41-1.26-7.16-.18-1-1,.2c-12.36,2.44-16.43,5.05-15.56,9.98.35,1.96,1.77,5.11,7.44,4.11m-4.84-58.33c-9.55,1.68-20.12,5.62-26.88,9.92-4.07,2.66-4.75,5.37-2.99,9.47l3.64,8.17c1.43,3.27,3.02,4.63,5.25,4.23.8-.14,1.69-.51,2.68-1.1,6.09-3.66,10.67-5.64,16.7-6.7,7.04-1.24,11.14.76,12.01,5.66l.22,1.26c-28.87,5.22-39.92,14.55-37.36,29.13,2.13,12.06,11.94,18.49,25.26,16.14,9.8-1.73,16.7-5.92,21.19-12.8l.11.63c.82,4.65,3.06,6.33,7.46,5.55l12.06-2.13c4.4-.78,5.95-2.99,5.17-7.39l-6.23-35.3c-3.52-19.98-16.69-28.54-38.3-24.73h0Zm4.67,57.34c-3.89.69-5.82-.66-6.28-3.3-.69-3.89,2.37-6.38,14.77-8.82l1.26,7.16c-1.97,2.81-6.98,4.47-9.75,4.96h0Z" fill="#fff" stroke-width="0"/><path d="m598.82,595.53c-21.16,3.73-30.93-3.41-34.82-25.48l-3.25-18.46-4.39.77c-4.11.73-6.09-.66-6.81-4.77l-1.84-10.43c-.73-4.11.66-6.09,4.77-6.81l4.39-.77-1.46-8.28c-.9-5.1-.05-7.21,3.51-8.67l9.07-3.67c3.44-1.5,5.7-2.29,7.34-2.58,3.72-.66,5.3.63,6.06,4.9l2.39,13.56,13.81-2.44c4.11-.73,6.09.66,6.81,4.77l1.84,10.43c.73,4.11-.66,6.09-4.77,6.81l-13.81,2.44,3.19,18.08c1.05,5.97,3.59,8.04,8.76,7.12,1.63-.29,3.44-.89,5.04-1.42,1.24-.41,2.41-.8,3.22-.94,2.81-.5,4.15.69,4.77,4.22l1.6,9.05c.77,4.35-.4,6.66-4.44,8.85-3.08,1.58-7.7,3.15-10.97,3.72Z" fill="#fff" stroke-width="0"/><path d="m575.41,506.87c3.44-.61,4.77.49,5.48,4.5l2.3,13.07.17.98.98-.17,13.32-2.35c3.86-.68,5.55.5,6.23,4.36l1.84,10.43c.68,3.86-.5,5.55-4.36,6.23l-13.32,2.35-.98.17.17.98,3.1,17.59c1.1,6.24,3.89,8.49,9.34,7.53,1.67-.29,3.5-.9,5.11-1.44,1.22-.41,2.38-.79,3.15-.93,2.16-.38,3.54.12,4.19,3.82l1.6,9.05c.73,4.14-.33,6.24-4.16,8.31-3.06,1.56-7.62,3.11-10.84,3.68-20.81,3.67-30.41-3.36-34.24-25.08l-3.17-17.97-.17-.98-.98.17-3.89.69c-3.86.68-5.55-.5-6.23-4.36l-1.84-10.43c-.68-3.86.5-5.55,4.36-6.23l3.89-.69.98-.17-.17-.98-1.37-7.79c-.87-4.92-.15-6.74,3.21-8.12l9.09-3.68c3.39-1.47,5.62-2.26,7.22-2.54m-.17-.98c-1.88.33-4.43,1.3-7.44,2.61l-9.07,3.67c-3.87,1.59-4.75,3.95-3.81,9.22l1.37,7.79-3.89.69c-4.4.78-5.95,2.99-5.17,7.39l1.84,10.43c.78,4.4,2.99,5.95,7.39,5.17l3.89-.69,3.17,17.97c3.94,22.36,14.16,29.63,35.4,25.89,3.39-.6,8.03-2.19,11.12-3.78,4.26-2.31,5.49-4.86,4.69-9.38l-1.6-9.05c-.66-3.77-2.21-5.18-5.35-4.63-1.88.33-5.37,1.85-8.26,2.36-4.9.86-7.18-1.06-8.18-6.72l-3.1-17.59,13.32-2.35c4.4-.78,5.95-2.99,5.17-7.39l-1.84-10.43c-.78-4.4-2.99-5.95-7.39-5.17l-13.32,2.35-2.3-13.07c-.75-4.27-2.36-6.06-6.64-5.31h0Z" fill="#fff" stroke-width="0"/><path d="m641.91,587.93c-12.91,2.28-22.59-3.9-24.68-15.74-2.58-14.66,8.81-23.46,36.95-28.55l.49-.09-.31-1.75c-.65-3.66-3.35-7.69-12.59-6.06-5.8,1.02-10.37,2.86-16.87,6.76-.96.57-1.78.9-2.51,1.03-1.94.34-3.35-.84-4.71-3.94l-3.64-8.17c-1.71-3.99-.95-6.38,2.81-8.84,6.78-4.32,17.26-8.18,26.69-9.85,21.21-3.74,34.26,4.67,37.72,24.32l6.23,35.3c.73,4.11-.66,6.09-4.77,6.81l-12.06,2.13c-4.11.73-6.1-.77-6.88-5.15l-.33-1.87-.69,1.06c-4.42,6.77-11.24,10.89-20.86,12.59Zm14.61-30.95c-12,2.37-15.97,4.83-15.16,9.4.38,2.17,1.88,4.58,6.86,3.7,2.55-.45,7.93-2.11,10.07-5.16l.12-.17-1.39-7.87-.5.1Z" fill="#fff" stroke-width="0"/><path d="m643.64,513.23c10.49-1.85,18.97-.74,25.22,3.3,6.21,4.02,10.22,10.95,11.93,20.62l6.23,35.3c.68,3.86-.5,5.55-4.36,6.23l-12.06,2.13c-3.86.68-5.57-.6-6.3-4.74l-.11-.63-.44-2.49-1.38,2.12c-4.34,6.65-11.05,10.7-20.53,12.37-12.61,2.22-22.07-3.8-24.1-15.33-2.52-14.32,8.75-22.94,36.55-27.97l.98-.18-.17-.98-.22-1.26c-.56-3.18-3.02-8.26-13.17-6.47-5.87,1.03-10.48,2.89-17.03,6.82-.91.54-1.68.85-2.35.97-1.24.22-2.6-.07-4.16-3.65l-3.64-8.15c-1.61-3.76-.93-5.91,2.61-8.23,6.74-4.29,17.15-8.13,26.52-9.78m4.67,57.34c2.81-.5,8.16-2.18,10.39-5.37l.24-.34-.07-.41-1.26-7.16-.18-1-1,.2c-12.36,2.44-16.43,5.05-15.56,9.98.35,1.96,1.77,5.11,7.44,4.11m-4.84-58.33c-9.55,1.68-20.12,5.62-26.88,9.92-4.07,2.66-4.75,5.37-2.99,9.47l3.64,8.17c1.43,3.27,3.02,4.63,5.25,4.23.8-.14,1.69-.51,2.68-1.1,6.09-3.66,10.67-5.64,16.7-6.7,7.04-1.24,11.14.76,12.01,5.66l.22,1.26c-28.87,5.22-39.92,14.55-37.36,29.13,2.13,12.06,11.94,18.49,25.26,16.14,9.8-1.73,16.7-5.92,21.19-12.8l.11.63c.82,4.65,3.06,6.33,7.46,5.55l12.06-2.13c4.4-.78,5.95-2.99,5.17-7.39l-6.23-35.3c-3.52-19.98-16.69-28.54-38.3-24.73h0Zm4.67,57.34c-3.89.69-5.82-.66-6.28-3.3-.69-3.89,2.37-6.38,14.77-8.82l1.26,7.16c-1.97,2.81-6.98,4.47-9.75,4.96h0Z" fill="#fff" stroke-width="0"/><path d="m739.66,570.69c-7.4,1.3-15.07-.43-20.52-4.64l-1.02-.79.22,1.27c.92,5.21-.44,6.44-3.45,6.97l-8.92,1.57c-4.11.73-6.09-.66-6.81-4.77l-14.09-79.91c-.73-4.11.66-6.09,4.77-6.81l15.33-2.7c4.11-.73,6.09.66,6.81,4.77l3.47,19.67.68-.69c3.62-3.67,8.81-6.25,14.62-7.28,18.18-3.21,31.32,7.85,35.15,29.57,4.25,24.12-5.31,40.07-26.24,43.76Zm-11.94-50.1c-3.43.61-6.79,2.52-8.56,4.88l-.13.17,4.05,22.98.26.1c2.49,1.01,4.96,1.28,7.54.82,7.1-1.25,9.66-6.87,7.84-17.18-1.6-9.08-5.1-12.82-11.01-11.78Z" fill="#fff" stroke-width="0"/><path d="m705.26,481.38c3.86-.68,5.55.5,6.23,4.36l3.3,18.72.34,1.91,1.36-1.38c3.55-3.6,8.65-6.13,14.35-7.14,17.87-3.15,30.8,7.75,34.57,29.16,4.2,23.81-5.22,39.55-25.83,43.18-7.26,1.28-14.79-.42-20.13-4.54l-2.04-1.58.45,2.54c.85,4.83-.3,5.9-3.04,6.39l-8.92,1.57c-3.86.68-5.55-.5-6.23-4.36l-14.09-79.91c-.68-3.86.5-5.55,4.36-6.23l15.33-2.7m25.71,68.66c7.32-1.29,10.1-7.27,8.25-17.76-1.64-9.29-5.43-13.27-11.59-12.19-3.55.63-7.03,2.62-8.87,5.08l-.26.35.08.43,3.97,22.49.1.55.51.21c2.58,1.04,5.14,1.32,7.81.85m-25.88-69.65l-15.33,2.7c-4.4.78-5.95,2.99-5.17,7.39l14.09,79.91c.78,4.4,2.99,5.95,7.39,5.17l8.92-1.57c3.52-.62,4.76-2.39,3.85-7.55,6.15,4.75,14.26,5.91,20.91,4.73,21.23-3.74,30.94-19.96,26.64-44.34-3.88-21.99-17.26-33.23-35.73-29.97-6.28,1.11-11.48,3.97-14.89,7.42l-3.3-18.72c-.78-4.4-2.99-5.95-7.39-5.17h0Zm25.71,68.66c-2.64.47-5.03.11-7.26-.79l-3.97-22.49c1.78-2.39,5.1-4.14,8.24-4.69,5.65-1,8.9,2.71,10.43,11.38,1.75,9.93-.65,15.4-7.44,16.6h0Z" fill="#fff" stroke-width="0"/><path d="m804.49,559.26c-16.35,2.88-22.95-2.23-26.13-20.28l-11.12-63.07c-.73-4.11.66-6.09,4.77-6.81l15.33-2.7c4.11-.73,6.09.66,6.81,4.77l10.63,60.31c.57,3.21,2.15,4.53,4.85,4.06l.63-.11c3.12-.55,4.52.58,5.15,4.15l1.66,9.42c.69,3.93-.51,5.98-4.59,7.83-2.3,1.08-4.98,1.9-7.99,2.43Z" fill="#fff" stroke-width="0"/><path d="m787.42,466.89c3.86-.68,5.55.5,6.23,4.36l10.63,60.31c.62,3.49,2.44,4.99,5.43,4.46l.63-.11c2.51-.44,3.91.01,4.57,3.75l1.66,9.42c.65,3.69-.43,5.53-4.31,7.3-2.25,1.06-4.9,1.86-7.86,2.39-15.98,2.82-22.43-2.2-25.55-19.87l-11.12-63.07c-.68-3.86.5-5.55,4.36-6.23l15.33-2.7m-.17-.98l-15.33,2.7c-4.4.78-5.95,2.99-5.17,7.39l11.12,63.07c3.23,18.34,10.12,23.61,26.71,20.68,2.64-.47,5.48-1.23,8.11-2.47,4.2-1.91,5.63-4.1,4.87-8.37l-1.66-9.42c-.69-3.89-2.34-5.16-5.73-4.56l-.63.11c-2.39.42-3.74-.64-4.27-3.65l-10.63-60.31c-.78-4.4-2.99-5.95-7.39-5.17h0Z" fill="#fff" stroke-width="0"/><path d="m860.9,549.32c-25.38,4.48-39.23-4.98-43.6-29.76-4.13-23.42,6.72-38.63,30.54-42.84,19.69-3.47,33.48,3.18,35.98,17.37,2.08,11.79-4.51,19.09-20.73,22.97l-17.19,4.24.2.53c2.04,5.36,6.36,6.93,14.93,5.42,5.83-1.03,12.53-3.55,17.07-6.42,1.59-1.01,3.03-1.64,4.29-1.86,2.41-.42,3.86.67,4.32,3.24l1.64,9.3c.74,4.2-.95,7.43-5.18,9.89-5.98,3.51-14.51,6.54-22.27,7.91Zm-10.2-54.17c-5.29.93-7.73,5.13-7.24,12.48l.04.6,7.15-1.83c5.85-1.49,9.6-3.32,8.88-7.38-.59-3.35-3.81-4.76-8.83-3.87Z" fill="#fff" stroke-width="0"/><path d="m847.93,477.21c19.39-3.42,32.95,3.08,35.4,16.97,2.02,11.48-4.44,18.59-20.36,22.4l-16.64,4.1-1.1.27.4,1.06c2.11,5.56,6.74,7.28,15.48,5.74,5.89-1.04,12.66-3.58,17.25-6.49,1.51-.96,2.93-1.58,4.11-1.79,2.14-.38,3.33.52,3.74,2.84l1.64,9.3c.71,4.02-.86,7-4.94,9.38-5.93,3.48-14.4,6.49-22.1,7.85-12.74,2.25-22.34,1.02-29.34-3.75-7.01-4.78-11.49-13.15-13.68-25.6-2.05-11.6-.49-21.12,4.63-28.3,5.12-7.18,13.7-11.87,25.51-13.95m-4.89,31.65l1.17-.3,6.57-1.68c5.3-1.35,10.08-3.25,9.25-7.96-.64-3.61-4.16-5.21-9.41-4.28-3.84.68-8.28,3.48-7.65,13.01l.08,1.2m4.71-32.64c-24.25,4.28-35.16,19.54-30.95,43.41,4.45,25.25,18.43,34.71,44.18,30.17,7.92-1.4,16.45-4.45,22.43-7.97,4.46-2.6,6.19-6.02,5.42-10.41l-1.64-9.3c-.52-2.98-2.35-4.1-4.9-3.65-1.32.23-2.84.89-4.48,1.93-4.55,2.87-11.23,5.35-16.89,6.35-8.29,1.46-12.44,0-14.37-5.11l16.64-4.1c16.53-3.95,23.24-11.48,21.11-23.54-2.55-14.45-16.58-21.3-36.56-17.78h0Zm-3.8,31.37c-.46-7.04,1.81-11.07,6.83-11.96s7.72.45,8.25,3.47c.58,3.27-1.94,5.14-8.51,6.81l-6.57,1.68h0Z" fill="#fff" stroke-width="0"/><path d="m382.55,710.32c1.39-.36,2.05-.79,2.55-1.5.2-.29.44-1.53.62-2.47.46-2.56.94-5.82,1.05-6.61.4-2.55.69-4.44,1.04-6.98.07-.55.17-1.31.08-1.81-.21-1.21-1.6-1.17-2.51-1.04l.06-.3,7.97-1.41-.06.3c-.89.27-1.57.48-2.22,1.59-.35.6-.58,2.18-.78,3.32l-.83,5.26,8.88-1.57c.41-2.52.63-3.86.98-6.4.08-.5.15-1.39.08-1.8-.21-1.21-1.6-1.17-2.51-1.04l.06-.3,7.97-1.41-.06.3c-.89.27-1.62.66-2.22,1.61-.35.57-.59,2.15-.78,3.29-.31,1.96-.43,3.03-.74,4.99-.46,2.87-.68,4.36-1.11,7.25-.13.85-.28,1.98-.2,2.4.14.77,1.44.88,2.39.83l-.04.29-8.13,1.43.03-.29c1.39-.36,2.05-.79,2.55-1.5.2-.29.44-1.53.62-2.47.46-2.56.91-5.79,1.05-6.61l-8.91,1.57-.92,6.39c-.13.9-.28,1.95-.21,2.37.14.77,1.39.92,2.4.86l-.03.29-8.13,1.43.03-.29Z" fill="#fff" stroke="#fff" stroke-miterlimit="10"/><path d="m410.2,705.44c1.39-.36,2.05-.79,2.55-1.5.2-.29.44-1.53.62-2.47.46-2.56.94-5.82,1.05-6.61.4-2.55.69-4.44,1.04-6.98.07-.55.17-1.31.08-1.81-.21-1.21-1.6-1.17-2.51-1.04l.06-.3,14.7-2.59.79,4.5-.26.13c-.89-1.18-2.75-3.35-3.22-3.41-.76-.09-2.01.04-3.09.23-1.24.22-2.73.62-3.41.8l-1.41,9.23,1.35-.24c3.86-.68,4.99-4.12,5.23-5.36l.35.05-1.3,10.07h-.31c-.03-.51-.07-.87-.15-1.31-.12-.66-.52-3.58-3.41-3.07l-1.82.32c-.29,2.38-.61,4.12-.98,6.68-.11.82-.24,2.66-.29,3.52l8.05-1.59c.99-.2,3.09-3.42,4.53-5.58l.27.09-.87,5.39-17.67,3.12.03-.29Z" fill="#fff" stroke="#fff" stroke-miterlimit="10"/><path d="m434.5,701.16c1.39-.36,2.05-.79,2.55-1.5.2-.29.44-1.53.62-2.47.46-2.56.94-5.82,1.05-6.61.4-2.55.69-4.44,1.04-6.98.07-.55.17-1.31.08-1.81-.21-1.21-1.6-1.17-2.51-1.04l.06-.3,7.97-1.41-.06.3c-.89.27-1.57.48-2.22,1.59-.35.6-.59,2.15-.78,3.29-.32,1.9-.71,4.33-.93,5.88l-1.38,9.74,7.89-1.22,3.9-6.26.27.09-1.01,6.06-16.57,2.92.03-.29Z" fill="#fff" stroke="#fff" stroke-miterlimit="10"/><path d="m459.44,694.77l-.94,1.59-.24-.07.88-6.81h.37c0,.31.03.78.11,1.25.53,3.03,2.73,5.63,5.68,5.11,2.29-.4,3.86-2.3,3.44-4.7-.21-1.19-.8-2.13-2.13-3.21-1.23-1.01-2.95-2.07-4.13-3.25-.8-.82-1.55-1.55-1.84-3.17-.43-2.43,1.19-5.67,5.19-6.37,1.96-.35,3.67.35,4.45.72l.73-1.01.29.03-.35,6.57h-.37c-.02-.27-.04-.53-.08-.77-.27-1.52-1.45-5.63-4.73-5.05-2.21.39-3.24,2.42-2.92,4.24.26,1.49.94,2.28,2.23,3.45,1.02.93,2.34,1.69,3.37,2.53,1.5,1.27,2.32,2.35,2.56,3.7.63,3.58-2.28,6.12-5.64,6.71-3.14.55-5.24-1.04-5.92-1.49Z" fill="#fff" stroke="#fff" stroke-miterlimit="10"/><path d="m478.01,693.49c1.39-.36,2.13-.8,2.63-1.52.2-.29.44-1.53.62-2.47.46-2.56.93-5.82,1.05-6.61.4-2.55.69-4.44,1.04-6.98.07-.55.17-1.31.08-1.8-.21-1.21-1.68-1.15-2.6-1.02l.06-.3,8.13-1.43-.06.3c-.89.27-1.62.51-2.3,1.63-.35.57-.59,2.15-.78,3.29l-.93,5.85c-.24,1.55-.58,4.14-.92,6.39-.13.85-.28,1.98-.2,2.4.14.77,1.52.87,2.47.81l-.03.29-8.3,1.46.03-.29Z" fill="#fff" stroke="#fff" stroke-miterlimit="10"/><path d="m509.26,688.06l-8.96-16.64c-.68,4.67-1.01,7-1.81,12.66-.25,1.81-.41,3.31-.27,4.11.18.99,1.48,1.28,3.03,1.2l-.03.29-7.36,1.3.03-.29c.89-.27,1.99-.81,2.62-1.74.61-.9.97-2.56,1.35-4.76.27-1.67.68-4.04,1.05-6.64.35-2.54.83-5.44.7-6.21-.19-1.08-1.81-1.1-2.78-1.07l.06-.3,5.07-.89,8.18,14.96c.48-3.38.93-6.99,1.43-10.57.22-1.52.35-2.99.22-3.76-.18-1.02-1.28-1.59-3-1.55l.06-.3,7.09-1.25-.06.3c-1.37.44-2.19,1.15-2.77,2.34-.34.66-.59,2.32-.9,4.11-.29,1.73-.68,4.04-1.02,6.63-.35,2.22-.76,5.68-1.1,7.96-.03.15-.19.35-.39.38-.14.02-.3-.09-.44-.26Z" fill="#fff" stroke="#fff" stroke-miterlimit="10"/><path d="m520.33,686.03c1.39-.36,2.05-.79,2.55-1.5.2-.29.44-1.53.62-2.47.46-2.56.94-5.82,1.05-6.61.4-2.55.69-4.44,1.04-6.98.07-.55.17-1.31.08-1.81-.21-1.21-1.6-1.17-2.51-1.04l.06-.3,7.97-1.41-.06.3c-.89.27-1.57.48-2.22,1.59-.35.6-.58,2.18-.78,3.32-.29,1.9-.72,4.48-1.01,6.18,2.74-3.33,5.94-7.25,6.72-8.32.82-1.14,1.51-2.09,1.44-2.61-.08-.47-1-.51-1.92-.54l.06-.3,6.18-1.09-.06.3c-1.77.77-2.59,1.28-4.46,3.55-.99,1.17-3.18,3.89-5.4,6.61,2.6,3.64,5.38,7.47,5.64,7.79,1.46,2.02,1.95,2.02,3.55,2.08l-.03.29-7.67,1.35.04-.29c1.39-.36,2.19-.64,2.02-1.58-.09-.5-3.18-4.67-5.34-7.53l-.9,1.16c-.3,1.99-.38,2.85-.7,5.21-.13.9-.28,1.95-.21,2.37.14.77,1.39.92,2.4.86l-.03.29-8.13,1.43.03-.29Z" fill="#fff" stroke="#fff" stroke-miterlimit="10"/><path d="m543.83,681.88c1.39-.36,2.13-.8,2.63-1.52.2-.29.44-1.53.62-2.47.46-2.56.93-5.82,1.05-6.61.4-2.55.69-4.44,1.04-6.98.07-.55.17-1.31.08-1.8-.21-1.21-1.68-1.15-2.6-1.02l.06-.3,8.13-1.43-.06.3c-.89.27-1.62.51-2.3,1.63-.35.57-.59,2.15-.78,3.29l-.93,5.85c-.24,1.55-.58,4.14-.92,6.39-.13.85-.28,1.98-.2,2.4.14.77,1.52.87,2.47.81l-.03.29-8.3,1.46.03-.29Z" fill="#fff" stroke="#fff" stroke-miterlimit="10"/><path d="m571.72,668.98l6.18-1.09-.3,1.82-6.18,1.09.31-1.82Z" fill="#fff" stroke="#fff" stroke-miterlimit="10"/><path d="m594.76,672.9c1.39-.36,2.05-.79,2.55-1.5.2-.29.44-1.53.62-2.47.46-2.56.94-5.82,1.05-6.61.4-2.55.69-4.44,1.04-6.98.07-.55.17-1.31.08-1.81-.21-1.21-1.6-1.17-2.51-1.04l.06-.3,14.7-2.59.79,4.5-.26.13c-.89-1.18-2.75-3.35-3.22-3.41-.76-.09-2.01.04-3.09.23-1.24.22-2.73.62-3.41.8l-1.41,9.23,1.35-.24c3.86-.68,4.99-4.12,5.23-5.36l.35.05-1.3,10.07h-.31c-.03-.51-.07-.87-.15-1.31-.12-.66-.52-3.58-3.41-3.07l-1.82.32c-.29,2.38-.61,4.12-.98,6.68-.11.82-.24,2.66-.29,3.52l8.05-1.59c.99-.2,3.09-3.42,4.53-5.58l.27.09-.87,5.39-17.67,3.12.03-.29Z" fill="#fff" stroke="#fff" stroke-miterlimit="10"/><path d="m620.83,666.31l-.94,1.59-.24-.07.88-6.81h.37c0,.31.03.78.11,1.25.53,3.03,2.73,5.63,5.68,5.11,2.29-.4,3.86-2.3,3.44-4.7-.21-1.19-.8-2.13-2.13-3.21-1.23-1.01-2.95-2.07-4.13-3.25-.8-.82-1.55-1.55-1.84-3.17-.43-2.43,1.19-5.67,5.19-6.37,1.96-.35,3.67.35,4.45.72l.73-1.01.29.03-.35,6.57h-.37c-.02-.27-.04-.53-.08-.77-.27-1.52-1.45-5.63-4.73-5.05-2.21.39-3.24,2.42-2.92,4.24.26,1.49.94,2.28,2.23,3.45,1.02.93,2.34,1.69,3.37,2.53,1.5,1.27,2.32,2.35,2.56,3.7.63,3.58-2.28,6.12-5.64,6.71-3.14.55-5.24-1.04-5.92-1.49Z" fill="#fff" stroke="#fff" stroke-miterlimit="10"/><path d="m641.11,664.73c1.39-.36,2.13-.8,2.63-1.52.2-.29.44-1.53.62-2.47.46-2.56.93-5.82,1.05-6.61.35-2.22,1.09-7.5,1.45-10.15l-3.04.51c-1.63.26-3.95,4.05-4.58,5.13l-.27-.09.76-4.74,16.9-2.98-.77,4.86-.28.05c-.33-1.36-1.36-4-2.02-3.88l-4,.68c-.39,2.63-1.26,8.67-1.51,10.16-.24,1.55-.58,4.14-.92,6.39-.14.85-.28,1.98-.2,2.4.14.77,1.57.86,2.53.8l-.03.29-8.36,1.47.03-.29Z" fill="#fff" stroke="#fff" stroke-miterlimit="10"/><path d="m659.25,660.37c-.15-.83.38-1.69,1.21-1.83s1.63.4,1.78,1.22c.16.88-.41,1.69-1.24,1.84-.91.16-1.61-.4-1.75-1.23Z" fill="#fff" stroke="#fff" stroke-miterlimit="10"/><path d="m690.88,656.24l-11.58,2.04.05-.35c4.52-4.83,11.34-11.95,10.39-17.33-.31-1.76-1.32-2.64-3.11-2.32-2.34.41-3.93,2.57-4.7,4.81l-.31-.17c.63-2.73,2.39-6.14,5.75-6.73,2.37-.42,4.26.64,4.71,3.15.51,2.87-.78,5.4-3.58,9.05-2.26,2.96-4.95,5.65-6.39,7.13l6.62-1.17c2.32-.41,2.8-1.52,3.31-2.86l.41.07-1.56,4.68Z" fill="#fff" stroke="#fff" stroke-miterlimit="10"/><path d="m707.47,632.64c2.62-.46,4.85,1.7,5.45,5.1,1.12,6.34-2.16,15.16-7.62,16.13-2.4.42-4.82-1.57-5.53-5.59-1.15-6.51,2.3-14.68,7.71-15.63Zm-2.25,20.78c4.33-.76,6.18-11.07,5.17-16.8-.38-2.18-1.24-3.82-2.95-3.52-4.58.81-6.17,11.47-5.22,16.84.39,2.23,1.24,3.79,3,3.48Z" fill="#fff" stroke="#fff" stroke-miterlimit="10"/><path d="m730.42,649.27l-11.58,2.04.05-.35c4.52-4.83,11.34-11.95,10.39-17.33-.31-1.76-1.32-2.64-3.11-2.32-2.34.41-3.93,2.57-4.7,4.81l-.31-.17c.63-2.73,2.39-6.14,5.75-6.73,2.37-.42,4.26.64,4.71,3.15.51,2.87-.78,5.4-3.58,9.05-2.26,2.96-4.95,5.65-6.39,7.13l6.62-1.17c2.32-.41,2.8-1.52,3.31-2.86l.41.07-1.56,4.68Z" fill="#fff" stroke="#fff" stroke-miterlimit="10"/><path d="m749.33,645.93l-11.58,2.04.05-.35c4.52-4.83,11.34-11.95,10.39-17.33-.31-1.76-1.32-2.64-3.11-2.32-2.34.41-3.93,2.57-4.7,4.81l-.31-.17c.63-2.73,2.39-6.14,5.75-6.73,2.37-.42,4.26.64,4.71,3.15.51,2.87-.78,5.4-3.58,9.05-2.26,2.96-4.95,5.65-6.39,7.13l6.62-1.17c2.32-.41,2.8-1.52,3.31-2.86l.41.07-1.56,4.68Z" fill="#fff" stroke="#fff" stroke-miterlimit="10"/><circle cx="52.13" cy="655.06" r="12.31" fill="#fff" stroke-width="0"/><path d="m50.08,643.42c6.41-1.13,12.55,3.17,13.68,9.58,1.13,6.41-3.17,12.55-9.58,13.68s-12.55-3.17-13.68-9.58c-1.13-6.41,3.17-12.55,9.58-13.68m-.17-.98c-6.97,1.23-11.62,7.87-10.39,14.84s7.87,11.62,14.84,10.39,11.62-7.87,10.39-14.84c-1.23-6.97-7.87-11.62-14.84-10.39h0Z" fill="#fff" stroke-width="0"/><circle cx="1052.86" cy="478.6" r="12.31" fill="#fff" stroke-width="0"/><path d="m1050.81,466.97c6.41-1.13,12.55,3.17,13.68,9.58,1.13,6.41-3.17,12.55-9.58,13.68s-12.55-3.17-13.68-9.58c-1.13-6.41,3.17-12.55,9.58-13.68m-.17-.98c-6.97,1.23-11.62,7.87-10.39,14.84,1.23,6.97,7.87,11.62,14.84,10.39s11.62-7.87,10.39-14.84c-1.23-6.97-7.87-11.62-14.84-10.39h0Z" fill="#fff" stroke-width="0"/></g></svg>