<?xml version="1.0" encoding="UTF-8"?><svg id="Layer_2" xmlns="http://www.w3.org/2000/svg" xmlns:xlink="http://www.w3.org/1999/xlink" viewBox="0 0 440.18 237.69"><defs><filter id="drop-shadow-1" filterUnits="userSpaceOnUse"><feOffset dx="5" dy="5"/><feGaussianBlur result="blur" stdDeviation="5"/><feFlood flood-color="#000" flood-opacity=".16"/><feComposite in2="blur" operator="in"/><feComposite in="SourceGraphic"/></filter><filter id="drop-shadow-2" filterUnits="userSpaceOnUse"><feOffset dx="5" dy="5"/><feGaussianBlur result="blur-2" stdDeviation="5"/><feFlood flood-color="#000" flood-opacity=".16"/><feComposite in2="blur-2" operator="in"/><feComposite in="SourceGraphic"/></filter></defs><g id="Texts"><g><g filter="url(#drop-shadow-1)"><path d="M37.92,132.05L1.83,110.6c-1.99-1.18-2.33-2.54-1.15-4.52l8.54-14.36c8.27-13.9,17.53-15.92,32.45-7.05,14.92,8.87,17.58,17.98,9.31,31.88l-8.54,14.36c-1.18,1.99-2.54,2.33-4.52,1.15Zm1.42-22.28c2.77-4.65,1.42-7.3-5.73-11.55-7.15-4.25-10.12-4.17-12.88,.48l-2.43,4.09,18.61,11.07,2.43-4.09Z" fill="#365880"/><path d="M35.5,67.2c-3.33-3.39-2.96-7.55,1.09-11.52,4.05-3.98,8.21-4.27,11.54-.87,3.33,3.39,2.96,7.54-1.09,11.52-4.05,3.98-8.21,4.27-11.54,.87Zm28.14,26.5l-18.22-18.57c-1.3-1.32-1.05-2.76,.74-3.87,1.22-.83,2.21-1.61,3.2-2.59,.99-.97,1.79-1.94,2.64-3.15,1.14-1.76,2.59-1.98,3.88-.66l18.22,18.57c1.62,1.65,1.61,3.05-.04,4.67l-5.75,5.64c-1.65,1.62-3.05,1.61-4.67-.04Z" fill="#365880"/><path d="M79.65,81.39c-2.28,.77-3.67,.38-4.95-1.47l-2.52-3.64c-1.65-2.39-.63-3.58,1.99-4.43,3.17-.99,6.82-2.79,9.15-4.41,2.61-1.8,3.41-2.84,2.81-3.71-.56-.81-1.51-.8-4.11,.44l-3.58,1.67c-6.01,2.8-11.24,2.08-14.74-2.97-4.51-6.51-1.44-14.5,8.06-21.07,3.04-2.1,6.96-4.09,9.55-4.76,2.19-.55,3.5,.07,4.52,2.25l1.6,3.47c1.03,2.18,.44,3.31-2.4,4.31-2.44,.89-4.56,2.11-6.41,3.39-2.28,1.58-3.21,2.78-2.61,3.65,.56,.81,1.55,.61,4.04-.55l3.58-1.67c6.32-2.93,11.09-2.3,14.78,3.02,4.51,6.51,1.44,14.5-8.06,21.07-3.31,2.29-7.12,4.21-10.71,5.41Z" fill="#365880"/><path d="M98.33,47.8c-5.38-11.7-2.23-20.34,9.58-25.77,3.36-1.54,6.01-2.11,7.34-2.21,2.1-.17,3.52,.71,4.07,3l1.28,5.15c.71,2.8-.61,3.41-2.84,3.78-1.9,.29-2.67,.5-3.99,1.11-3.42,1.57-3.88,4.04-1.84,8.48,2.15,4.68,4.45,5.88,7.87,4.3,1.32-.61,2.34-1.22,4.77-3.06,1.73-1.3,3.05-1.11,4.1,1.17l2.1,4.56c.99,2.16,.71,3.6-1.12,5.31-1.31,1.26-3.27,2.52-6.03,3.79-11.46,5.27-19.97,1.92-25.27-9.6Z" fill="#365880"/><path d="M127.83,34.08c-3.45-12.4,1.18-20.41,13.77-23.91,12.59-3.5,20.69,.96,24.14,13.37,3.45,12.4-1.18,20.41-13.77,23.91-12.59,3.5-20.69-.96-24.14-13.37Zm23.6-6.56c-1.42-5.09-3.22-6.64-6.59-5.71-3.37,.94-4.11,3.2-2.7,8.29,1.42,5.09,3.22,6.64,6.59,5.71s4.11-3.2,2.7-8.29Z" fill="#365880"/><path d="M181.5,37.23c-7.06-9.11-14.69-23.87-15.35-29.77-.21-1.9,.74-2.87,2.58-3.08l8.07-.9c2.95-.33,4.29,.38,4.86,2.51,1.81,6.64,4.31,13,7,18.02,1.41-5.21,2.41-11.76,2.85-19.12,.14-2.27,1.3-3.2,4.19-3.52l7.41-.83c1.9-.21,2.98,.53,3.2,2.43,.66,5.91-3.52,21.98-8.4,32.43-1.18,2.52-2.35,3.32-5.11,3.63l-5.51,.62c-2.76,.31-4.08-.21-5.78-2.41Z" fill="#365880"/><path d="M210.01,18.84C210.33,6.3,217.43-.32,230.17,.01c10.49,.27,16.9,5.19,16.71,12.78-.16,6.34-4.34,9.46-13.13,9.77l-8.86,.37c.46,2.79,2.41,3.96,6.76,4.07,2.97,.08,6.62-.49,9.22-1.48,2.73-1.05,4.64-.54,4.58,1.83l-.13,4.88c-.06,2.31-1.29,3.86-3.82,4.72-3.4,1.17-8.04,1.84-12.2,1.73-13.53-.35-19.64-6.58-19.3-19.84Zm18.51-3.49c3.5-.17,4.98-.86,5.02-2.58,.04-1.58-1.32-2.54-3.83-2.61-2.64-.07-4.21,1.74-4.69,5.36l3.5-.17Z" fill="#365880"/><path d="M249.42,35.84l4.7-30.14c.36-2.28,1.49-3.11,3.77-2.75l6.2,.97c2.28,.36,3.12,1.42,2.76,3.71l-.37,2.35c1.55-3.1,6.4-5.48,10.12-4.9,2.28,.36,3.11,1.49,2.75,3.77l-1.34,8.61c-.36,2.28-1.49,3.11-3.77,2.75-1.44-.22-4.8-1.35-7.19-2.32l-3.15,20.22c-.36,2.28-1.49,3.11-3.77,2.75l-7.96-1.24c-2.28-.36-3.11-1.49-2.75-3.77Z" fill="#365880"/><path d="M292.03,42.49l12-28.04c.91-2.12,2.21-2.65,4.33-1.74l5.77,2.47c2.19,.94,2.67,2.15,1.79,4.21l-.03,.06c3.71-1.29,8.02-.95,11.84,.69,4.55,1.95,6.81,4.56,7.7,8.18,4.26-1.41,8.87-1.09,13.18,.76,8.25,3.53,10.13,10.22,5.69,20.6l-7.04,16.45c-.91,2.12-2.21,2.65-4.33,1.74l-7.41-3.17c-2.12-.91-2.65-2.21-1.74-4.33l6.36-14.87c1.82-4.25,1.57-6.01-.8-7.02-1.15-.49-3.09-.67-4.96-.33-.35,1-.74,2.05-1.23,3.21l-6.78,15.84c-.91,2.12-2.21,2.65-4.33,1.74l-7.41-3.17c-2.12-.91-2.64-2.21-1.74-4.33l6.36-14.87c1.82-4.25,1.57-6.01-.8-7.02-1.34-.57-3.09-.67-4.89-.15l-8.08,18.88c-.91,2.12-2.21,2.65-4.33,1.74l-7.41-3.17c-2.12-.91-2.65-2.21-1.74-4.33Z" fill="#365880"/><path d="M358.36,56.4c7.97-10.11,17.16-11.11,27.42-3.02,10.27,8.09,11.45,17.26,3.48,27.37-7.97,10.11-17.16,11.11-27.42,3.02-10.27-8.09-11.45-17.26-3.48-27.37Zm19.24,15.16c3.27-4.15,3.46-6.52,.71-8.69-2.75-2.17-5.01-1.43-8.28,2.72-3.27,4.15-3.46,6.52-.71,8.69,2.75,2.17,5.01,1.43,8.28-2.72Z" fill="#365880"/><path d="M381.49,95.42l23.67-19.24c1.79-1.46,3.19-1.31,4.64,.48l3.96,4.87c1.46,1.79,1.37,3.15-.43,4.6l-1.84,1.5c3.23-1.26,8.43,.21,10.8,3.13,1.46,1.79,1.32,3.19-.48,4.64l-6.76,5.5c-1.79,1.46-3.19,1.31-4.65-.48-.92-1.13-2.66-4.22-3.78-6.54l-15.88,12.91c-1.79,1.46-3.18,1.31-4.64-.48l-5.08-6.25c-1.46-1.79-1.31-3.19,.48-4.64Z" fill="#365880"/><path d="M412.08,108.62c11.44-5.16,20.49-1.63,25.73,9.98,4.32,9.57,2.67,17.48-4.25,20.61-5.78,2.61-10.41,.21-14.5-7.58l-4.18-7.82c-2.31,1.62-2.52,3.89-.73,7.86,1.22,2.71,3.32,5.75,5.34,7.66,2.14,2.01,2.5,3.94,.34,4.92l-4.45,2.01c-2.11,.95-4.04,.52-5.91-1.39-2.53-2.55-5.15-6.44-6.86-10.23-5.57-12.34-2.61-20.55,9.49-26.01Zm11.19,15.16c1.68,3.08,2.94,4.11,4.5,3.4,1.44-.65,1.72-2.3,.68-4.58-1.09-2.41-3.4-3.03-6.87-1.9l1.68,3.08Z" fill="#365880"/></g><g filter="url(#drop-shadow-2)"><path d="M177.67,108.89c.5-5.75-.36-11.68-2.47-17.05s-5.17-10.63-9.52-14.31c-3.25-2.75-7.6-3.67-11.61-2.09-4.9,1.93-8.42,6.2-10.85,10.75-2.86,5.34-5.26,11.01-7.52,16.62-1.66,4.13-3.14,8.33-4.4,12.6-2.37,8.08-4.03,16.35-6.19,24.48-5.75,21.62-12.43,43.27-23.36,62.87-5.26,9.43-11.42,18.52-19.26,25.96-.89,.84-1.8,1.62-2.91,2.16-.41,.2-.91,.39-1.46,.45,.32-.03-.64,0-.54-.01-.74,.06,.41,.16-.28-.02-.27-.07-.53-.14-.79-.22,.12,.04,.54,.3,.02,0-.19-.1-1.2-.81-.71-.39-.36-.3-.67-.64-.99-.98-.59-.63,.26,.48-.2-.27-.16-.25-.33-.49-.47-.75-.26-.44-.49-.89-.7-1.36,.26,.57-.14-.38-.15-.4-.07-.2-.14-.4-.21-.6-.37-1.13-.63-2.29-.82-3.46-.17-1.02,.02,.59-.05-.43-.02-.26-.05-.53-.07-.79-.03-.52-.05-1.03-.05-1.55,0-1.39,.05-2.79,.14-4.17,1.26-20.92,11.6-41.24,27.69-54.96,1.99-1.7,3.87-3.12,6.06-4.61,1.42-.97,2.05-2.8,1.14-4.36-.82-1.41-2.93-2.12-4.36-1.14-18.43,12.57-31.5,32.6-35.59,54.54-.98,5.22-1.72,10.77-1.4,16.1,.29,4.73,1.64,10.24,5.32,13.52,1.87,1.67,4.22,2.7,6.76,2.66,3.37-.05,6.25-1.85,8.66-4.05,4.16-3.78,7.76-8.29,11.12-12.78,13.68-18.3,22.07-40.17,28.66-61.86,2.99-9.83,5.62-19.77,8-29.76,1.95-8.18,4.14-16.24,7.25-24.07,2.08-5.23,4.42-10.66,7.15-15.76,1.29-2.42,2.6-4.36,4.61-6.16,.16-.14,.32-.27,.47-.41,.72-.63-.47,.27,.31-.24,.4-.26,.79-.53,1.2-.76,.16-.09,.33-.16,.48-.25,.74-.42-.58,.17,.2-.1,.47-.16,.97-.26,1.44-.42,.72-.25-.47,.02-.02-.01,.2-.02,.39-.03,.59-.04,.39-.01,.77,.01,1.16,.05-.93-.09,.26,.11,.5,.17,.17,.04,.86,.36,.11,0,.21,.1,.43,.2,.63,.32s1.15,.78,.57,.32c.37,.29,.71,.62,1.05,.96,.97,.97,1.95,2.07,2.74,3.12,3.34,4.46,5.45,9.56,6.33,15.05,.38,2.38,.42,5.29,.19,7.88-.15,1.72,1.57,3.18,3.18,3.18,1.85,0,3.04-1.46,3.18-3.18h0Z" fill="#aaa"/><path d="M78.47,137.29c26.93-.67,53.84-2.1,80.69-4.28,7.58-.62,15.15-1.29,22.72-2.03,1.71-.17,3.18-1.34,3.18-3.18,0-1.59-1.46-3.35-3.18-3.18-26.81,2.6-53.7,4.46-80.62,5.56-7.6,.31-15.19,.56-22.79,.75-4.09,.1-4.11,6.47,0,6.37h0Z" fill="#aaa"/><path d="M151.53,145.69c-6.5-1.62-12.27,2.34-15.83,7.48-1.71,2.46-3.01,5.21-4.3,7.91-1.44,3-2.77,6.08-3.72,9.27-1.71,5.79-2.15,12.19,.74,17.67,2.52,4.79,7.91,8.24,13.35,6.14s8.61-8.29,10.83-13.47c2.52-5.87,4.07-12.02,4.63-18.39,.26-3.03,.28-6.08,.03-9.11s-.48-6.25-2.48-8.65c-2.12-2.54-5.82-2.89-8.51-1.03s-3.77,5.02-3.13,8.15c.59,2.87,2.72,5.51,5.29,6.87,3.09,1.64,6.78,1.54,9.98,.27s6.09-3.55,8.58-6.08c2.21-2.25,4.26-4.75,6.89-6.52l-4.68-3.6c-2.8,14.02-5.61,28.04-8.41,42.07l6.14,1.69c1.34-9.45,3.71-18.77,7.16-27.67,1.41-3.64,3.17-7.33,6.06-10.03,2.58-2.41,6.12-3.65,9.31-2.73,3.94,1.14,5.63-5,1.69-6.14-7.72-2.23-15.08,2.58-19.18,8.86-2.1,3.22-3.51,6.86-4.82,10.46-1.43,3.91-2.66,7.89-3.68,11.93-1.15,4.49-2.03,9.04-2.68,13.63-.24,1.7,.42,3.42,2.22,3.92,1.57,.43,3.58-.53,3.92-2.22,2.8-14.02,5.61-28.04,8.41-42.07,.25-1.27-.07-2.54-1.14-3.35-.97-.72-2.47-.97-3.54-.25-4.12,2.77-6.95,6.82-10.76,9.93-1.58,1.29-3.49,2.42-5.53,2.74-.8,.12-1.6,.06-2.29-.14-.06-.02-.56-.21-.15-.04-.2-.09-.4-.2-.58-.31-.64-.38-.39-.19-.92-.72-.15-.15-.31-.32-.45-.48,.09,.12,.25,.38-.08-.14-.11-.17-.55-1.11-.39-.67-.06-.16-.25-1.25-.21-.66-.01-.2-.01-.4,0-.61-.02,.58,.06-.22,.11-.35-.19,.57,.47-.58,.19-.28,.1-.11,.54-.37,.31-.26,.39-.18,.22-.12-.2-.19,.56,.09,.07-.02,.24,.16,.15,.16,.15,.15,0-.02l.17,.28c.22,.6,.13,.29,.08,.16,.08,.21,.14,.44,.2,.66,.11,.4,.23,1.04,.27,1.31,.14,.97,.24,2.3,.3,3.42,.14,2.53,.11,5.07-.11,7.59-.4,4.83-1.57,9.61-3.29,14.14-.83,2.18-1.84,4.28-2.97,6.32-1.03,1.85-1.98,3.45-3.55,4.77-.4,.34-1.22,.81-1.65,.94-.22,.06-.46,.13-.69,.17,.46-.07-.2,0-.32,0-.08,0-.74-.03-.36,0s-.4-.09-.48-.11c-.19-.05-.39-.11-.58-.18,.48,.18,.01,0-.07-.05-.22-.13-.44-.26-.66-.39-.44-.27,.3,.26-.11-.06-.77-.63-1.16-1.1-1.54-1.67-.28-.42-.53-.86-.77-1.32-.1-.2-.2-.41-.3-.62-.23-.52,.12,.34-.07-.19-.3-.83-.65-2.13-.72-2.72-.24-1.85-.01-4.55,.45-6.67,1.19-5.48,3.73-10.73,6.46-15.59,1.13-2,2.53-4.12,4.28-5.47s3.96-2.05,5.89-1.57c3.98,.99,5.67-5.15,1.69-6.14h0Z" fill="#aaa"/><path d="M228.51,188.95c16.31-23.25,28.93-49.61,36.08-77.13,1.91-7.37,3.31-14.97,3.46-22.6,.03-1.72,0-3.43-.11-5.14-.11-1.8-.13-3.78-.79-5.48-1.08-2.76-3.49-4.68-6.44-5.07-7.3-.99-10.22,7.44-12.61,12.8-2.92,6.52-5.36,13.25-7.23,20.14-3.67,13.51-5.29,27.64-4.73,41.63,.28,6.99,1.1,13.98,2.44,20.85,1.06,5.45,2.46,11.24,8.14,13.56,6.93,2.83,13.42-1.22,18.68-5.43,4.87-3.91,9.02-8.78,12.25-14.12s5.64-11.07,6.77-17.04c.62-3.28-.62-6.64-3.65-8.29-3.23-1.77-6.59-.92-9.31,1.32-5.17,4.25-8.32,11.35-9.7,17.77-.73,3.39-1.06,6.9-.85,10.36s.63,7.1,2.62,9.97,5.13,4.74,8.64,4.71c3.32-.03,6.43-1.59,9.02-3.56,2.76-2.11,5-4.7,7.14-7.42,2.26-2.86,4.38-5.83,6.29-8.94,1.77-2.88,3.36-5.86,4.78-8.92,.73-1.56,.44-3.43-1.14-4.36-1.38-.81-3.63-.42-4.36,1.14-2.66,5.71-5.91,11.18-9.76,16.17-1.79,2.31-3.68,4.64-5.89,6.56-.86,.74-1.82,1.41-2.87,1.98-.53,.28-.92,.46-1.29,.58-.34,.11-.69,.2-1.04,.29-.55,.15,.06,.07-.54,.08-.67,.02-.89,.03-1.2-.07-.61-.19-.67-.16-1.21-.52-.88-.58-1.55-1.51-1.89-2.36-1.02-2.53-1.05-5.55-.98-8.25,.14-5.66,1.82-11.28,4.83-16.14,.69-1.11,1.41-2.14,2.31-3.09,.49-.51,1.02-1.07,1.6-1.48,.19-.14,.39-.26,.6-.37-.44,.23,.26-.07,.39-.1-.66,.15,.18,.02,.32,.03-.36-.01-.24,.11,0,.02l.27,.08c-.32-.15-.31-.15,.02,.02,.16,.1,.33,.19,.48,.3-.54-.42,.12,.2,.18,.27-.43-.55,0,.34-.06-.06-.06-.45,.13,.46,.13,.44-.19-.77-.04,.6-.01,.26-.07,.79-.6,2.52-.91,3.61-.39,1.35-.84,2.68-1.33,3.99-.86,2.27-1.99,4.59-3.28,6.83-2.71,4.7-6,8.73-10.09,12.34-2.01,1.77-4.09,3.37-6.5,4.73s-4.82,1.56-7.15,.78c-.93-.31,.24,.15-.24-.11-.22-.12-.43-.25-.64-.37-.71-.4,.3,.38-.26-.2-.13-.13-.27-.25-.4-.39-.07-.08-.6-.78-.2-.21-.1-.15-.21-.3-.31-.46-.15-.23-.28-.47-.41-.72-.09-.18-.36-.77-.14-.25-.93-2.23-1.32-4.71-1.77-7.07-1.15-6.04-1.85-12.15-2.11-18.29-.53-12.28,.64-24.6,3.51-36.55,1.47-6.11,3.36-12.11,5.67-17.95,1.11-2.8,2.33-5.55,3.65-8.26,.71-1.45,1.44-2.89,2.29-4.27,.16-.27,.34-.52,.5-.79,.78-1.26-.2,.44,.31-.42,.36-.6-.2,.08,.09-.12,.17-.12,.97-.42,.3-.21,.21-.06,.41-.12,.62-.17,.44-.11-.72-.06,.04,.01,.18,.02,.94,.15,.17-.03,.16,.04,.33,.09,.5,.12,.71,.13-.42-.33,.18,.06,.14,.09,.29,.18,.44,.26-.61-.37,.02,.06,.14,.17,.45,.4-.09-.34,.13,.19,.33,.79-.07-.63,.12,.24-.02-.11,.18,.8,.13,.52,.1,.57,.16,1.55,.21,2.28,.12,1.71,.17,3.43,.15,5.14-.09,6.69-1.23,13.28-2.83,19.76-6.09,24.59-16.89,48.23-30.62,69.47-1.69,2.62-3.44,5.2-5.23,7.75-.99,1.41-.26,3.54,1.14,4.36,1.59,.93,3.37,.27,4.36-1.14h0Z" fill="#aaa"/><path d="M314.29,152.5c-.51-5.73-4.87-11.37-11.04-11.35s-11.26,5.87-9.62,11.87c.88,3.19,3.38,5.72,5.41,8.23,1.88,2.33,3.92,4.6,5.54,7.12,.68,1.05,1.29,2.14,1.64,3.33s.43,1.78,.27,3.05c.07-.53-.15,.59-.14,.55-.06,.22-.12,.45-.21,.67,.15-.38-.62,1-.38,.69-.21,.26-.48,.54-.74,.74,.34-.26-.11,.03-.15,.06-.59,.43,.29,0-.41,.2-.31,.09-.62,.18-.93,.22,.55-.07-.15-.02-.28-.02s-1.15-.12-.62-.02c-.22-.04-.43-.09-.64-.15-.21-.06-.42-.13-.63-.2,.25,.12,.19,.09-.15-.07-.2-.1-.39-.21-.58-.32-.19-.12-.37-.24-.55-.37,.17,.12,.17,.11,0-.03-.51-.47-.6-.56-.95-1.14-1.38-2.28-1.17-4.97-.25-7.58,.58-1.62-.65-3.48-2.22-3.92-1.76-.48-3.34,.6-3.92,2.22-2.01,5.66-.84,12.62,4.39,16.12,4.81,3.21,11.91,2.06,14.57-3.35,2.96-6.02-.06-12.11-3.82-16.92-2.01-2.58-4.11-5.1-6.16-7.65-.68-.84-1.45-1.79-1.82-2.77-.24-.64-.26-.75-.22-1.36-.04,.46,.01-.05,.04-.14,.05-.22,.12-.43,.2-.63-.09,.25-.05,.21,.12-.14,.02-.03,.31-.5,.08-.19,.23-.32,.53-.61,.83-.86,.45-.38-.55,.31,.32-.22-.01,0,.9-.49,.47-.3,.31-.14,.66-.22,.99-.3,.8-.2-.31-.04,.52-.04,.92,0-.37-.17,.52,.04,.33,.08,.66,.16,.98,.29-.49-.2,.48,.29,.46,.27,.08,.05,.78,.56,.46,.3,.51,.42,.9,.86,1.1,1.15,.37,.54,.66,1.08,.78,1.4,.08,.22,.15,.44,.21,.66,.06,.22,.11,.45,.16,.68-.02-.28-.01-.22,.02,.18,.15,1.71,1.35,3.18,3.18,3.18,1.6,0,3.34-1.46,3.18-3.18h0Z" fill="#aaa"/><path d="M336.95,153.2c-.51-5.73-4.87-11.37-11.04-11.35s-11.26,5.87-9.62,11.87c.88,3.19,3.38,5.72,5.41,8.23,1.88,2.33,3.92,4.6,5.54,7.12,.68,1.05,1.29,2.14,1.64,3.33s.43,1.78,.27,3.05c.07-.53-.15,.59-.14,.55-.06,.22-.12,.45-.21,.67,.15-.38-.62,1-.38,.69-.21,.26-.48,.54-.74,.74,.34-.26-.11,.03-.15,.06-.59,.43,.29,0-.41,.2-.31,.09-.62,.18-.93,.22,.55-.07-.15-.02-.28-.02s-1.15-.12-.62-.02c-.22-.04-.43-.09-.64-.15-.21-.06-.42-.13-.63-.2,.25,.12,.19,.09-.15-.07-.2-.1-.39-.21-.58-.32-.19-.12-.37-.24-.55-.37,.17,.12,.17,.11,0-.03-.51-.47-.6-.56-.95-1.14-1.38-2.28-1.17-4.97-.25-7.58,.58-1.62-.65-3.48-2.22-3.92-1.76-.48-3.34,.6-3.92,2.22-2.01,5.66-.84,12.62,4.39,16.12,4.81,3.21,11.91,2.06,14.57-3.35,2.96-6.02-.06-12.11-3.82-16.92-2.01-2.58-4.11-5.1-6.16-7.65-.68-.84-1.45-1.79-1.82-2.77-.24-.64-.26-.75-.22-1.36-.04,.46,.01-.05,.04-.14,.05-.22,.12-.43,.2-.63-.09,.25-.05,.21,.12-.14,.02-.03,.31-.5,.08-.19,.23-.32,.53-.61,.83-.86,.45-.38-.55,.31,.32-.22-.01,0,.9-.49,.47-.3,.31-.14,.66-.22,.99-.3,.8-.2-.31-.04,.52-.04,.92,0-.37-.17,.52,.04,.33,.08,.66,.16,.98,.29-.49-.2,.48,.29,.46,.27,.08,.05,.78,.56,.46,.3,.51,.42,.9,.86,1.1,1.15,.37,.54,.66,1.08,.78,1.4,.08,.22,.15,.44,.21,.66,.06,.22,.11,.45,.16,.68-.02-.28-.01-.22,.02,.18,.15,1.71,1.35,3.18,3.18,3.18,1.6,0,3.34-1.46,3.18-3.18h0Z" fill="#aaa"/><path d="M118.37,217.74c30.85-1.74,61.7-3.63,92.54-5.69,30.84-2.05,61.66-4.27,92.47-6.64,17.39-1.34,34.78-2.73,52.17-4.17,1.71-.14,3.18-1.36,3.18-3.18,0-1.61-1.46-3.33-3.18-3.18-30.8,2.55-61.61,4.94-92.43,7.18-30.82,2.23-61.66,4.31-92.5,6.23-17.41,1.08-34.83,2.11-52.25,3.09-1.72,.1-3.18,1.39-3.18,3.18,0,1.65,1.46,3.28,3.18,3.18h0Z" fill="#aaa"/><path d="M359.39,112.15c-4.88,18.86-9.3,37.84-13.25,56.92-.35,1.68,.49,3.44,2.22,3.92,1.58,.43,3.57-.53,3.92-2.22,3.95-19.08,8.37-38.06,13.25-56.92,1.03-3.97-5.11-5.66-6.14-1.69h0Z" fill="#aaa"/><path d="M345.02,176.53c-.33,.4-.67,.81-.94,1.26s-.47,.96-.65,1.44c-.3,.76-.41,1.6-.46,2.41s.06,1.63,.25,2.4,.53,1.59,.98,2.27c.56,.85,1.31,1.38,2.33,1.52,.42,.09,.85,.08,1.27-.06,.54-.15,1.01-.42,1.41-.82,1.32-1.08,2.31-2.84,2.6-4.52,.1-.55,.18-1.13,.19-1.69s-.08-1.14-.17-1.69c-.13-.88-.49-1.75-.94-2.52-.38-.66-1.15-1.29-1.9-1.46s-1.76-.17-2.45,.32c-.91,.65-1.63,1.34-2.23,2.3-.28,.45-.48,.96-.67,1.45-.11,.28-.2,.57-.26,.87-.36,1.91-.18,3.94,.91,5.61,.45,.69,1.09,1.24,1.9,1.46,.76,.21,1.78,.12,2.45-.32s1.28-1.09,1.46-1.9,.15-1.73-.32-2.45c-.13-.19-.24-.4-.33-.61l.32,.76c-.15-.35-.24-.71-.3-1.08l.11,.85c-.05-.4-.05-.81,0-1.21l-.11,.85c.06-.4,.16-.79,.31-1.17l-.32,.76c.15-.35,.33-.67,.56-.97l-.5,.64c.21-.27,.45-.52,.73-.73l-.64,.5s.09-.07,.14-.1l-4.36-1.14c.11,.18,.2,.37,.28,.56l-.32-.76c.17,.42,.28,.84,.34,1.29l-.11-.85c.06,.48,.05,.95-.01,1.43l.11-.85c-.07,.48-.2,.93-.38,1.38l.32-.76c-.18,.41-.4,.79-.68,1.15l.5-.64c-.22,.28-.47,.53-.75,.76l5,.64c-.16-.24-.29-.49-.41-.75l.32,.76c-.17-.41-.28-.83-.35-1.27l.11,.85c-.06-.47-.06-.95,0-1.42l-.11,.85c.06-.44,.18-.86,.35-1.28l-.32,.76c.16-.38,.37-.73,.62-1.06l-.5,.64c.04-.05,.08-.1,.12-.15,.55-.67,.93-1.36,.93-2.25,0-.78-.35-1.71-.93-2.25s-1.4-.97-2.25-.93c-.8,.04-1.72,.29-2.25,.93h0Z" fill="#aaa"/></g></g></g></svg>