<svg xmlns="http://www.w3.org/2000/svg" width="16.777" height="16.777" viewBox="0 0 16.777 16.777"><defs><style>.a{fill:#fff;fill-rule:evenodd;}</style></defs><path class="a" d="M8.389,1.491a25.721,25.721,0,0,1,3.355.093,4.323,4.323,0,0,1,1.585.28,3.273,3.273,0,0,1,1.585,1.585,4.323,4.323,0,0,1,.28,1.585c0,.839.093,1.118.093,3.355a25.721,25.721,0,0,1-.093,3.355,4.323,4.323,0,0,1-.28,1.585,3.273,3.273,0,0,1-1.585,1.585,4.323,4.323,0,0,1-1.585.28c-.839,0-1.118.093-3.355.093a25.721,25.721,0,0,1-3.355-.093,4.323,4.323,0,0,1-1.585-.28,3.273,3.273,0,0,1-1.585-1.585,4.323,4.323,0,0,1-.28-1.585c0-.839-.093-1.118-.093-3.355a25.721,25.721,0,0,1,.093-3.355,4.323,4.323,0,0,1,.28-1.585,3.348,3.348,0,0,1,.652-.932,1.576,1.576,0,0,1,.932-.652,4.323,4.323,0,0,1,1.585-.28,25.721,25.721,0,0,1,3.355-.093M8.389,0A27.54,27.54,0,0,0,4.94.093,5.754,5.754,0,0,0,2.889.466,3.649,3.649,0,0,0,1.4,1.4,3.649,3.649,0,0,0,.466,2.889,4.247,4.247,0,0,0,.093,4.94,27.54,27.54,0,0,0,0,8.389a27.54,27.54,0,0,0,.093,3.449,5.754,5.754,0,0,0,.373,2.051A3.649,3.649,0,0,0,1.4,15.379a3.649,3.649,0,0,0,1.491.932,5.754,5.754,0,0,0,2.051.373,27.541,27.541,0,0,0,3.449.093,27.541,27.541,0,0,0,3.449-.093,5.754,5.754,0,0,0,2.051-.373,3.911,3.911,0,0,0,2.423-2.423,5.754,5.754,0,0,0,.373-2.051c0-.932.093-1.212.093-3.449a27.541,27.541,0,0,0-.093-3.449,5.754,5.754,0,0,0-.373-2.051A3.649,3.649,0,0,0,15.379,1.4,3.649,3.649,0,0,0,13.888.466,5.754,5.754,0,0,0,11.837.093,27.54,27.54,0,0,0,8.389,0m0,4.1A4.219,4.219,0,0,0,4.1,8.389,4.288,4.288,0,1,0,8.389,4.1m0,7.084a2.746,2.746,0,0,1-2.8-2.8,2.746,2.746,0,0,1,2.8-2.8,2.746,2.746,0,0,1,2.8,2.8,2.746,2.746,0,0,1-2.8,2.8m4.474-8.3a1.025,1.025,0,1,0,1.025,1.025,1.034,1.034,0,0,0-1.025-1.025"/></svg>