<?xml version="1.0" encoding="UTF-8"?><svg id="Layer_2" xmlns="http://www.w3.org/2000/svg" xmlns:xlink="http://www.w3.org/1999/xlink" viewBox="0 0 1812 488.36"><defs><filter id="outer-glow-1" filterUnits="userSpaceOnUse"><feOffset dx="0" dy="0"/><feGaussianBlur result="blur" stdDeviation="20"/><feFlood flood-color="#fff" flood-opacity=".75"/><feComposite in2="blur" operator="in"/><feComposite in="SourceGraphic"/></filter><filter id="outer-glow-2" filterUnits="userSpaceOnUse"><feOffset dx="0" dy="0"/><feGaussianBlur result="blur-2" stdDeviation="20"/><feFlood flood-color="#fff" flood-opacity=".75"/><feComposite in2="blur-2" operator="in"/><feComposite in="SourceGraphic"/></filter><filter id="outer-glow-3" filterUnits="userSpaceOnUse"><feOffset dx="0" dy="0"/><feGaussianBlur result="blur-3" stdDeviation="20"/><feFlood flood-color="#fff" flood-opacity=".75"/><feComposite in2="blur-3" operator="in"/><feComposite in="SourceGraphic"/></filter><filter id="outer-glow-4" filterUnits="userSpaceOnUse"><feOffset dx="0" dy="0"/><feGaussianBlur result="blur-4" stdDeviation="20"/><feFlood flood-color="#fff" flood-opacity=".75"/><feComposite in2="blur-4" operator="in"/><feComposite in="SourceGraphic"/></filter><filter id="outer-glow-5" filterUnits="userSpaceOnUse"><feOffset dx="0" dy="0"/><feGaussianBlur result="blur-5" stdDeviation="20"/><feFlood flood-color="#fff" flood-opacity=".75"/><feComposite in2="blur-5" operator="in"/><feComposite in="SourceGraphic"/></filter><filter id="outer-glow-6" filterUnits="userSpaceOnUse"><feOffset dx="0" dy="0"/><feGaussianBlur result="blur-6" stdDeviation="20"/><feFlood flood-color="#fff" flood-opacity=".75"/><feComposite in2="blur-6" operator="in"/><feComposite in="SourceGraphic"/></filter><filter id="outer-glow-7" filterUnits="userSpaceOnUse"><feOffset dx="0" dy="0"/><feGaussianBlur result="blur-7" stdDeviation="20"/><feFlood flood-color="#fff" flood-opacity=".75"/><feComposite in2="blur-7" operator="in"/><feComposite in="SourceGraphic"/></filter></defs><g id="Layer_2-2"><path d="m6,94.15L323.73,8.24s30.02-9.05,34.33,9.22c6.14,26.02-3.01,317.02-27.29,380.75-42.41,111.33-130.93,111.07-163.69,5.81" fill="none" filter="url(#outer-glow-1)" stroke="#fff" stroke-linecap="round" stroke-miterlimit="10" stroke-width="12"/><path d="m545.11,211.17s-134.01,3.59-141.95,47.66c-6.7,37.19,115.07-13.94,153.24-30.81,7.24-3.2,15.49-3.2,22.73,0l71.91,31.69c4.73,2.08,10.04,2.44,15,.99l142.21-41.33" fill="none" filter="url(#outer-glow-2)" stroke="#fff" stroke-linecap="round" stroke-miterlimit="10" stroke-width="12"/><path d="m917.92,203.49s-123.25,9.74-89.77,44.75c39.46,35.53,165.86-35.79,299.7-58.98" fill="none" filter="url(#outer-glow-3)" stroke="#fff" stroke-linecap="round" stroke-miterlimit="10" stroke-width="12"/><path d="m1182.35,171.72s92.18-29.28,72.77-40.23c-18.02-10.16-62.6,3.16-95.58,41.91-14.17,19.74-15.2,38.46.09,53.41,10.71,10.47,21.37,14.54,41.41-9.24" fill="none" filter="url(#outer-glow-4)" stroke="#fff" stroke-linecap="round" stroke-miterlimit="10" stroke-width="12"/><path d="m1273.31,191.7s-52.11,13.21-47.83,30.68c7.43,30.36,114.12,23.57,154.63,14.33,57.36-13.09,84.74-45.9,98.19-39.38,52.27,25.37,114.21,54.88,228.23,19.54" fill="none" filter="url(#outer-glow-5)" stroke="#fff" stroke-linecap="round" stroke-miterlimit="10" stroke-width="12"/><path d="m1735.35,206.75s34.53-20.75,14.28-26.32c-19.41-5.34-52.78,16.1-20.5,37.13,32.28,21.03,76.87,0,76.87,0" fill="none" filter="url(#outer-glow-6)" stroke="#fff" stroke-linecap="round" stroke-miterlimit="10" stroke-width="12"/><path d="m1461.89,140.46s22.29-6.66,38.95-13.32" fill="none" filter="url(#outer-glow-7)" stroke="#fff" stroke-linecap="round" stroke-miterlimit="10" stroke-width="12"/></g></svg>