<?xml version="1.0" encoding="UTF-8"?><svg id="Layer_2" xmlns="http://www.w3.org/2000/svg" xmlns:xlink="http://www.w3.org/1999/xlink" viewBox="0 0 753.69 117.79"><defs><clipPath id="clippath"><rect width="753.69" height="117.79" fill="none" stroke-width="0"/></clipPath><clipPath id="clippath-1"><rect width="753.69" height="117.79" fill="none" stroke-width="0"/></clipPath></defs><g id="Layer_1-2"><g id="Vector_Smart_Object"><g clip-path="url(#clippath)"><g clip-path="url(#clippath-1)"><path d="m146.2,70.47h-10.31c-.48,1.83-.88,3.69-1.46,5.49-1.84,5.72-4.62,10.94-9.11,14.99-7.33,6.61-15.92,8.01-25.02,4.68-7.23-2.64-10.62-8.6-10.87-16.05-.41-12.11,3.95-22.47,12.65-30.9,4.11-3.98,9.08-6.42,14.85-6.9,1.63-.14,3.31-.08,4.93.18,2.86.46,4.47,2.64,4.39,5.57-.08,2.82-1.74,4.85-4.74,4.83-6.35-.04-10.55,3.48-14.25,7.96-3.14,3.8-5.4,8.08-6.4,12.97-.46,2.26-.42,4.49.21,6.71,1.53,5.39,5.74,7.79,11.06,6.07,6.69-2.17,10.79-6.82,12.15-13.71.38-1.93.31-3.97.29-5.96,0-1.2-.28-2.36-1.25-3.31-.97-.96-.85-2.28-.43-3.45.89-2.49,4.19-5.47,7.99-3.88,1.84.77,3.7,1.52,5.57,2.21,6.56,2.42,12.28,1.16,17.7-3.35,3-2.49,5.72-5.29,8.77-7.72,4.49-3.57,9.31-6.4,15.09-7.28,3-.45,5.93-.23,8.64,1.18,4.91,2.54,6.95,7.44,5.62,13.3-1.08,4.76-3.95,8.28-7.88,10.95-2.35,1.6-5.24,1.04-7.02-1.14-1.89-2.32-1.77-5.15.32-7.3.66-.68,1.45-1.28,1.99-2.05,1.17-1.68.69-3.2-1.29-3.49-1.38-.2-3.03-.07-4.26.52-2.08,1.01-4.07,2.35-5.85,3.84-3.56,2.96-6.64,6.44-9.11,10.35-3.07,4.85-4.13,10.26-3.35,15.98.38,2.77,2,4.55,4.51,5.6,3.12,1.3,6.3,1.11,9.47.27,7.4-1.95,13.64-6.03,19.34-10.96.77-.67,1.17-1.89,1.5-2.92,3.04-9.49,8.15-17.65,15.56-24.32,6.32-5.69,13.86-8.9,22.14-10.4,2.74-.5,5.56-.48,8.14.96,2.41,1.34,3.76,3.32,3.62,6.14-.13,2.48-1.81,4.22-4.27,4.46-.69.07-1.4.05-2.08-.02-4.85-.5-9.31.74-13.57,2.94-5.58,2.88-10.25,6.85-14.13,11.76-3.33,4.22-4.98,9.12-5.55,14.4-.09.84.03,1.75.25,2.57.44,1.66,1.5,2.37,3.13,1.82,1.79-.6,3.62-1.34,5.16-2.4,5.38-3.7,9.36-8.78,13.29-13.89.57-.74.78-1.74,1.21-2.59,1.05-2.1,1.97-4.28,3.23-6.24,1.63-2.52,4.8-3.05,7.38-1.52,2.57,1.53,3.38,4.16,1.96,6.99-3.03,6.01-5.3,12.28-6.79,18.83-.08.33-.11.67-.23,1.42,1.16-.23,2.16-.33,3.09-.63,3.76-1.21,7.22-3.05,10.39-5.37.84-.62,1.44-1.7,1.9-2.68,4.71-9.98,9.36-19.99,14.04-29.99.48-1.02,1.03-2.02,1.65-2.96,1.72-2.62,4.65-3.39,7.28-1.99,2.67,1.43,3.61,4.21,2.21,7.15-1.79,3.77-3.72,7.47-5.58,11.2-.23.46-.41.94-.34,1.7.5-.46,1.03-.9,1.51-1.4,3.58-3.68,6.98-7.54,10.76-11,2.93-2.69,6.23-5,9.51-7.25,2.36-1.62,5.11-2.09,7.99-1.62,3.58.59,5.46,2.75,5.55,6.42.09,3.66-1.55,6.68-3.38,9.69-2.08,3.41-4.26,6.8-5.87,10.43-1.57,3.55-2.54,7.37-3.64,11.11-.33,1.14-.33,2.42-.28,3.62.13,2.94,1.79,4,4.58,3.01.49-.17.97-.41,1.4-.69,1.17-.75,2.31-1.54,3.46-2.32,2.61-1.76,4.05-4.02,4.81-7.27,2.79-11.96,9.37-21.61,19.31-28.83,5.24-3.81,11.17-5.63,17.72-4.54,1.87.31,3.67.98,5.81,1.57.35-.73.76-1.55,1.14-2.38,3.31-7.18,6.6-14.37,9.92-21.55.4-.86.87-1.71,1.42-2.49,1.69-2.38,4.39-3,6.91-1.66,2.46,1.31,3.52,3.99,2.54,6.67-.39,1.06-.94,2.05-1.43,3.07-9,18.47-16.61,37.49-22.43,57.22-.34,1.15-.61,2.32-.95,3.61,1.95.48,3.58-.02,4.93-.87,3.01-1.9,5.94-3.94,8.75-6.12.71-.54.96-1.78,1.24-2.75,3.13-10.53,8.75-19.47,17.22-26.51,6.09-5.07,13.23-7.99,20.99-9.24,2.16-.35,4.52-.04,6.68.46,2.3.53,3.92,2.17,4.65,4.52,1.1,3.51-1.08,6.53-4.77,6.62-2.6.06-5.26-.16-7.78.32-6.42,1.24-11.68,4.77-16.47,9.08-5.2,4.67-8.87,10.23-10.05,17.23-.23,1.36-.35,2.77-.26,4.15.16,2.31,1.57,3.35,3.73,2.5,2.15-.85,4.3-1.92,6.14-3.3,4.62-3.48,8.22-8,11.69-12.58,1.02-1.35,1.47-3.13,2.24-4.69.69-1.4,1.35-2.84,2.2-4.14,1.76-2.71,4.81-3.4,7.52-1.83,2.62,1.51,3.42,4.29,1.93,7.21-2.82,5.53-4.86,11.33-6.41,17.32-.19.75-.31,1.51-.56,2.72,1.35-.28,2.43-.4,3.43-.72,5.03-1.64,9.39-4.48,13.54-7.69.76-.59,1.46-1.25,2.26-1.77,2.41-1.56,4.95-.74,5.87,1.97.94,2.77.41,5.35-1.54,7.54-.92,1.03-1.99,1.95-3.07,2.82-4.7,3.79-9.8,6.94-15.56,8.86-1.88.63-3.86,1.11-5.83,1.31-4.3.44-8.55-1.35-9.63-6.72-.08-.41-.27-.79-.49-1.43-1.01.66-1.86,1.22-2.71,1.78-4.57,2.98-9.4,5.32-14.95,5.63-1.71.1-3.48-.09-5.17-.44-2.2-.46-2.93-1.27-5.63-5.11-.76.48-1.54.98-2.32,1.46-3.94,2.44-7.99,4.68-12.7,5.13-1.61.16-3.33.05-4.89-.34-3.86-.96-5.27-2.94-5.36-6.96-.02-.69,0-1.39,0-2.41-.67.43-1.12.71-1.56,1.01-2.52,1.69-4.96,3.52-7.59,5.02-2.93,1.67-6.18,2.28-9.57,1.99-3.98-.34-7.1-2.14-9.38-5.73-1.14.73-2.21,1.42-3.28,2.1-4.49,2.82-9.26,4.67-14.67,4.79-6.66.15-9.92-3.39-9.51-10.35.35-5.89,2.15-11.43,4.21-16.88,1.37-3.64,3.02-7.17,4.68-11.07-1.39.53-2.36,1.37-3.24,2.2-4.44,4.16-8.98,8.24-13.19,12.62-6.32,6.6-12.31,13.49-17.34,21.16-1.79,2.73-5.39,3.2-8,1.12-.6-.48-1.05-1.14-1.43-1.56-3.33.98-6.38,1.94-9.47,2.75-1.07.28-2.25.32-3.36.25-3.98-.25-6.39-2.22-7.57-6.04-.2-.65-.41-1.29-.67-2.13-1.19.77-2.27,1.48-3.36,2.16-4.31,2.72-8.85,4.88-14.03,5.2-1.72.1-3.48-.02-5.18-.32-2.16-.38-3.76-1.74-4.83-3.66-.38-.67-.71-1.36-1.15-2.21-.84.48-1.57.89-2.3,1.32-5.65,3.35-11.55,6.06-18.1,7.07-4.17.65-8.32.54-12.38-.78-7.54-2.45-11.81-7.97-11.96-15.89-.05-2.67.47-5.35.79-8.02.12-1.02.4-2.02.65-3.23m164.78,6.53c-.08.92-.1,1.7-.23,2.47-.2,1.18.33,2.01,1.14,2.75,1.38,1.26,3.02,1.45,4.61.72,1.88-.87,3.74-1.86,5.41-3.08,3.74-2.74,6.8-6.2,9.74-9.77,1.51-1.84,2.64-3.81,3.3-6.13.68-2.42,1.46-4.85,2.53-7.11,1.43-3.03-.07-4-2.18-5.09-.81-.42-1.83-.57-2.76-.62-4.02-.19-7.2,1.71-10,4.34-4.24,3.97-7.53,8.65-9.99,13.9-1.14,2.44-2.35,4.91-1.56,7.62" fill="#fff" stroke-width="0"/><path d="m592.3,84.71c1.23-.21,2.08-.27,2.88-.52,4.11-1.28,7.84-3.33,11.29-5.86.83-.61,1.37-1.76,1.79-2.77,4.42-10.58,8.8-21.19,13.18-31.79.23-.56.45-1.13.71-1.68,1.23-2.55,2.99-3.56,5.63-3.24,2.45.3,4.18,1.91,4.78,4.48.08.33.11.67.21,1.28.96-.43,1.8-.79,2.62-1.18,3.28-1.54,6.74-2.35,10.35-2.33,7.86.05,12.84,4.5,13.43,12.34.82,10.75-2.5,20.22-9.51,28.39-.49.57-1.02,1.11-1.43,1.81,3.01-.69,5.62-2.15,8.03-3.99,2.45-1.87,4.31-4.09,5.49-7.08,3.86-9.78,7.99-19.45,12.02-29.17.17-.4.32-.81.51-1.2,1.23-2.59,2.95-3.63,5.57-3.38,2.54.25,4.32,1.91,4.93,4.63.07.32.13.65.24,1.15.97-.44,1.81-.85,2.67-1.22,4.31-1.87,8.74-2.79,13.47-1.95,4.62.83,7.69,3.39,9.27,7.79,1.49,4.14,1.42,8.4.71,12.63-1.39,8.25-4.68,15.61-11.2,21.96,1.04-.24,1.56-.3,2.03-.48,3.12-1.21,5.85-3.01,8.35-5.23,1.22-1.08,2.67-1.9,3.88-2.98.59-.53,1.01-1.36,1.26-2.13,2.52-7.88,5.53-15.56,9.28-22.93.51-1.01,1-2.04,1.63-2.97,1.7-2.48,4.45-3.07,7.12-1.6,2.6,1.43,3.59,4.17,2.35,6.88-1.05,2.29-2.39,4.45-3.35,6.78-2.3,5.62-4.53,11.28-6.61,16.99-.71,1.94-1.02,4.05-1.26,6.11-.3,2.63.76,3.62,3.33,3.07,1.76-.38,3.58-.95,5.12-1.85,4.04-2.37,7.95-4.96,11.91-7.48.8-.51,1.54-1.16,2.39-1.56,2.79-1.32,5.22-.16,6.06,2.83.64,2.28-.05,4.32-1.32,6.16-.58.84-1.35,1.62-2.17,2.23-6.27,4.58-12.9,8.55-20.28,11.12-3.38,1.18-6.84,2.03-10.48,1.47-4-.62-5.72-2.29-6.51-6.32-.1-.5-.27-.98-.46-1.64-.67.27-1.23.44-1.73.71-7.47,3.99-15.47,5.05-23.78,4.31-3.46-.31-6.93-.62-10.18-2.03-2.7-1.17-4.09-3.72-3.42-6.57.5-2.14,1.88-3.5,4.05-3.94,1.45-.29,2.94-.37,4.38-.68,9.43-2.06,17.59-10.72,19.05-20.31.26-1.69.2-3.49-.06-5.19-.4-2.53-1.6-3.51-4.15-3.29-1.87.16-3.83.53-5.53,1.3-7.68,3.44-13.44,9.02-16.75,16.75-5.71,13.34-11.16,26.8-16.72,40.21-.27.64-.53,1.28-.81,1.92-1.53,3.5-4.14,4.75-7.26,3.49-3.18-1.3-4.22-4.16-2.75-7.79,1.43-3.54,2.93-7.06,4.39-10.6.63-1.51,1.23-3.04,2-4.95-1.07.19-1.78.27-2.47.45-7.65,2.07-15.33,1.72-23.01.25-1.18-.22-2.33-.71-3.43-1.2-2.37-1.05-3.55-3.33-3.19-5.98.32-2.38,1.86-3.94,4.46-4.43,1.28-.24,2.6-.31,3.87-.58,9.48-1.96,17.87-10.81,19.23-20.43.26-1.85.1-3.83-.25-5.68-.39-2.04-1.49-2.91-3.52-2.71-2.13.21-4.36.56-6.28,1.44-7.57,3.45-13.21,9.01-16.48,16.67-5.69,13.35-11.16,26.8-16.72,40.21-.37.88-.7,1.78-1.13,2.63-1.43,2.86-4.11,3.87-6.98,2.67-2.82-1.19-4.12-3.91-2.99-6.86,1.58-4.14,3.34-8.21,5.03-12.31.32-.79.63-1.59,1.07-2.73-.86.18-1.4.27-1.94.42-1.51.39-3,.9-4.53,1.2-7.03,1.35-10.33-.71-12.22-7.75-.69.41-1.34.76-1.95,1.17-3.77,2.55-7.72,4.79-12.23,5.63-2.27.42-4.65.45-6.97.4-3.16-.07-5.36-1.78-6.7-4.62-.22-.46-.48-.9-.78-1.46-1.67.97-3.22,1.94-4.82,2.79-6.91,3.7-14.09,6.39-22.13,5.92-3.72-.22-7.2-1.24-10.36-3.2-4.94-3.05-7.08-7.73-7.39-13.34-.33-5.95,1.04-11.6,3.64-16.9,4.02-8.19,9.72-15.01,17.17-20.32,3.73-2.65,7.78-4.61,12.36-5.28,3.94-.57,7.64-.05,10.82,2.58,3.72,3.08,4.42,7.13,3.54,11.58-.97,4.88-3.86,8.5-7.89,11.23-2.39,1.62-5.19,1.11-7.02-1.07-1.9-2.27-1.8-5.16.26-7.31.72-.75,1.56-1.42,2.12-2.27,1.05-1.58.51-2.78-1.33-3.36-1.51-.48-2.99-.19-4.29.52-1.82.99-3.64,2.06-5.25,3.35-3.88,3.14-7.23,6.86-9.86,11.06-2.99,4.77-4.05,10.11-3.26,15.75.47,3.36,2.62,5.16,5.68,6.09,2.57.78,5.18.64,7.74,0,7.69-1.93,14.17-6.08,20.05-11.25.71-.62,1.07-1.75,1.37-2.72,3.1-9.87,8.46-18.27,16.29-25.03,6.22-5.37,13.57-8.4,21.59-9.79,2.66-.46,5.4-.43,7.89.95,2.39,1.32,3.82,3.26,3.69,6.1-.12,2.58-1.86,4.35-4.46,4.55-.43.03-.88.06-1.3,0-6.59-.81-12.33,1.47-17.71,4.95-3.45,2.23-6.47,4.97-9.22,8.03-3.98,4.43-6.04,9.69-6.91,15.49-.03.17-.04.34-.05.52-.3,4.11,1.62,5.61,5.34,3.81,2.39-1.16,4.75-2.66,6.64-4.5,3.34-3.28,6.37-6.89,9.41-10.46.82-.96,1.2-2.29,1.79-3.45,1.03-2.01,1.88-4.14,3.12-6,2.17-3.25,6.83-3.19,9.09-.05,1.4,1.94,1.15,3.86.09,5.88-2.69,5.1-4.53,10.53-6.07,16.07-.32,1.14-.55,2.3-.91,3.79" fill="#fff" stroke-width="0"/><path d="m59.16,85.57c9.41,9.6,19.86,17.1,33.15,19.92,3.95.84,7.94.9,11.94.72,6.45-.28,12.83-1.16,18.92-3.37,3.16-1.15,6.18-2.75,9.16-4.33,2-1.06,3.9-1.39,5.94-.3,2.91,1.54,3.72,5.02,1.54,7.48-1.13,1.28-2.58,2.34-4.03,3.27-4.66,3-9.82,4.8-15.19,6.02-8.09,1.84-16.24,2.85-24.57,2.07-8.43-.79-16.33-3.26-23.82-7.11-7.01-3.61-13.27-8.27-18.91-13.77-.61-.6-1.26-1.16-2.07-1.91-1.18,1.17-2.27,2.26-3.38,3.33-4.95,4.79-10.5,8.6-17.31,10.19-5.75,1.35-11.53,1.69-17.24-.25-7.18-2.44-11.83-7.25-13.03-14.85-1.17-7.43,1.41-13.56,7.4-18.09,6.41-4.84,13.75-6.47,21.66-5.69,7.84.77,14.84,3.55,20.84,9.23.69-.85,1.42-1.57,1.94-2.42,4.06-6.68,8.09-13.38,12.12-20.08,6.5-10.79,12.93-21.63,19.55-32.36,2.83-4.59,6.25-8.79,10.12-12.57C100.03,4.72,107.28,1.01,115.79.09c8.79-.95,15.87,5.67,14.15,15-1.78,9.64-7.22,16.6-15.8,21.11-1.65.87-3.59,1.34-5.45,1.67-2.72.47-4.56-.7-5.34-3.02-.94-2.79-.28-4.8,2.32-6.16,2.61-1.36,5.48-2.3,7.51-4.57,1.44-1.61,2.95-3.21,4.12-5.02.72-1.11,1.11-2.57,1.22-3.91.19-2.33-1.22-3.57-3.56-3.32-3.09.32-5.83,1.66-8.44,3.26-3.89,2.4-7.13,5.54-10.08,9-6.53,7.66-11.53,16.32-16.37,25.07-4.88,8.82-9.65,17.71-14.6,26.49-1.87,3.32-4.1,6.43-6.32,9.87m-16.56,1.77c-4.87-4.29-9.96-7.29-16.25-7.62-4.7-.24-8.99,1.06-12.48,4.31-4.27,3.98-2.99,10.11,2.46,12.19.65.25,1.32.45,2,.58,9.9,1.85,17.63-1.89,24.27-9.46" fill="#fff" stroke-width="0"/><path d="m458.96,106.5c14.82-.13,24.63-7.96,27.43-20.71.95-4.32.84-8.7-.62-12.88-1.46-4.17-3.25-8.23-5.02-12.29-1.35-3.11-2.91-6.12-4.32-9.2-8.21-17.91.53-33.11,10.14-41.37,5.98-5.13,12.87-8.21,20.9-8.23,12.57-.03,20.12,9.34,17.49,21.7-1.96,9.24-10.37,17.15-19.73,18.52-.93.14-1.92.2-2.85.05-2.86-.45-4.44-2.43-4.34-5.27.1-2.69,1.73-4.4,4.58-4.75,6.12-.76,9.78-4.44,11.82-10,.65-1.78.5-3.58-.02-5.38-.64-2.2-2.07-3.54-4.26-4.16-2.79-.79-5.5-.42-8.21.38-8.84,2.6-19.62,13.78-17.61,27.1.4,2.63,1.23,5.27,2.29,7.71,1.87,4.29,4.18,8.4,6.12,12.67,1.51,3.31,2.92,6.69,4.07,10.14,2.03,6.09,2.12,12.31.45,18.51-2.56,9.54-7.2,17.71-15.9,23-7.61,4.62-15.93,6.24-24.76,5.64-4.76-.32-9.23-1.58-13.4-3.89-10.09-5.59-15.09-16.33-12.58-27.6,2.63-11.83,9.65-19.7,21.66-22.43,5.32-1.21,10.39-.11,14.61,3.67,2.68,2.41,3.05,5.28,1.06,7.82-2.09,2.67-5.21,3.24-8.06,1.29-1.62-1.11-3.36-1.4-5.2-1.22-6.42.61-11.71,5.06-13.36,11.14-1.7,6.3.55,12.22,6.16,16.17,3.9,2.75,8.28,3.92,11.43,3.88" fill="#fff" stroke-width="0"/><path d="m748.86,25.85c-.63,1.2-1.12,2.49-1.92,3.56-1.45,1.94-3.07,3.75-4.64,5.6-2.01,2.37-5.01,2.88-7.43,1.28-2.42-1.59-3.11-4.58-1.57-7.35,1.71-3.05,3.83-5.79,6.68-7.86,1.84-1.34,3.88-1.53,5.87-.4,1.89,1.07,2.75,2.81,3,5.15" fill="#fff" stroke-width="0"/></g></g></g></g></svg>