<?xml version="1.0" encoding="UTF-8"?><svg xmlns="http://www.w3.org/2000/svg" viewBox="0 0 1011.59 1034.65"><g id="Layer_3"><rect width="1011.59" height="1034.65" fill="#365880" stroke-width="0"/></g><g id="Layer_2"><path d="m25.79,591.86v-115.35c0-6.35,2.72-9.07,9.07-9.07h17.23c6.35,0,9.07,2.72,9.07,9.07v.18c5.08-6.53,15.23-11.43,27.57-11.43,26.66,0,42.62,19.04,42.62,50.78,0,35.18-17.59,55.5-48.24,55.5-6.17,0-12.15-1.63-17.05-3.63v23.94c0,6.35-2.72,9.07-9.07,9.07h-22.13c-6.35,0-9.07-2.72-9.07-9.07Zm64.75-74.9c0-12.51-3.63-18.5-11.79-18.5-4.53,0-9.61,1.63-12.7,4.17v33.19c2.9,1.45,5.99,2.54,9.98,2.54,9.79,0,14.51-7.07,14.51-21.4Z" fill="#fff" stroke-width="0"/><path d="m140.24,454.21c0-13.06,8.71-20.49,24.3-20.49s24.3,7.44,24.3,20.49-8.71,20.49-24.3,20.49-24.3-7.44-24.3-20.49Zm4.17,106.1v-71.46c0-5.08,3.27-7.44,8.89-6.17,3.99.72,7.44,1.09,11.24,1.09s7.26-.36,11.25-1.09c5.62-1.27,8.89,1.09,8.89,6.17v71.46c0,6.35-2.72,9.07-9.07,9.07h-22.13c-6.35,0-9.07-2.72-9.07-9.07Z" fill="#fff" stroke-width="0"/><path d="m197.73,518.59c0-35.37,17.77-53.32,53.5-53.32,10.16,0,17.41,1.63,20.86,2.9,5.44,2,7.98,5.8,6.71,12.15l-2.72,14.33c-1.45,7.8-5.44,7.8-11.43,6.17-5.08-1.45-7.25-1.81-11.24-1.81-10.34,0-14.33,5.62-14.33,19.04,0,14.15,4.35,19.77,14.69,19.77,3.99,0,7.25-.36,15.42-2.18,5.8-1.27,8.89.73,8.89,7.62v13.78c0,6.53-2.36,9.79-8.89,11.97-4.72,1.63-11.06,2.54-19.41,2.54-34.64,0-52.05-18.14-52.05-52.96Z" fill="#fff" stroke-width="0"/><path d="m290.6,560.31v-115.35c0-6.35,2.72-9.07,9.07-9.07h22.13c6.35,0,9.07,2.72,9.07,9.07v54.41c6.17-5.8,11.43-13.6,16.14-23.58,3.26-6.89,5.62-8.34,12.51-8.34h23.58c5.26,0,7.62,2.36,7.62,7.62,0,7.25-9.43,22.85-22.49,38.09,12.51,15.6,24.3,38.63,24.3,48.61,0,5.08-2.36,7.62-7.62,7.62h-22.85c-7.07,0-10.16-1.99-12.51-8.34-2.54-6.89-6.71-15.42-12.51-24.85-2.18,1.81-4.35,3.45-6.17,4.72v19.41c0,6.35-2.72,9.07-9.07,9.07h-22.13c-6.35,0-9.07-2.72-9.07-9.07Z" fill="#fff" stroke-width="0"/><path d="m397.06,542.71c0-21.04,17.77-31.38,59.49-31.56v-1.81c0-7.07-5.26-10.88-15.42-10.88-8.71,0-15.6,1.63-25.03,5.26-5.8,2.18-8.71.36-10.34-6.35l-3.08-12.33c-1.45-6.17.18-9.79,6.53-12.51,10.52-4.35,26.3-7.25,40.08-7.25,31.19,0,47.52,15.23,47.52,44.07v50.96c0,6.35-2.72,9.07-9.07,9.07h-17.41c-6.35,0-9.07-2.9-9.07-9.61v-.91c-7.98,8.52-18.68,12.7-32.83,12.7-19.22,0-31.38-11.43-31.38-28.84Zm59.49-.54v-10.34c-17.95.36-22.85,3.08-22.85,8.71,0,3.81,2.36,6.17,7.98,6.17,3.99,0,11.43-1.09,14.87-4.53Z" fill="#fff" stroke-width="0"/><path d="m517.86,526.57v-25.94h-5.62c-6.35,0-9.07-2.72-9.07-9.07v-15.05c0-6.35,2.72-9.07,9.07-9.07h5.62v-11.25c0-7.62,1.81-10.7,7.62-11.97l13.6-2.9c4.53-1.09,8.34-1.81,11.06-1.81,6.17,0,7.98,2.9,7.98,9.07v18.86h19.22c6.35,0,9.07,2.72,9.07,9.07v15.05c0,6.35-2.72,9.07-9.07,9.07h-19.22v25.39c0,8.16,2.72,11.43,9.79,11.43,4.17,0,9.43-1.27,12.15-1.27,4.53,0,6.35,2.36,6.35,7.8v13.06c0,6.53-2.36,9.79-8.89,11.97-4.72,1.45-11.61,2.54-16.5,2.54-30.65,0-43.17-12.7-43.17-44.98Z" fill="#fff" stroke-width="0"/><path d="m591.86,542.71c0-21.04,17.77-31.38,59.49-31.56v-1.81c0-7.07-5.26-10.88-15.42-10.88-8.71,0-15.6,1.63-25.03,5.26-5.8,2.18-8.71.36-10.34-6.35l-3.08-12.33c-1.45-6.17.18-9.79,6.53-12.51,10.52-4.35,26.3-7.25,40.08-7.25,31.19,0,47.52,15.23,47.52,44.07v50.96c0,6.35-2.72,9.07-9.07,9.07h-17.41c-6.35,0-9.07-2.9-9.07-9.61v-.91c-7.98,8.52-18.68,12.7-32.83,12.7-19.22,0-31.38-11.43-31.38-28.84Zm59.49-.54v-10.34c-17.95.36-22.85,3.08-22.85,8.71,0,3.81,2.36,6.17,7.98,6.17,3.99,0,11.43-1.09,14.87-4.53Z" fill="#fff" stroke-width="0"/><path d="m736.23,559.76c0,7.44-2.18,9.61-7.26,9.61h-12.88c-6.35,0-9.07-2.72-9.07-9.07v-115.35c0-6.35,2.72-9.07,9.07-9.07h22.13c6.35,0,9.07,2.72,9.07,9.07v27.02c5.62-3.99,13.6-6.71,22.67-6.71,26.66,0,42.62,19.04,42.62,50.78,0,35.18-17.59,55.5-48.24,55.5-9.61,0-20.68-3.63-28.11-11.79Zm35.55-42.8c0-12.51-3.63-18.5-11.79-18.5-4.53,0-9.61,1.63-12.7,4.53v32.46c2.9,1.81,6.17,2.9,9.98,2.9,9.79,0,14.51-7.07,14.51-21.4Z" fill="#fff" stroke-width="0"/><path d="m825.65,536v-91.05c0-6.35,2.72-9.07,9.07-9.07h22.13c6.35,0,9.07,2.72,9.07,9.07v87.06c0,4.35,1.63,6.17,5.08,6.17h.91c4.9,0,6.89,2.18,6.89,7.8v13.6c0,6.17-2.54,8.89-8.89,10.52-3.99,1.09-8.16,1.45-11.97,1.45-23.94,0-32.28-9.07-32.28-35.55Z" fill="#fff" stroke-width="0"/><path d="m884.95,518.41c0-34.46,19.04-53.14,54.05-53.14,28.84,0,46.79,13.06,46.79,33.92,0,17.41-11.24,26.3-35.37,27.75l-24.3,1.63c1.45,7.62,6.89,10.7,18.86,10.7,8.16,0,18.14-1.81,25.21-4.72,7.44-3.08,12.7-1.81,12.7,4.72v13.42c0,6.35-3.26,10.7-10.16,13.24-9.25,3.45-21.95,5.62-33.37,5.62-37.18,0-54.41-16.69-54.41-53.14Zm50.6-10.88c9.61-.72,13.6-2.72,13.6-7.44,0-4.35-3.81-6.89-10.7-6.89-7.25,0-11.43,5.08-12.51,15.05l9.61-.73Z" fill="#fff" stroke-width="0"/></g></svg>