<?xml version="1.0" encoding="UTF-8"?><svg id="Layer_2" xmlns="http://www.w3.org/2000/svg" xmlns:xlink="http://www.w3.org/1999/xlink" viewBox="0 0 610.85 225.7"><defs><clipPath id="clippath"><rect width="610.85" height="225.7" fill="none" stroke-width="0"/></clipPath><clipPath id="clippath-1"><rect width="610.85" height="225.7" fill="none" stroke-width="0"/></clipPath></defs><g id="Layer_1-2"><g id="Vector_Smart_Object"><g clip-path="url(#clippath)"><g clip-path="url(#clippath-1)"><path d="m31.46,74.29v88.36H0V.1C7.01.1,13.89-.03,20.76.23c1.04.04,2.26,1.7,2.98,2.87,13.49,22.07,26.9,44.17,40.34,66.27,5.55,9.13,11.12,18.24,16.97,27.82.92-1.44,1.66-2.54,2.35-3.68,18.29-30.04,36.61-60.06,54.8-90.16,1.51-2.49,3.09-3.46,5.99-3.34,5.85.24,11.72.07,17.87.07v162.67h-31.08v-88.86c-.23-.06-.46-.13-.69-.19-3.4,5.52-6.8,11.04-10.19,16.57-8.81,14.41-17.66,28.81-26.37,43.29-1.17,1.95-2.43,2.64-4.66,2.58-5.29-.16-10.59-.19-15.87.01-2.43.09-3.67-.84-4.87-2.82-11.32-18.68-22.73-37.3-34.12-55.93-.66-1.08-1.33-2.14-1.99-3.21-.25.04-.5.07-.75.11" fill="#fff" stroke-width="0"/><path d="m434.85,154.18c-6.96,5.31-13.87,8.79-21.72,10.12-29.2,4.95-56.35-12.48-64.13-41.13-7.03-25.88,2.7-53.1,23.87-66.76,18.32-11.83,41.39-11.58,59.45.63.64.43,1.29.84,2.44,1.59v-8.39h29.06v121h-28.98v-17.06Zm-.95-47.54c0-4.83.08-9.66-.06-14.48-.04-1.27-.44-2.75-1.19-3.76-7.48-10.06-22.95-15.03-34.96-11.36-17.61,5.38-26.03,27.19-17.07,44.42,10.85,20.89,39.41,19.98,52.28,2.81.68-.9.92-2.32.95-3.5.1-4.71.04-9.42.04-14.14" fill="#fff" stroke-width="0"/><path d="m285.04,58.16v-7.88h28.93v112.44h-28.97v-7.83c-4.92,2.55-9.36,5.49-14.22,7.26-27.59,10.08-59.35-5.23-69.96-33.48-10.47-27.88-.27-59.54,24.34-73.51,19.16-10.88,38.42-10.08,57.09,1.79.68.43,1.34.9,2.01,1.33.07.04.21-.03.78-.13m-1.2,48.39c0-4.83.08-9.67-.05-14.5-.04-1.28-.39-2.85-1.18-3.77-8.49-9.77-19.25-14.23-32.03-11.86-16.45,3.04-26.57,20-22.65,37.23,2.62,11.48,9.43,19.41,21,22.37,12.39,3.17,23.11-.36,32.15-9.32,2.1-2.08,3-4.38,2.83-7.39-.23-4.24-.06-8.51-.06-12.77" fill="#fff" stroke-width="0"/><path d="m580.73,50.17h30.13v112.56h-28.94v-8.1c-4.1,2.38-7.65,4.92-11.56,6.64-28.45,12.57-61.65-5.43-67.2-36.44-.85-4.73-1.26-9.58-1.3-14.39-.15-18.74-.06-37.49-.06-56.23v-3.97h30.26c0,1.38,0,2.71,0,4.04.04,19.89-.1,39.79.18,59.68.18,12.21,5.71,19.59,15.78,22.32,12.53,3.4,25.1-3.62,31.92-12.31.79-1.01.75-2.82.76-4.27.04-21.73.03-43.47.03-65.2v-4.34Z" fill="#fff" stroke-width="0"/><path d="m373.96,211.83c13.6-5.55,26.86-10.96,40.8-16.65,0,3.72-.04,6.97.01,10.22.09,5.28.35,10.57.28,15.85-.01,1.01-1.02,2.61-1.91,2.91-13.08,4.41-30.31-.95-39.18-12.33" fill="#fff" stroke-width="0"/><path d="m463.62,200.97c-9.63,10.08-26.35,13.59-38.77,8.23-.73-.31-1.69-1.41-1.62-2.05.86-8.42,1.88-16.83,2.93-25.82,12.72,6.67,25.05,13.13,37.47,19.64" fill="#fff" stroke-width="0"/><path d="m348.52,214.09c-.91-15.37,4.63-26.98,17.13-35.07.85-.55,2.85-.61,3.47-.02,5.97,5.71,11.76,11.61,18.06,17.9-12.96,5.76-25.55,11.36-38.65,17.18" fill="#fff" stroke-width="0"/></g></g></g></g></svg>