<?xml version="1.0" encoding="UTF-8"?><svg id="Layer_1" xmlns="http://www.w3.org/2000/svg" viewBox="0 0 798.37 273.49"><path d="m244.64,0c6.54,1.11,13.21,1.72,19.59,3.43,27.95,7.47,45.59,29.92,45.92,60.23.52,48.95.65,97.92-.03,146.87-.51,36.92-26.12,61.72-64.12,62.89-10.84.33-22.12-.43-32.57-3.11-27.75-7.13-44.81-29.68-45.18-60.16-.59-48.62-.65-97.25,0-145.87.49-36.37,24.03-60.25,60.52-63.39,1.64-.14,3.25-.58,4.88-.88,3.66,0,7.32,0,10.98,0Zm16.13,136.95c0-24.39.1-48.78-.09-73.18-.03-4.4-.68-8.98-2.05-13.16-3.09-9.41-9.8-13.86-19.53-13.85-9.6.01-16.4,4.64-19.4,14.06-1.34,4.19-2.01,8.77-2.02,13.18-.14,48.78-.14,97.57,0,146.35.01,4.24.67,8.65,1.95,12.69,3.09,9.73,9.81,14.36,19.71,14.33,9.84-.03,16.53-4.75,19.53-14.55,1.24-4.05,1.8-8.45,1.83-12.7.17-24.39.08-48.78.08-73.18Z" fill="#fff" stroke-width="0"/><path d="m0,2.99c23.77.03,47.55.01,71.32.11,20.9.09,39.58,6.34,55.11,20.64,13.13,12.09,19.92,27.24,20.16,45.01.28,20.4.27,40.8.02,61.2-.37,29.91-20.83,54.7-52.3,62.88-7.94,2.06-16.38,2.47-24.63,3.08-6.39.48-12.85.1-19.68.1v74.9H0V2.99Zm50.15,156.21c6.09,0,11.61.43,17.03-.08,17.8-1.69,29-12.47,29.58-29.77.66-19.88.59-39.82-.02-59.71-.37-12.03-5.99-21.67-17.59-26.79-9.28-4.1-19.07-3.18-29.01-2.83v119.18Z" fill="#fff" stroke-width="0"/><path d="m333.92,270.62V3.42c1.58-.12,3.01-.32,4.44-.32,22.96-.02,45.93-.18,68.89.03,23.72.22,44.33,8.08,58.59,27.64,14.89,20.42,15.22,43.18,6.11,65.82-6.01,14.92-19.73,20.74-34.67,23.78-1.05.21-2.09.48-3.19,1.53,3.25.8,6.53,1.51,9.75,2.42,25.04,7.09,37.36,23.21,37.48,49.06.05,10.46-.36,20.93.08,31.37,1.42,33.64-21.57,56.56-50.03,63.8-5.43,1.38-11.15,2.21-16.75,2.26-25.62.24-51.25.11-76.88.1-1.13,0-2.27-.17-3.82-.29Zm49.66-36.93c8.18,0,16.23.95,23.96-.21,14.27-2.13,23.09-12.03,23.88-26.47.66-12.06.56-24.21-.03-36.28-.48-9.77-4.92-17.89-13.82-22.82-10.75-5.94-22.39-4.36-33.98-4.16v89.93Zm0-127.38c15.44.4,30.94,1.51,39.48-13.79,7.5-13.44,7.54-28.07-1.37-41.04-9.24-13.46-23.87-12.02-38.12-11.48v66.31Z" fill="#fff" stroke-width="0"/><path d="m503.67,4c28.01,0,55.68-1.37,83.15.37,29.32,1.87,54.1,23.2,60.43,49.51,3.76,15.62,3.59,31.74.19,47.4-3.65,16.82-14.96,28.07-30.01,35.81-1.3.67-2.66,1.25-4.73,2.21,1.73.99,2.89,1.7,4.09,2.33,18.34,9.57,27.71,24.68,27.93,45.32.13,12.11-.06,24.23.07,36.34.04,3.96.29,7.98,1.05,11.85,1.8,9.15,6.31,16.34,15.74,19.3v17.07c-13.84-.64-27.56-.11-40.87-2.2-14.69-2.31-21.99-13.25-24.4-27.39-.72-4.23-.99-8.57-1.03-12.87-.12-14.1-.01-28.21-.06-42.31-.06-18.83-10.13-30.52-28.87-33.13-4.21-.59-8.58-.09-13.53-.09v117h-49.17V4Zm49.26,112.37c5.84,0,11.01.33,16.13-.06,16.08-1.22,26.22-9.24,29.53-23.57,2.38-10.32,2.31-20.77-.43-31.05-2.25-8.45-7.41-14.72-15.43-18.49-9.55-4.48-19.61-3.47-29.8-3.25v76.41Z" fill="#fff" stroke-width="0"/><path d="m724.94,43.57v62.27h61.32v39.91h-61.09v84.46h73.21v40.42h-122.95V3.4h122.08v40.17h-72.56Z" fill="#fff" stroke-width="0"/></svg>