<svg width="120" height="61" viewBox="0 0 120 61" fill="none" xmlns="http://www.w3.org/2000/svg">
<path d="M99.6898 16.2689L101.516 6.38345L103.291 15.1926L99.6898 16.2689ZM105.177 24.553L108.054 23.5794L102.99 0L99.9941 0.714797L94.6006 28.1316L97.7243 27.0746L98.9913 20.1483L103.968 18.59L105.177 24.553Z" fill="white"/>
<path d="M84.1038 8.38694L86.1273 7.87537C87.969 7.40973 89.0923 8.23094 89.0923 10.6317C89.0924 13.0327 87.9692 14.4513 86.1273 14.9654L84.1035 15.5299L84.1038 8.38694ZM89.8466 29.7401L93.26 28.5852L88.8806 17.4011C90.8941 15.793 92.318 13.0498 92.3178 9.77402C92.3175 5.40704 90.236 3.04249 86.0966 4.02993L80.6735 5.32373L80.6716 32.8445L84.1031 31.6834L84.1034 19.3738L85.6319 18.9257L89.8466 29.7401Z" fill="white"/>
<path d="M69.9781 32.3778L69.9797 23.2692L75.3609 21.6962L75.3614 17.689L69.9805 19.1851L69.9817 11.9571L76.8249 10.2271L76.8253 6.24164L66.1845 8.78003L66.1782 37.7483L77.1526 34.0352L77.153 30.0525L69.9781 32.3778Z" fill="white"/>
<path d="M56.948 40.8715L60.9538 39.516L60.9619 10.0259L56.9573 10.9811L56.948 40.8715Z" fill="white"/>
<path d="M41.9251 45.9544L46.7463 44.3232L53.582 11.7861L49.2937 12.8091L44.3373 37.0831L39.2397 15.2075L34.5325 16.3305L41.9251 45.9544Z" fill="white"/>
<path d="M25.7324 51.4333L30.6101 49.7829L30.6293 17.2616L25.7535 18.4248L25.7324 51.4333Z" fill="white"/>
<path d="M5.74973 14.0503L9.09792 13.3389C12.1328 12.6942 13.9766 13.7176 13.9742 16.793C13.9742 19.6303 12.1257 21.6289 9.09044 22.3534L5.74186 23.1527L5.74973 14.0503ZM15.2739 54.966L20.7544 53.1179L13.62 25.4725C16.9194 23.3389 19.2457 19.7851 19.2487 15.6031C19.2527 10.0284 15.8558 7.04982 9.05108 8.39859L0.0453965 10.1837L0 60.1402L5.71221 58.2074L5.73766 28.1983L8.3065 27.5514L15.2739 54.966Z" fill="white"/>
<path d="M118.757 58.1823L118.177 49.3383L119.392 59.1138L118.757 58.1823ZM110.027 46.1373L110.615 46.9991L97.1658 55.8526L110.027 46.1373ZM117.107 55.7535L117.49 45.7091L118.262 57.4517L117.107 55.7535ZM115.203 52.9488L117.103 44.0711L116.685 55.1286L115.203 52.9488ZM113.13 49.9002L116.881 42.9726L114.855 52.4375L113.13 49.9002ZM110.814 46.492L116.761 42.2486L112.845 49.4801L110.814 46.492ZM108.535 43.1384L116.505 41.8711L110.558 46.1159L108.535 43.1384ZM106.53 40.1891L115.912 41.5032L108.25 42.7183L106.53 40.1891ZM117.178 41.0964L118.854 39.9L119.376 40.6681L117.699 41.8672L117.178 41.0964ZM106.184 39.6766L104.704 37.4993L114.96 40.9051L106.184 39.6766ZM104.281 36.877L103.117 35.1656L113.551 39.9562L104.281 36.877ZM102.62 34.4362L101.986 33.4994L110.56 38.0814L102.62 34.4362ZM101.385 32.6618L101.097 32.9962L109.773 45.7613L91.2229 59.7641L91.4757 60.1402L110.869 47.3751L119.544 60.1402L119.95 59.9809L117.763 42.3797L119.999 40.7819L118.964 39.2604L116.729 40.8582L101.385 32.6618Z" fill="white"/>
</svg>
