<svg xmlns="http://www.w3.org/2000/svg" width="269.464" height="226" viewBox="0 0 269.464 226"><defs><style>.a{fill:#3f3d56;}.b{fill:#ffb08a;}.c{fill:#2f2e41;}.d{fill:#f0f0f0;}.e{fill:#fff;}.f{fill:#e4e4e4;}.g{fill:#66afff;}.h{fill:#e6e6e6;}.i{opacity:0.2;}.j{fill:#efefef;}</style></defs><path class="a" d="M487.03,602.625l-50.478-91.01a1.358,1.358,0,0,0-.674-1.088,1.341,1.341,0,0,0-.729-.176H435.1a1.339,1.339,0,0,0-1.4,1.22l-53.5,91.054a1.357,1.357,0,1,0,2.35,1.357l52.535-89.412,49.592,89.412a1.357,1.357,0,1,0,2.35-1.357Z" transform="translate(-311.618 -379.153)"/><path class="b" d="M370.174,633.906l5.705-1.309-2.334-22.63-8.421,1.932Z" transform="translate(-255.032 -426.049)"/><path class="c" d="M394.472,599.523l-8.12,1.863-2.6-5.074-.147-.18a8.073,8.073,0,0,1-1.814-5l-6.749-17.852-.552-.262a3.323,3.323,0,0,1-1.364-4.8l-.715-1.89-20.16.037-.02-.006-24.756-6.944,2.6-15.5,6.964,4.381c2.295-.149,41.6-2.563,45.235,6.247,3.234,7.845,7.894,21.247,11.234,31.11a7.718,7.718,0,0,0,.619,1.274,5.558,5.558,0,0,1,.885,2.673,6.534,6.534,0,0,0,.236,1.223c1.388,4.15-.727,8.592-.748,8.636Z" transform="translate(-274.918 -402.598)"/><path class="c" d="M528.638,746.664l1.855-.426,6.566-4.607,4.558,2.054h0a8.487,8.487,0,0,1,10.169,6.374l.061.269L530.6,755.2Z" transform="translate(-415.423 -540.699)"/><path class="d" d="M249.017,725.549c.58-6.315,4.279-12.636,10.211-14.876a29.215,29.215,0,0,0,.645,20.047c1,2.463,2.372,5.1,1.586,7.64a6.535,6.535,0,0,1-3.221,3.615,19.378,19.378,0,0,1-4.682,1.605l-.31.274C250.494,738.141,248.437,731.863,249.017,725.549Z" transform="translate(-220.045 -519.075)"/><path class="e" d="M268.962,710.483a24.971,24.971,0,0,0-5.753,14.246,10.748,10.748,0,0,0,.23,3.361,6.169,6.169,0,0,0,1.625,2.81,12.747,12.747,0,0,1,2.056,2.306,3.775,3.775,0,0,1,.284,3.075,9.816,9.816,0,0,1-2.069,3.311,9.628,9.628,0,0,0-2.3,3.681c-.045.174-.312.095-.268-.08.64-2.5,3-3.99,4.08-6.261a3.825,3.825,0,0,0,.15-3.362,9.9,9.9,0,0,0-2.043-2.381,6.581,6.581,0,0,1-1.691-2.688,9.945,9.945,0,0,1-.359-3.34,24.205,24.205,0,0,1,1.532-7.415,25.416,25.416,0,0,1,4.332-7.466C268.885,710.142,269.076,710.347,268.962,710.483Z" transform="translate(-229.716 -518.768)"/><path class="e" d="M257.405,743.511a3.746,3.746,0,0,1-2.976-3.831.14.14,0,0,1,.28,0,3.47,3.47,0,0,0,2.776,3.558C257.66,743.279,257.58,743.547,257.405,743.511Z" transform="translate(-223.892 -539.243)"/><path class="e" d="M268.871,767.6a7.221,7.221,0,0,0,3.089-4.26c.045-.174.313-.095.268.079A7.512,7.512,0,0,1,269,767.843C268.853,767.94,268.72,767.694,268.871,767.6Z" transform="translate(-233.935 -555.791)"/><path class="e" d="M272.133,726.547a2.122,2.122,0,0,0,2.005-.167c.151-.1.284.148.134.245a2.376,2.376,0,0,1-2.218.189.144.144,0,0,1-.095-.173A.14.14,0,0,1,272.133,726.547Z" transform="translate(-236.136 -530.03)"/><path class="d" d="M287.6,744.732q-.139.1-.277.195a27.967,27.967,0,0,0-3.479,2.9c-.085.08-.169.164-.252.246a29.447,29.447,0,0,0-6.109,8.954,28.57,28.57,0,0,0-1.435,4.1c-.516,1.935-.922,4.074-2.014,5.679a4.9,4.9,0,0,1-.367.484l-10.332.331c-.024-.01-.048-.019-.072-.03l-.412.032c.014-.074.031-.15.045-.224.008-.042.018-.085.026-.128s.012-.057.016-.083c0-.009,0-.019.006-.026,0-.026.01-.05.014-.073q.135-.638.28-1.277s0,0,0,0a42.023,42.023,0,0,1,3.238-9.4c.045-.089.089-.18.138-.269a27.3,27.3,0,0,1,2.33-3.794,24.131,24.131,0,0,1,1.546-1.887,20.041,20.041,0,0,1,4.9-3.919,15.929,15.929,0,0,1,11.908-1.9C287.4,744.674,287.5,744.7,287.6,744.732Z" transform="translate(-229.779 -542.487)"/><path class="e" d="M287.677,745.765a24.966,24.966,0,0,0-13.17,7.91,10.742,10.742,0,0,0-1.84,2.822,6.168,6.168,0,0,0-.394,3.222,12.766,12.766,0,0,1,.253,3.079,3.776,3.776,0,0,1-1.625,2.626,9.808,9.808,0,0,1-3.646,1.4,9.63,9.63,0,0,0-4.051,1.555c-.141.113-.307-.113-.166-.224,2.018-1.615,4.8-1.379,7.027-2.544a3.824,3.824,0,0,0,2.145-2.594,9.9,9.9,0,0,0-.2-3.131,6.585,6.585,0,0,1,.268-3.165A9.956,9.956,0,0,1,274,753.838a24.244,24.244,0,0,1,5.688-5,25.415,25.415,0,0,1,7.954-3.354c.175-.04.2.238.03.279Z" transform="translate(-229.87 -543.388)"/><path class="e" d="M302.486,756.856a3.746,3.746,0,0,1-.07-4.851c.115-.138.336.034.22.173a3.468,3.468,0,0,0,.075,4.511C302.829,756.824,302.6,756.99,302.486,756.856Z" transform="translate(-256.814 -547.909)"/><path class="e" d="M292.984,787.371a7.222,7.222,0,0,0,5.032-1.542c.141-.112.307.113.166.224a7.512,7.512,0,0,1-5.239,1.593C292.763,787.633,292.805,787.356,292.984,787.371Z" transform="translate(-250.715 -571.548)"/><path class="e" d="M326.107,752.515a2.12,2.12,0,0,0,1.7,1.074c.18.012.137.288-.041.276a2.375,2.375,0,0,1-1.885-1.184.145.145,0,0,1,.029-.2A.141.141,0,0,1,326.107,752.515Z" transform="translate(-273.785 -548.261)"/><path class="d" d="M780.532,725.549c-.58-6.315-4.279-12.636-10.211-14.876a29.217,29.217,0,0,1-.645,20.047c-1,2.463-2.373,5.1-1.587,7.64a6.533,6.533,0,0,0,3.221,3.615,19.378,19.378,0,0,0,4.682,1.605l.31.274C779.055,738.141,781.112,731.863,780.532,725.549Z" transform="translate(-582.511 -519.075)"/><path class="e" d="M775.739,710.483a24.975,24.975,0,0,1,5.754,14.246,10.785,10.785,0,0,1-.23,3.361,6.174,6.174,0,0,1-1.625,2.81,12.733,12.733,0,0,0-2.056,2.306,3.771,3.771,0,0,0-.284,3.075,9.81,9.81,0,0,0,2.069,3.311,9.63,9.63,0,0,1,2.3,3.681c.044.174.313.095.268-.08-.64-2.5-3-3.99-4.079-6.261a3.825,3.825,0,0,1-.151-3.362,9.9,9.9,0,0,1,2.043-2.381,6.582,6.582,0,0,0,1.691-2.688,9.943,9.943,0,0,0,.358-3.34,24.217,24.217,0,0,0-1.532-7.415,25.417,25.417,0,0,0-4.332-7.466C775.816,710.142,775.625,710.347,775.739,710.483Z" transform="translate(-587.993 -518.768)"/><path class="e" d="M794.419,743.509a3.746,3.746,0,0,0,2.977-3.831.14.14,0,0,0-.279.005,3.47,3.47,0,0,1-2.776,3.558C794.165,743.277,794.244,743.545,794.419,743.509Z" transform="translate(-600.942 -539.241)"/><path class="e" d="M782.326,767.6a7.22,7.22,0,0,1-3.089-4.26c-.045-.174-.313-.095-.268.079a7.509,7.509,0,0,0,3.224,4.426C782.344,767.94,782.477,767.694,782.326,767.6Z" transform="translate(-590.27 -555.791)"/><path class="e" d="M781.487,726.547a2.123,2.123,0,0,1-2.006-.167c-.15-.1-.283.148-.134.245a2.377,2.377,0,0,0,2.218.189.143.143,0,0,0,.094-.173A.14.14,0,0,0,781.487,726.547Z" transform="translate(-590.493 -530.03)"/><path class="d" d="M714.2,744.731c.092.064.185.128.277.2a27.934,27.934,0,0,1,3.479,2.9c.085.08.169.164.252.247a29.443,29.443,0,0,1,6.11,8.954,28.554,28.554,0,0,1,1.435,4.1c.516,1.935.922,4.074,2.015,5.679a4.81,4.81,0,0,0,.367.484l10.332.332.072-.031.412.032c-.014-.074-.031-.15-.045-.224-.008-.043-.018-.085-.026-.128s-.012-.057-.016-.084c0-.009,0-.019-.006-.025,0-.027-.01-.05-.014-.074q-.135-.637-.28-1.276s0,0,0,0a41.983,41.983,0,0,0-3.238-9.4c-.044-.089-.089-.18-.138-.269a27.3,27.3,0,0,0-2.33-3.794,23.956,23.956,0,0,0-1.547-1.887,20.07,20.07,0,0,0-4.9-3.919,15.924,15.924,0,0,0-11.908-1.895C714.4,744.673,714.3,744.7,714.2,744.731Z" transform="translate(-545.035 -542.487)"/><path class="e" d="M713.994,745.765a24.967,24.967,0,0,1,13.171,7.91A10.744,10.744,0,0,1,729,756.5a6.161,6.161,0,0,1,.394,3.222,12.763,12.763,0,0,0-.253,3.079,3.775,3.775,0,0,0,1.625,2.626,9.826,9.826,0,0,0,3.646,1.4,9.63,9.63,0,0,1,4.051,1.555c.14.112.307-.113.167-.224-2.019-1.615-4.8-1.379-7.027-2.544a3.822,3.822,0,0,1-2.145-2.594,9.909,9.909,0,0,1,.2-3.131,6.578,6.578,0,0,0-.268-3.165,9.947,9.947,0,0,0-1.724-2.883,24.264,24.264,0,0,0-5.688-5,25.415,25.415,0,0,0-7.954-3.354c-.175-.04-.2.238-.031.279Z" transform="translate(-544.81 -543.388)"/><path class="e" d="M753.909,756.856a3.746,3.746,0,0,0,.071-4.851c-.115-.138-.336.034-.22.173a3.469,3.469,0,0,1-.075,4.511C753.566,756.824,753.791,756.99,753.909,756.856Z" transform="translate(-572.59 -547.909)"/><path class="e" d="M753.628,787.371a7.221,7.221,0,0,1-5.031-1.542c-.141-.112-.308.113-.167.224a7.511,7.511,0,0,0,5.239,1.593C753.849,787.633,753.807,787.356,753.628,787.371Z" transform="translate(-568.906 -571.548)"/><path class="e" d="M728.244,752.515a2.12,2.12,0,0,1-1.7,1.074c-.179.012-.138.288.041.276a2.376,2.376,0,0,0,1.885-1.184.145.145,0,0,0-.029-.2A.14.14,0,0,0,728.244,752.515Z" transform="translate(-553.575 -548.261)"/><path class="a" d="M422.624,822.744a.36.36,0,0,1-.359.359H153.519a.359.359,0,0,1,0-.718H422.265A.36.36,0,0,1,422.624,822.744Z" transform="translate(-153.16 -597.103)"/><circle class="a" cx="1.357" cy="1.357" r="1.357" transform="translate(171.75 84.125)"/><path class="f" d="M670.417,366.261l18.292-11.492a1.446,1.446,0,1,1,1.425,2.514l-19.258,9.789a.466.466,0,0,1-.459-.81Z" transform="translate(-514.3 -270.328)"/><path class="g" d="M548.712,461.111a1.267,1.267,0,0,1,.021-1.445,2.985,2.985,0,0,1,1.2-.948,9.984,9.984,0,0,1,3.12-.986,4.571,4.571,0,0,0,2.369-.689c.637-.531.992-1.524,1.817-1.606.8-.08,1.411.793,2.21.847.986.067,1.631-1.087,2.59-1.324a3.01,3.01,0,0,1,1.9.394l3.614,1.64,1.853.84c.647.294,1.377.689,1.5,1.389.168.962-.9,1.64-1.816,1.982a29.237,29.237,0,0,1-20.239,0" transform="translate(-429.294 -340.432)"/><ellipse class="a" cx="47.49" cy="6.784" rx="47.49" ry="6.784" transform="translate(77.374 124.83)"/><rect class="a" width="37.992" height="5.427" rx="2.714" transform="translate(185.922 173.677)"/><path class="a" d="M903.482,484.46l-10.755,51.093,2.8,13.077,5.288,24.68V584.4a.273.273,0,0,1,0,.045,2.1,2.1,0,0,1-.133.717H896.43a2.105,2.105,0,0,1-.132-.717.234.234,0,0,1,0-.045V573.786l-4.8-22.4-.971-4.523-1.879-8.765-.543-2.539v0l.537-2.545.413-1.963,10-47.517a2.261,2.261,0,1,1,4.426.929Z" transform="translate(-666.5 -359.166)"/><path class="a" d="M775.794,655v48.846a.3.3,0,0,1,0,.045,2.1,2.1,0,0,1-.133.717h-4.251a2.1,2.1,0,0,1-.133-.717.248.248,0,0,1,0-.045V655a2.262,2.262,0,1,1,4.523,0Z" transform="translate(-584.897 -478.606)"/><path class="a" d="M624.753,558h21.71a8.141,8.141,0,0,1,8.141,8.141H616.612A8.142,8.142,0,0,1,624.753,558Z" transform="translate(-430.69 -389.751)"/><path class="a" d="M811.525,702.257H773.533a2.261,2.261,0,1,1,0-4.523h37.992a2.261,2.261,0,1,1,0,4.523Z" transform="translate(-584.898 -510.038)"/><rect class="a" width="43.748" height="6.25" rx="3.125" transform="translate(90.942 179.186) rotate(180)"/><path class="a" d="M277.809,516.407l-.694,2.859-2.545,10.468-1.1,4.523-5.1,20.98v9.1a2.228,2.228,0,0,1-.38,1.251,2.182,2.182,0,0,1-.775.717h-2.214a2.18,2.18,0,0,1-.775-.717,2.228,2.228,0,0,1-.38-1.251v-9.646l5.663-23.307,3.654-15.052-12.392-58.872a2.26,2.26,0,0,1,4.423-.929l11.455,54.4.528,2.509.615,2.925Z" transform="translate(-228.295 -340.31)"/><path class="a" d="M441.435,653.906v47.969a2.229,2.229,0,0,1-.38,1.251,2.189,2.189,0,0,1-.775.718h-2.216a2.2,2.2,0,0,1-.772-.718,2.23,2.23,0,0,1-.38-1.251V653.906a2.261,2.261,0,0,1,4.523,0Z" transform="translate(-351.355 -477.845)"/><path class="a" d="M0,0H43.748V1.234a8.141,8.141,0,0,1-8.141,8.141H8.141A8.141,8.141,0,0,1,0,1.234Z" transform="translate(90.942 176.061) rotate(180)"/><path class="a" d="M337.826,707.985H294.078a2.261,2.261,0,0,1,0-4.523h43.748a2.261,2.261,0,0,1,0,4.523Z" transform="translate(-250.009 -514.037)"/><path class="b" d="M466.7,657.363l-4.753-2.273,6.529-19.867,7.015,3.355Z" transform="translate(-322.662 -443.689)"/><path class="b" d="M555.549,656l-5.11,1.261-7.405-19.553,7.544-1.862Z" transform="translate(-379.297 -444.124)"/><path class="b" d="M671.022,480.61a4.954,4.954,0,0,0,6.712,1.684,4.753,4.753,0,0,0,.637-.461l15.027,8.623-.653-8.852-14.17-6.832a4.937,4.937,0,0,0-5.988-.78,4.751,4.751,0,0,0-1.566,6.618Z" transform="translate(-514.359 -353.287)"/><path class="h" d="M725.519,448.31l2.657,1.619L740.1,457.2a7.034,7.034,0,0,0,9.7-2.238,6.884,6.884,0,0,0,.877-4.859l-5.3-26.49a7.35,7.35,0,0,0-9.649-5.578,7,7,0,0,0-4.415,8.5l5.544,18.8-8.5-3.962Z" transform="translate(-552.94 -314.389)"/><path class="c" d="M685.745,611.871l-8.178-16.4,0-.037.807-30.085c.01-.267.032-.536.064-.8a9.152,9.152,0,0,1,3.482-6.159,8.792,8.792,0,0,1,6.559-1.794l23.386,3.027.811-3.317.152-.055,22.407-8.212.129.21c2.934,4.775,4.986,14.313,5.545,17.123l.008.04c.012.059.019.1.021.105,1.153,4.795-3.612,12.737-8.361,13.93-10,2.549-18.946.561-29.3-1.742-3.714-.826-7.552-1.68-11.78-2.418l.126,2.488a18.646,18.646,0,0,0,1.179,5.6,9.669,9.669,0,0,1,.09,7.588l-.608,1.759a6,6,0,0,1-.617,5.316l-.122.187,5.393,13.648Z" transform="translate(-519.447 -405.476)"/><path class="c" d="M637.532,593.7l-9.752-.907,3.455-11.05a72.126,72.126,0,0,1,5.329-20.961l4.714-11.169c.01-.249.031-.5.061-.744a9.15,9.15,0,0,1,3.482-6.159,8.8,8.8,0,0,1,6.559-1.794l23.351,3.022,1.017-8.536,22.414-3,.1.167c3.918,6.374,6.4,11.364,7.827,15.7.072.222.135.448.189.673a9.042,9.042,0,0,1-6.463,10.908c-12.041,3.07-26.521,2.985-45.559-.27l-9.213,21.927a33.65,33.65,0,0,1-3.254,5.969Z" transform="translate(-484.672 -394.554)"/><ellipse class="b" cx="11.297" cy="11.549" rx="11.297" ry="11.549" transform="translate(175.583 65.35)"/><path class="f" d="M743.5,433.183l-1.621-5.807-.4-2.865-2.33.078-4.572-10.554-1.776-2.783q-.544-.572-.985-1.1a24.8,24.8,0,0,1-4.389-7.067,18.548,18.548,0,0,1-1.284-5.82c-.332-5.9,2.154-12.136,7.6-19.072a3.273,3.273,0,0,1-.177-.761,3.218,3.218,0,0,1,2.8-3.562l5.252-.59a3.1,3.1,0,0,1,2.3.67,3.223,3.223,0,0,1,1.19,2.188,3.288,3.288,0,0,1-.371,1.9,14.027,14.027,0,0,1,11.642,9.8,93.109,93.109,0,0,1,7.472,18.455,9.426,9.426,0,0,1,.045,3.795,10.686,10.686,0,0,0-.042,3.536,16,16,0,0,0,1.505,3.708,15.021,15.021,0,0,1,1.707,4.544l.015.109Z" transform="translate(-553.354 -283.399)"/><path class="i" d="M730.931,437.516a24.712,24.712,0,0,0,4.365,7.027c.315.376.648.746,1,1.116l1.787,2.8C744.666,443.526,750,424.083,750,424.083l-7.433-1.446Z" transform="translate(-556.72 -317.888)"/><path class="b" d="M694.33,366.6a4.966,4.966,0,0,1-1.677,6.721,4.783,4.783,0,0,1-.707.347l.526,17.318-7.5-4.721.65-15.722a4.952,4.952,0,0,1,2.133-5.657,4.739,4.739,0,0,1,6.574,1.714Z" transform="translate(-524.62 -277.068)"/><path class="h" d="M692.927,412.806l-8.248,1.173.355,17.079a7.147,7.147,0,0,0,3.494,6.022h0a6.847,6.847,0,0,0,8.178-.929l19.471-18.728a7.383,7.383,0,0,0,.544-10.137h0a7,7,0,0,0-10.032-.687,7.088,7.088,0,0,0-.547.546l-12.857,14.791Z" transform="translate(-524.414 -305.431)"/><path class="b" d="M330.1,673.262h5.854l2.785-22.579H330.1Z" transform="translate(-230.568 -454.488)"/><circle class="b" cx="11.683" cy="11.683" r="11.683" transform="translate(54.67 65.417)"/><path class="c" d="M370.211,622.853h-8.29l-2.114-2.833-.572-2.669-.492-.476a4.109,4.109,0,0,1-.693-5.054l-6.008-28.03c-1.573-.138-19.318-1.725-31.653-3.908a10.836,10.836,0,0,1-7.326-4.561c-4.188-6.064-2.394-15.875-2.375-15.974l.021-.109.111-.012,28.812-3.234.039.019c.956.453,23.459,11.136,27.136,14.813,1.661,1.661,5.365,11.527,6.195,22.015a16.572,16.572,0,0,1-.9,5.643,16.52,16.52,0,0,0-.885,5.215c.153,2.612.3,5.351.43,8.142a2.858,2.858,0,0,0,.681,1.351,2.777,2.777,0,0,1,.679,1.364,14.01,14.01,0,0,1-2.746,8.241Z" transform="translate(-262.913 -411.034)"/><path class="b" d="M479.8,433.779a4.451,4.451,0,0,0-5.606,3.892l-9.708,3.034.4,6.349,13.649-4.477a4.475,4.475,0,0,0,1.26-8.8Z" transform="translate(-370.614 -325.56)"/><path class="g" d="M398.951,420.433l-7.255,2.746-.186.36a3.66,3.66,0,0,1-4.931,1.576h0l-16.307,6.172S362.989,424,357.8,417.5l1.767-10.869a20.834,20.834,0,0,1,2.566-7.154c10.634,2.332,16.737,17.2,16.737,17.2l19.164-3.657Z" transform="translate(-296.1 -301.708)"/><path class="c" d="M336.4,307.979a9.434,9.434,0,0,1-8.432-2.253A15.829,15.829,0,0,1,323.431,298c-.6-2.136-.888-4.506.063-6.511s3.51-3.358,5.484-2.345c-1.218-1.419-.609-3.766.813-4.98a9.363,9.363,0,0,1,5.236-1.752,19.006,19.006,0,0,1,8.058.568,8.794,8.794,0,0,1,5.708,5.379,4.094,4.094,0,0,0,4.883-1.1,3.708,3.708,0,0,1-2.044,4.021L355.568,290c.677,1.433-.509,3.206-2.026,3.665a6.635,6.635,0,0,1-4.594-.706,17.8,17.8,0,0,0-4.4-1.76,3.881,3.881,0,0,0-4.123,1.654,12.146,12.146,0,0,0-.618,2.4c-.22.8-.777,1.63-1.6,1.7-.523.042-1.035-.237-1.556-.18a1.677,1.677,0,0,0-1.313,1.283,4.927,4.927,0,0,0,0,1.937l1,7.643" transform="translate(-271.703 -219.82)"/><path class="g" d="M305.546,450.689h-.006l-.093-.016-.026-.09c-.336-1.13-.763-2.286-1.177-3.4a41.04,41.04,0,0,1-1.539-4.745,36.336,36.336,0,0,1-.681-4.671c-.115-1.139-.234-2.318-.437-3.479a2.129,2.129,0,0,1,.581-1.475,1.952,1.952,0,0,0,.534-1.242,2.954,2.954,0,0,0-.934-1.263,3.044,3.044,0,0,1-1.025-1.453A144.716,144.716,0,0,1,299.44,408c.1-9.649.533-16.225,1.3-19.548,2.052-8.933,11.533-10.564,13.017-10.765a3.277,3.277,0,0,1,4.432-1.828l6.736,3.084a10.967,10.967,0,0,1,5.831,6.512l1,3.051.5,20.479L329.475,423.4l5.427,8.141C305.977,447.425,305.64,450.689,305.546,450.689Z" transform="translate(-255.328 -285.004)"/><path class="c" d="M472.817,786.257h1.9l7.43-3.022,3.983,3.021h0a8.487,8.487,0,0,1,8.486,8.486v.276h-21.8Z" transform="translate(-376.434 -569.758)"/><path class="b" d="M481.731,481.193a4.45,4.45,0,0,0-6.427,2.294l-10.163.4-1.369,4.734,14.448.74a4.475,4.475,0,0,0,3.512-8.164Z" transform="translate(-370.116 -358.36)"/><path class="g" d="M394.208,442.917l-10.439-.13-1.322-.018-21.239-.268s-5.768-5.5-10.79-11.168l.7-5.092a20.8,20.8,0,0,1,6.975-12.88c7.193,4.807,11.365,14.32,11.365,14.32l6.994,3.13h0a30.619,30.619,0,0,1,13.982,4.095l2.3,1.333Z" transform="translate(-290.94 -311.41)"/><path class="c" d="M709.442,783.291l-3.474.857-1.43-3.126-.779,3.671-9.212,2.273a2.133,2.133,0,0,1-2.108-3.484l6.1-6.9-.818-3.315,7.852-1.447Z" transform="translate(-529.461 -561.787)"/><path class="c" d="M592.052,778.67l-3.312-1.352.685-3.369-2.791,2.509-8.785-3.586a2.133,2.133,0,0,1,.347-4.059l8.993-1.981,1.29-3.162,7.2,3.453Z" transform="translate(-448.869 -556.092)"/><path class="f" d="M557.99,481.891h-2.713a11.018,11.018,0,0,1-11.006-11.005v-.151H569v.151A11.018,11.018,0,0,1,557.99,481.891Z" transform="translate(-426.342 -351.483)"/><path class="a" d="M574.486,454.592c0,.749-1.358,1.357-1.358,1.357s-1.357-.607-1.357-1.357,1.357-1.357,1.357-1.357S574.486,453.843,574.486,454.592Z" transform="translate(-445.551 -339.26)"/><path class="a" d="M601.486,454.592c0,.749-1.357,1.357-1.357,1.357s-1.357-.607-1.357-1.357,1.357-1.357,1.357-1.357S601.486,453.843,601.486,454.592Z" transform="translate(-464.41 -339.26)"/><path class="a" d="M583.486,463.592c0,.75-1.357,1.357-1.357,1.357s-1.357-.607-1.357-1.357,1.357-1.356,1.357-1.356S583.486,462.842,583.486,463.592Z" transform="translate(-451.837 -345.546)"/><circle class="a" cx="1.357" cy="1.357" r="1.357" transform="translate(120.793 109.754)"/><path class="f" d="M491.6,434.054l21.4,2.955a1.446,1.446,0,1,1-.525,2.841l-21.044-4.881a.466.466,0,0,1,.169-.916Z" transform="translate(-389.181 -325.859)"/><path class="d" d="M541.352,116V75.235h-2.714V116a14.925,14.925,0,0,0-13.569,14.861v4.071h9.5a5.427,5.427,0,0,0,10.855,0h9.5v-4.071A14.924,14.924,0,0,0,541.354,116Z" transform="translate(-412.931 -75.235)"/><path class="d" d="M666.657,105.812V75.235h-2.036v30.577a11.193,11.193,0,0,0-10.176,11.146v3.053h7.123a4.071,4.071,0,0,0,8.141,0h7.124v-3.053a11.194,11.194,0,0,0-10.175-11.146Z" transform="translate(-503.296 -75.235)"/><path class="d" d="M438.656,105.812V75.235h-2.035v30.577a11.194,11.194,0,0,0-10.177,11.146v3.053h7.124a4.071,4.071,0,1,0,8.141,0h7.124v-3.053a11.193,11.193,0,0,0-10.175-11.146Z" transform="translate(-344.044 -75.235)"/><path class="j" d="M771.365,285.688c-1.921-2.239-2.833-5.21-4.369-7.753s-4.207-4.819-7.029-4.227a6.3,6.3,0,0,0-4.21,4.038,19.883,19.883,0,0,0-1.037,6.092,10.4,10.4,0,0,0-6.609-9.725,9.732,9.732,0,0,0-10.894,3.57,5.889,5.889,0,0,0-7.821-.164,6.56,6.56,0,0,0-1.053,8.1,5.929,5.929,0,0,0,7.58,2.021l.9.824a3.881,3.881,0,0,0,2.116,4.509c1.333.539,3.214.449,3.713,1.847a2.93,2.93,0,0,1-1,2.771,4.667,4.667,0,0,0-1.6,2.565c-.126,1.568,1.495,2.666,2.967,3a9.251,9.251,0,0,0,9.538-3.981c.039-.06.083-.121.128-.181a13.711,13.711,0,0,0,2.759-10.486c-.115-.724,0-1.263.5-1.434,2.159-.741,8.206.815,10.036,2.221s3.3,3.268,5.059,4.765,4.01,2.652,6.248,2.244a6.932,6.932,0,0,0,4.344-3.2,19.285,19.285,0,0,0,2.146-5.218A10.1,10.1,0,0,1,771.365,285.688Z" transform="translate(-554.254 -213.798)"/></svg>