<svg xmlns="http://www.w3.org/2000/svg" width="225" height="190.846" viewBox="0 0 225 190.846"><g transform="translate(-0.003 -0.019)"><path d="M353.813,136.917c-11.252,14.389-32.484,17.684-50.051,12.673a81.469,81.469,0,0,1-16.536-6.884c-3.045-1.654-6.017-3.467-8.928-5.4-.716-.473-1.433-.954-2.142-1.445q-.725-.5-1.445-1c-6.012-4.23-11.789-8.87-17.468-13.484-14.178-11.517-28.744-23.388-46.164-28.883-3.589-1.132-8.231-1.661-10.451,1.379-1.925,2.639-.75,6.376.879,9.208,6.044,10.487,17.014,17.109,27.994,22.2s22.611,9.217,32.156,16.662,16.832,19.277,14.88,31.221c-1.683,10.293-10.086,18.656-19.857,22.3s-20.668,3.135-30.825.77-19.8-6.5-29.6-10.057c-5.91-2.149-13.636-3.635-17.558,1.282-3.312,4.155-1.408,10.708,2.625,14.166s9.492,4.616,14.7,5.655l48.514,9.686c4.961.988,10.038,2.023,14.36,4.655s7.809,7.224,7.685,12.282c-.124,4.985-3.773,9.39-8.246,11.6s-9.632,2.545-14.612,2.307c-18.663-.894-72.167-30.544-85-34.334-8.246-2.433-17.262-6.007-20.739-13.87-4.329-9.788,2.795-21.63,12.52-26.1s20.994-3.482,31.59-1.976,21.542,3.421,31.857.561S233.714,159.9,232.7,149.245c-.886-9.271-9.237-16.256-18.024-19.335-6.879-2.411-14.2-3.067-21.423-4.152-2.006-.3-4-.634-5.983-1.047a74.566,74.566,0,0,1-14.751-4.735,75.981,75.981,0,0,1-14.093-8.088,74.124,74.124,0,0,1-9.79-8.5q-.688-.714-1.362-1.459c-.427-.476-.85-.962-1.263-1.457-5.371-6.418-9.339-14.321-8.149-22.465,1.187-8.122,7.518-14.885,15.055-18.133a37.148,37.148,0,0,1,13.811-2.839,56.769,56.769,0,0,1,10.388.748c15.883,2.54,30.437,10.257,44.183,18.612s27.137,17.526,42.077,23.483,31.947,8.481,47.1,3.093,27.608-20.081,26.867-36.148c10.052,8.656,18.595,19.537,22.378,32.251S361.983,126.467,353.813,136.917Z" transform="translate(-136.684 -57.003)" fill="#3f3d56"/><circle cx="1.76" cy="1.76" r="1.76" transform="translate(142.941 59.78)" fill="#66afff"/><circle cx="2.721" cy="2.721" r="2.721" transform="translate(204.454 35.504)" fill="#ff6584"/><circle cx="1.005" cy="1.005" r="1.005" transform="translate(26.786 123.185)" fill="#ff6584"/><path d="M305.2,295.786a10.745,10.745,0,0,1-.314,2.588c-2-.3-3.988-.631-5.959-1.042a74.26,74.26,0,0,1-14.691-4.716,10.722,10.722,0,0,1,20.964,3.17Z" transform="translate(-248.391 -229.657)" fill="#ff6584"/><circle cx="1.028" cy="1.028" r="1.028" transform="translate(188.735 54.928)" fill="#f0f0f0"/><circle cx="1.028" cy="1.028" r="1.028" transform="translate(94.135 168.653)" fill="#f0f0f0"/><circle cx="1.028" cy="1.028" r="1.028" transform="translate(108.948 182.921)" fill="#f0f0f0"/><circle cx="1.028" cy="1.028" r="1.028" transform="translate(17.332 142.102)" fill="#f0f0f0"/><circle cx="1.028" cy="1.028" r="1.028" transform="translate(68.153 122.919)" fill="#f0f0f0"/><circle cx="1.028" cy="1.028" r="1.028" transform="translate(63.054 20.362)" fill="#f0f0f0"/><circle cx="1.028" cy="1.028" r="1.028" transform="translate(125.46 101.307)" fill="#f0f0f0"/><circle cx="1.028" cy="1.028" r="1.028" transform="translate(133.23 119.277)" fill="#f0f0f0"/><path d="M291.527,139.376q2.194-.662,4.2-1.435c8.213-3.172,12.923-7.475,12.923-11.806s-4.71-8.634-12.923-11.806q-1.218-.471-2.512-.9a32.971,32.971,0,0,1-1.687,25.948Z" transform="translate(-253.914 -99.769)" fill="none"/><path d="M180.7,81.711a32.753,32.753,0,0,1-3.579,14.935q-.468.914-.992,1.8A32.993,32.993,0,0,1,161.324,111.7a73.821,73.821,0,0,1-9.75-8.466q-.686-.711-1.357-1.453c-.426-.474-.846-.958-1.257-1.451-5.349-6.391-9.3-14.263-8.116-22.374,1.182-8.089,7.487-14.824,14.993-18.06a37,37,0,0,1,13.755-2.827,32.919,32.919,0,0,1,8.544,11.888c.242.573.464,1.154.675,1.741A32.829,32.829,0,0,1,180.7,81.711Z" transform="translate(-139.675 -57.038)" fill="#66afff"/><path d="M221.8,120.676c0,5.037-4.919,9.709-13.852,13.16-1.787.692-3.7,1.318-5.712,1.879a101.387,101.387,0,0,1-25.914,3.337c-.426-.474-.846-.958-1.257-1.451.1,0,.2,0,.3,0a98.748,98.748,0,0,0,27.858-3.685c1.463-.443,2.866-.921,4.2-1.436,8.212-3.17,12.923-7.475,12.923-11.806s-4.711-8.633-12.923-11.806q-1.219-.472-2.51-.9c-.21-.588-.433-1.168-.675-1.741q1.93.6,3.707,1.287C216.883,110.966,221.8,115.641,221.8,120.676Z" transform="translate(-165.782 -94.31)" fill="#e4e4e4"/><circle cx="1.028" cy="1.028" r="1.028" transform="translate(10.077 6.336)" fill="#f0f0f0"/><circle cx="1.028" cy="1.028" r="1.028" transform="translate(31.599 12.866)" fill="#f0f0f0"/><circle cx="9.999" cy="9.999" r="9.999" transform="translate(11.504 14.293)" fill="#f0f0f0"/><path d="M778.326,376.239c-2.244.663-7.192,1.151-12.633,1.451s-11.4.428-17.3.554l-30.932.67q-2.126.047-4.266.087c-.714-.472-1.427-.95-2.133-1.439,1.265.007,2.53,0,3.785-.024,5.361-.106,9.9-.525,15.071-.723,7.956-.307,16.546-.065,24.838.058S772.5,376.952,778.326,376.239Z" transform="translate(-571.248 -298.705)" fill="#f0f0f0" opacity="0.3"/><path d="M231.715,605.621l-32.869-27.382,31.932,28.479a.762.762,0,1,0,.937-1.1Z" transform="translate(-183.811 -451.568)" fill="#f0f0f0" opacity="0.3"/><circle cx="1.028" cy="1.028" r="1.028" transform="translate(21.926 47.886)" fill="#f0f0f0"/><path d="M452.015,642.641h4.253l2.023-16.4h-6.277Z" transform="translate(-342.243 -474.004)" fill="#ffb08a"/><path d="M584.215,739.376h1.2l4.674-1.9,2.5,1.9h0a5.338,5.338,0,0,1,5.338,5.337v.174H584.215Z" transform="translate(-475.517 -572.127)" fill="#2f2e41"/><path d="M300.63,642.641h-4.253l-2.023-16.4h6.277Z" transform="translate(-222.87 -474.004)" fill="#ffb08a"/><path d="M418.482,744.887H404.768v-.173a5.338,5.338,0,0,1,5.337-5.338h0l2.505-1.9,4.674,1.9h1.2Z" transform="translate(-339.654 -572.127)" fill="#2f2e41"/><path d="M469.539,231.191l-4.306,3.279-11.44,3.03s4.1,28.768,2.164,30.7-.19,1.987-.579,4.5-1.938,9.148-1.938,9.148h34.143s.275-4.124-1.408-5.017,1.552-5.061.176-5.758.559-6.743.559-6.743l4.193-19.793-11.152-8.725-1.7-4.086Z" transform="translate(-376.461 -188.818)" fill="#66afff"/><circle cx="1.49" cy="1.49" r="1.49" transform="translate(96.984 65.134)" fill="#f2f2f2"/><path d="M432.891,440.677l-1.408,36.255s-6.079,26.777-5.023,27.481,1.5,4.9,1.5,4.9l5.984.7s0-2.816,1.408-3.872,14.432-50.686,14.432-50.686l12.706,47.985s.318,2.7,1.374,2.7,1.408,3.872,1.408,3.872h5.984v-3.872a2.659,2.659,0,0,0,1.633-3.668c-1.056-2.816-5.857-61.8-5.857-61.8Z" transform="translate(-355.927 -347.103)" fill="#2f2e41"/><circle cx="7.216" cy="7.216" r="7.216" transform="translate(90.35 25.546)" fill="#ffb08a"/><path d="M452.85,257.275l1.408,1.056.7-4.928Z" transform="translate(-342.884 -191.852)" opacity="0.1"/><path d="M433.409,257.127s-1.76-.352-2.816,2.816-4.928,15.136-4.928,17.247,24.113,11.43,24.113,11.43l-2.509-8.8-11.044-5.8Z" transform="translate(-355.459 -208.471)" fill="#66afff"/><circle cx="4.111" cy="4.111" r="4.111" transform="translate(91.392 70.686)" fill="#ffb08a"/><path d="M331.316,252l.322,4.36,10.213,5.36-9.083-6.093Z" transform="translate(-250.849 -190.78)" opacity="0.1"/><path d="M531.829,293.605H531.7v-3.629a2.1,2.1,0,0,0-2.1-2.1h-7.689a2.1,2.1,0,0,0-2.1,2.1v19.911a2.1,2.1,0,0,0,2.1,2.1H529.6a2.1,2.1,0,0,0,2.1-2.1v-13.7h.133Z" transform="translate(-426.754 -231.769)" fill="#f0f0f0"/><path d="M573.87,286.39s1.056.7,1.76,3.872,5.28,15.135,3.52,17.951-2.28,5.821-8.263,1.6l-8.28-7.581,5.984-5.632,2.464,1.76Z" transform="translate(-459.149 -230.642)" fill="#66afff"/><circle cx="1.76" cy="1.76" r="1.76" transform="translate(97.333 61.455)" fill="#66afff"/><circle cx="4.111" cy="4.111" r="4.111" transform="translate(100.097 62.973)" fill="#ffb08a"/><path d="M329.486,306.41l11.8,5.22-12.13-2.371Z" transform="translate(-249.212 -231.986)" opacity="0.1"/><path d="M503.82,158.931l-.991-3.771a9.744,9.744,0,0,1-.461-3,3.3,3.3,0,0,1,1.344-2.614,2.02,2.02,0,0,1,2.712.435,3.464,3.464,0,0,1,2.665-2.788,12.848,12.848,0,0,1,4.086-.162,7.178,7.178,0,0,0,3.994-.675,1.236,1.236,0,0,1-.553,1.461,1.2,1.2,0,0,0,1.45-.765,3.115,3.115,0,0,1-.818,2.139,2.291,2.291,0,0,1,2.961.839c.6,1.045.265,2.357-.088,3.511l-1.81,5.921a20.265,20.265,0,0,1-.473-2.78,5.137,5.137,0,0,0-1.022-2.592,2.328,2.328,0,0,0-2.527-.772,8.188,8.188,0,0,0-1.3.891,4.746,4.746,0,0,1-3.135.558c-1.076-.121-2.125-.427-3.2-.55a1.976,1.976,0,0,0-2.6,1.715,10.512,10.512,0,0,0-.28,3.033" transform="translate(-413.534 -124.731)" fill="#2f2e41"/></g></svg>