<?xml version="1.0" encoding="utf-8"?>
<!-- Generator: Adobe Illustrator 28.0.0, SVG Export Plug-In . SVG Version: 6.00 Build 0)  -->
<svg version="1.1" id="Layer_1" xmlns="http://www.w3.org/2000/svg" xmlns:xlink="http://www.w3.org/1999/xlink" x="0px" y="0px"
	 viewBox="0 0 16.8 16.8" style="enable-background:new 0 0 16.8 16.8;" xml:space="preserve">
<style type="text/css">
	.st0{fill-rule:evenodd;clip-rule:evenodd;fill:#FFFFFF;}
</style>
<path class="st0" d="M8.4,1.5c1.1,0,2.2,0,3.4,0.1c0.5,0,1.1,0.1,1.6,0.3c0.7,0.3,1.3,0.9,1.6,1.6c0.2,0.5,0.3,1,0.3,1.6
	c0,0.8,0.1,1.1,0.1,3.4c0,1.1,0,2.2-0.1,3.4c0,0.5-0.1,1.1-0.3,1.6c-0.3,0.7-0.9,1.3-1.6,1.6c-0.5,0.2-1,0.3-1.6,0.3
	c-0.8,0-1.1,0.1-3.4,0.1c-1.1,0-2.2,0-3.4-0.1c-0.5,0-1.1-0.1-1.6-0.3c-0.7-0.3-1.3-0.9-1.6-1.6c-0.2-0.5-0.3-1-0.3-1.6
	c0-0.8-0.1-1.1-0.1-3.4c0-1.1,0-2.2,0.1-3.4c0-0.5,0.1-1.1,0.3-1.6c0.2-0.4,0.4-0.7,0.7-1C2.7,2.2,3.1,2,3.4,1.9
	C4,1.7,4.5,1.6,5,1.6C6.1,1.5,7.3,1.4,8.4,1.5 M8.4,0C7.2,0,6.1,0,4.9,0.1c-0.7,0-1.4,0.1-2.1,0.4C2.3,0.7,1.8,1,1.4,1.4
	S0.7,2.3,0.5,2.9C0.2,3.5,0,4.2,0.1,4.9C0,6.1,0,7.2,0,8.4s0,2.3,0.1,3.4c0,0.7,0.1,1.4,0.4,2.1C0.7,14.5,1,15,1.4,15.4
	s0.9,0.7,1.5,0.9c0.7,0.2,1.4,0.4,2.1,0.4c1.1,0.1,2.3,0.1,3.4,0.1c1.2,0,2.3,0,3.4-0.1c0.7,0,1.4-0.1,2.1-0.4
	c1.1-0.4,2-1.3,2.4-2.4c0.2-0.7,0.4-1.4,0.4-2.1c0-0.9,0.1-1.2,0.1-3.4c0-1.2,0-2.3-0.1-3.4c0-0.7-0.1-1.4-0.4-2.1
	c-0.2-0.6-0.5-1.1-0.9-1.5s-0.9-0.7-1.5-0.9c-0.7-0.2-1.4-0.4-2.1-0.4C10.7,0,9.5,0,8.4,0 M8.4,4.1c-2.3,0-4.3,1.8-4.3,4.1v0.1
	c0,2.4,1.9,4.3,4.3,4.3s4.3-1.9,4.3-4.3C12.7,6,10.8,4.1,8.4,4.1 M8.4,11.2c-1.5,0-2.8-1.2-2.8-2.7V8.4c0-1.5,1.2-2.8,2.7-2.8h0.1
	c1.5,0,2.8,1.2,2.8,2.7v0.1c0,1.5-1.2,2.8-2.7,2.8H8.4 M12.9,2.9c-0.6,0-1,0.5-1,1s0.5,1,1,1c0.6,0,1-0.5,1-1l0,0
	C13.9,3.3,13.4,2.9,12.9,2.9"/>
</svg>
