<?xml version="1.0" encoding="UTF-8"?><svg id="Layer_2" xmlns="http://www.w3.org/2000/svg" viewBox="0 0 1635.46 284.88"><g id="Layer_1-2"><path d="m0,269.43V72.92c0-10.81,4.63-15.45,15.45-15.45h29.35c10.81,0,15.45,4.64,15.45,15.45v.31c8.65-11.12,25.95-19.47,46.97-19.47,45.42,0,72.61,32.44,72.61,86.52,0,59.94-29.97,94.55-82.19,94.55-10.51,0-20.7-2.78-29.04-6.18v40.79c0,10.81-4.64,15.45-15.45,15.45H15.45c-10.81,0-15.45-4.64-15.45-15.45Zm110.31-127.61c0-21.32-6.18-31.52-20.08-31.52-7.72,0-16.38,2.78-21.63,7.11v56.54c4.94,2.47,10.2,4.33,16.99,4.33,16.69,0,24.72-12.05,24.72-36.46Z" fill="#365880" stroke-width="0"/><path d="m194.97,34.92c0-22.25,14.83-34.92,41.4-34.92s41.4,12.67,41.4,34.92-14.83,34.91-41.4,34.91-41.4-12.67-41.4-34.91Zm7.11,180.76v-121.74c0-8.65,5.56-12.67,15.14-10.51,6.8,1.24,12.67,1.85,19.16,1.85s12.36-.62,19.16-1.85c9.58-2.16,15.14,1.85,15.14,10.51v121.74c0,10.81-4.64,15.45-15.45,15.45h-37.7c-10.81,0-15.45-4.64-15.45-15.45Z" fill="#365880" stroke-width="0"/><path d="m292.92,144.6c0-60.25,30.28-90.84,91.15-90.84,17.3,0,29.66,2.78,35.53,4.94,9.27,3.4,13.6,9.89,11.43,20.7l-4.64,24.41c-2.47,13.29-9.27,13.29-19.47,10.51-8.65-2.47-12.36-3.09-19.16-3.09-17.61,0-24.41,9.58-24.41,32.44,0,24.1,7.42,33.68,25.03,33.68,6.8,0,12.36-.62,26.26-3.71,9.89-2.16,15.14,1.24,15.14,12.98v23.48c0,11.12-4.02,16.68-15.14,20.39-8.03,2.78-18.85,4.33-33.06,4.33-59.02,0-88.68-30.9-88.68-90.22Z" fill="#365880" stroke-width="0"/><path d="m451.12,215.67V19.16c0-10.81,4.64-15.45,15.45-15.45h37.7c10.82,0,15.45,4.63,15.45,15.45v92.7c10.51-9.89,19.47-23.17,27.5-40.17,5.56-11.74,9.58-14.21,21.32-14.21h40.17c8.96,0,12.98,4.02,12.98,12.98,0,12.36-16.07,38.93-38.31,64.89,21.32,26.57,41.4,65.81,41.4,82.81,0,8.65-4.02,12.98-12.98,12.98h-38.93c-12.05,0-17.3-3.4-21.32-14.21-4.33-11.74-11.43-26.26-21.32-42.33-3.71,3.09-7.42,5.87-10.51,8.03v33.06c0,10.81-4.63,15.45-15.45,15.45h-37.7c-10.81,0-15.45-4.64-15.45-15.45Z" fill="#365880" stroke-width="0"/><path d="m632.49,185.7c0-35.84,30.28-53.45,101.35-53.76v-3.09c0-12.05-8.96-18.54-26.26-18.54-14.83,0-26.57,2.78-42.64,8.96-9.89,3.71-14.83.62-17.61-10.81l-5.25-21.01c-2.47-10.51.31-16.68,11.12-21.32,17.92-7.42,44.8-12.36,68.28-12.36,53.15,0,80.95,25.95,80.95,75.08v86.82c0,10.81-4.64,15.45-15.45,15.45h-29.66c-10.81,0-15.45-4.94-15.45-16.38v-1.55c-13.59,14.52-31.82,21.63-55.93,21.63-32.75,0-53.45-19.47-53.45-49.13Zm101.35-.93v-17.61c-30.59.62-38.93,5.25-38.93,14.83,0,6.49,4.02,10.51,13.59,10.51,6.8,0,19.47-1.85,25.34-7.72Z" fill="#365880" stroke-width="0"/><path d="m838.28,158.2v-44.19h-9.58c-10.81,0-15.45-4.64-15.45-15.45v-25.65c0-10.81,4.64-15.45,15.45-15.45h9.58v-19.16c0-12.98,3.09-18.23,12.98-20.39l23.17-4.94c7.73-1.85,14.21-3.09,18.85-3.09,10.5,0,13.59,4.94,13.59,15.45v32.13h32.75c10.82,0,15.45,4.64,15.45,15.45v25.65c0,10.81-4.63,15.45-15.45,15.45h-32.75v43.26c0,13.9,4.64,19.47,16.68,19.47,7.11,0,16.07-2.16,20.7-2.16,7.73,0,10.81,4.02,10.81,13.29v22.25c0,11.12-4.02,16.68-15.14,20.39-8.03,2.47-19.77,4.33-28.12,4.33-52.22,0-73.54-21.63-73.54-76.63Z" fill="#365880" stroke-width="0"/><path d="m964.35,185.7c0-35.84,30.28-53.45,101.35-53.76v-3.09c0-12.05-8.96-18.54-26.26-18.54-14.83,0-26.57,2.78-42.64,8.96-9.89,3.71-14.83.62-17.61-10.81l-5.25-21.01c-2.47-10.51.31-16.68,11.12-21.32,17.92-7.42,44.8-12.36,68.28-12.36,53.15,0,80.95,25.95,80.95,75.08v86.82c0,10.81-4.64,15.45-15.45,15.45h-29.66c-10.81,0-15.45-4.94-15.45-16.38v-1.55c-13.59,14.52-31.82,21.63-55.93,21.63-32.75,0-53.45-19.47-53.45-49.13Zm101.35-.93v-17.61c-30.59.62-38.93,5.25-38.93,14.83,0,6.49,4.02,10.51,13.59,10.51,6.8,0,19.47-1.85,25.34-7.72Z" fill="#365880" stroke-width="0"/><path d="m1210.3,214.74c0,12.67-3.71,16.38-12.36,16.38h-21.94c-10.81,0-15.45-4.64-15.45-15.45V19.16c0-10.81,4.64-15.45,15.45-15.45h37.7c10.82,0,15.45,4.63,15.45,15.45v46.04c9.58-6.8,23.17-11.43,38.62-11.43,45.42,0,72.61,32.44,72.61,86.52,0,59.94-29.97,94.55-82.19,94.55-16.38,0-35.22-6.18-47.89-20.08Zm60.56-72.92c0-21.32-6.18-31.52-20.08-31.52-7.73,0-16.38,2.78-21.63,7.72v55.31c4.94,3.09,10.51,4.94,16.99,4.94,16.68,0,24.72-12.05,24.72-36.46Z" fill="#365880" stroke-width="0"/><path d="m1362.63,174.27V19.16c0-10.81,4.64-15.45,15.45-15.45h37.7c10.82,0,15.45,4.63,15.45,15.45v148.31c0,7.42,2.78,10.51,8.65,10.51h1.54c8.34,0,11.74,3.71,11.74,13.29v23.17c0,10.5-4.33,15.14-15.14,17.92-6.8,1.85-13.9,2.47-20.39,2.47-40.79,0-55-15.45-55-60.56Z" fill="#365880" stroke-width="0"/><path d="m1463.67,144.3c0-58.71,32.44-90.53,92.08-90.53,49.13,0,79.72,22.25,79.72,57.78,0,29.66-19.16,44.8-60.25,47.27l-41.4,2.78c2.47,12.98,11.74,18.23,32.13,18.23,13.9,0,30.9-3.09,42.95-8.03,12.67-5.25,21.63-3.09,21.63,8.03v22.87c0,10.81-5.56,18.23-17.3,22.56-15.76,5.87-37.39,9.58-56.85,9.58-63.34,0-92.69-28.43-92.69-90.53Zm86.21-18.54c16.38-1.24,23.17-4.64,23.17-12.67,0-7.42-6.49-11.74-18.23-11.74-12.36,0-19.47,8.65-21.32,25.65l16.38-1.24Z" fill="#365880" stroke-width="0"/></g></svg>