<?xml version="1.0" encoding="utf-8"?>
<!-- Generator: Adobe Illustrator 28.0.0, SVG Export Plug-In . SVG Version: 6.00 Build 0)  -->
<svg version="1.1" xmlns="http://www.w3.org/2000/svg" xmlns:xlink="http://www.w3.org/1999/xlink" x="0px" y="0px"
	 viewBox="0 0 1635.5 284.9" style="enable-background:new 0 0 1635.5 284.9;" xml:space="preserve">
<style type="text/css">
	.st0{fill:#365880;}
	.st1{fill:#FFFFFF;}
</style>
<g id="Layer_2_00000033332295895793052150000014539641708028734100_">
</g>
<g id="Layer_5">
	<g>
		<g>
			<g>
				<path class="st0" d="M1496.8,152.3c3.4,5.7,5.3,12.5,5.3,19.9v18.2c0,21-11.9,37.5-32.7,45.1c-15.8,5.9-36.5,9.4-55.3,9.4
					c-26,0-47.4-5.5-63.8-16.2c-5.6,6.2-13.4,10.7-23.1,13.2c-7.2,1.9-15.2,3-23.7,3c-28.5,0-48.5-8.6-60.3-26.1
					c-16.7,17.1-39.6,26.1-66.8,26.1c-10.9,0-21.7-2.2-31.6-6.2c-5.3,2.3-11,3.3-16.4,3.3H1111c-8.7,0-16.4-2.1-22.8-5.9
					c-6.3,3.8-14,5.9-22.8,5.9h-23.6c-7.1,0-13.6-1.4-19.2-4c-11.2,4.7-23.8,7-37.7,7c-15.6,0-29.4-3.8-40.7-10.7
					c-3.6,2.3-7.7,4.3-12.2,5.8l-0.6,0.2c-9.3,2.9-21.5,4.7-30.9,4.7c-28.2,0-49.6-7.1-64.2-21.2c-6.9,11.4-19.4,18.3-35.3,18.3
					h-23.6c-7.1,0-13.6-1.4-19.1-4c-11.2,4.7-23.8,7-37.7,7c-14.1,0-26.7-3.1-37.3-8.8c-6.1,3.7-13.5,5.8-21.8,5.8h-31
					c-11.4,0-20.8-2.7-28.4-8.2c-6.9,5.3-15.9,8.2-26.3,8.2h-30c-8.8,0-16.6-2.1-22.9-6c-2.8,1.5-5.8,2.8-9.1,3.9
					c-9.8,3.4-21.4,5-35.7,5c-27.2,0-49.3-6.8-66.1-20.1c-7,10.7-19.2,17.2-34.6,17.2h-30c-15.5,0-27.8-6.5-34.8-17.5
					c-14.7,12.3-33.4,19.2-54.9,20.3c-0.6,24-17,40-41.3,40h-30c-24.7,0-41.3-16.6-41.3-41.3V87c0-24.7,16.6-41.2,41.3-41.2h23.4
					c6.4,0,12.2,1.1,17.4,3.2c9.8-4,20.8-6.1,32.3-6.1c15.4,0,29.3,3.3,41.1,9.5C302.6,20.8,326.9,0,362.3,0
					c36.5,0,61.2,22.1,61.9,55.2c15.2-8.1,33.9-12.4,55.8-12.4c8.6,0,17,0.7,24.5,2.1v-0.7C504.4,19.5,521,3,545.7,3h30
					C600.4,3,617,19.5,617,44.2v2.3c3.1-0.5,6.4-0.8,10-0.8h32c10.2,0,19,3.1,25.7,8.6c17.9-7.1,42.3-11.5,64.2-11.5
					c22.3,0,41.2,4.8,56,13.9c2.5-2.5,5.5-4.5,8.7-6.2c3.4-25.3,21.4-33.1,32.5-35.6l18.3-3.9c9.3-2.2,15.7-3.2,21.4-3.2
					c19,0,38.2,11.8,39.7,38c9.4,0.5,17.5,3.5,23.9,8.4c17.8-7.1,42.2-11.4,64-11.4c22.5,0,41.6,4.9,56.5,14.2V44.2
					c0-24.7,16.6-41.3,41.2-41.3h30c24.2,0,40.6,16,41.2,39.9c0.6,0,1.2,0,1.9,0c17.9,0,33.6,4.4,46.6,12.6V44.2
					c0-24.7,16.6-41.3,41.3-41.3h30c24.7,0,41.3,16.6,41.3,41.3v21.3c17.7-15.1,41.3-22.7,70.3-22.7c63.9,0,92.5,37.7,92.5,75
					C1506,126.2,1504.6,139.6,1496.8,152.3z"/>
			</g>
			<g>
				<path class="st1" d="M173.9,243.6V87c0-8.6,3.7-12.3,12.3-12.3h23.4c8.6,0,12.3,3.7,12.3,12.3v0.2c6.9-8.9,20.7-15.5,37.4-15.5
					c36.2,0,57.9,25.9,57.9,68.9c0,47.8-23.9,75.3-65.5,75.3c-8.4,0-16.5-2.2-23.1-4.9v32.5c0,8.6-3.7,12.3-12.3,12.3h-30
					C177.6,255.9,173.9,252.3,173.9,243.6z M261.8,142c0-17-4.9-25.1-16-25.1c-6.2,0-13,2.2-17.2,5.7v45.1c3.9,2,8.1,3.4,13.5,3.4
					C255.4,171,261.8,161.4,261.8,142z"/>
			</g>
			<g>
				<path class="st1" d="M329.3,56.8c0-17.7,11.8-27.8,33-27.8s33,10.1,33,27.8c0,17.7-11.8,27.8-33,27.8S329.3,74.5,329.3,56.8z
					 M334.9,200.8v-97c0-6.9,4.4-10.1,12.1-8.4c5.4,1,10.1,1.5,15.3,1.5c5.2,0,9.8-0.5,15.3-1.5c7.6-1.7,12.1,1.5,12.1,8.4v97
					c0,8.6-3.7,12.3-12.3,12.3h-30C338.6,213.1,334.9,209.4,334.9,200.8z"/>
			</g>
		</g>
		<g>
			<path class="st1" d="M407.3,144.2c0-48,24.1-72.4,72.6-72.4c13.8,0,23.6,2.2,28.3,3.9c7.4,2.7,10.8,7.9,9.1,16.5l-3.7,19.5
				c-2,10.6-7.4,10.6-15.5,8.4c-6.9-2-9.8-2.5-15.3-2.5c-14,0-19.5,7.6-19.5,25.9c0,19.2,5.9,26.8,19.9,26.8c5.4,0,9.8-0.5,20.9-3
				c7.9-1.7,12.1,1,12.1,10.3v18.7c0,8.9-3.2,13.3-12.1,16.3c-6.4,2.2-15,3.4-26.3,3.4C431,216.1,407.3,191.4,407.3,144.2z"/>
		</g>
		<g>
			<path class="st1" d="M533.4,200.8V44.2c0-8.6,3.7-12.3,12.3-12.3h30c8.6,0,12.3,3.7,12.3,12.3v73.9c8.4-7.9,15.5-18.5,21.9-32
				c4.4-9.4,7.6-11.3,17-11.3h32c7.1,0,10.3,3.2,10.3,10.3c0,9.8-12.8,31-30.5,51.7c17,21.2,33,52.4,33,66c0,6.9-3.2,10.3-10.3,10.3
				h-31c-9.6,0-13.8-2.7-17-11.3c-3.4-9.4-9.1-20.9-17-33.7c-3,2.5-5.9,4.7-8.4,6.4v26.3c0,8.6-3.7,12.3-12.3,12.3h-30
				C537.1,213.1,533.4,209.4,533.4,200.8z"/>
		</g>
		<g>
			<path class="st1" d="M677.9,176.9c0-28.6,24.1-42.6,80.8-42.8v-2.5c0-9.6-7.1-14.8-20.9-14.8c-11.8,0-21.2,2.2-34,7.1
				c-7.9,3-11.8,0.5-14-8.6l-4.2-16.7c-2-8.4,0.2-13.3,8.9-17c14.3-5.9,35.7-9.8,54.4-9.8c42.4,0,64.5,20.7,64.5,59.8v69.2
				c0,8.6-3.7,12.3-12.3,12.3h-23.6c-8.6,0-12.3-3.9-12.3-13v-1.2c-10.8,11.6-25.4,17.2-44.6,17.2
				C694.4,216.1,677.9,200.6,677.9,176.9z M758.7,176.2v-14c-24.4,0.5-31,4.2-31,11.8c0,5.2,3.2,8.4,10.8,8.4
				C743.9,182.3,754,180.9,758.7,176.2z"/>
		</g>
		<g>
			<path class="st1" d="M841.9,155v-35.2h-7.6c-8.6,0-12.3-3.7-12.3-12.3V87c0-8.6,3.7-12.3,12.3-12.3h7.6V59.5
				c0-10.3,2.5-14.5,10.3-16.2l18.5-3.9c6.2-1.5,11.3-2.5,15-2.5c8.4,0,10.8,3.9,10.8,12.3v25.6h26.1c8.6,0,12.3,3.7,12.3,12.3v20.4
				c0,8.6-3.7,12.3-12.3,12.3h-26.1v34.5c0,11.1,3.7,15.5,13.3,15.5c5.7,0,12.8-1.7,16.5-1.7c6.2,0,8.6,3.2,8.6,10.6v17.7
				c0,8.9-3.2,13.3-12.1,16.3c-6.4,2-15.8,3.4-22.4,3.4C858.9,216.1,841.9,198.8,841.9,155z"/>
		</g>
		<g>
			<path class="st1" d="M942.3,176.9c0-28.6,24.1-42.6,80.8-42.8v-2.5c0-9.6-7.1-14.8-20.9-14.8c-11.8,0-21.2,2.2-34,7.1
				c-7.9,3-11.8,0.5-14-8.6L950,98.6c-2-8.4,0.2-13.3,8.9-17c14.3-5.9,35.7-9.8,54.4-9.8c42.4,0,64.5,20.7,64.5,59.8v69.2
				c0,8.6-3.7,12.3-12.3,12.3h-23.6c-8.6,0-12.3-3.9-12.3-13v-1.2c-10.8,11.6-25.4,17.2-44.6,17.2
				C958.8,216.1,942.3,200.6,942.3,176.9z M1023.1,176.2v-14c-24.4,0.5-31,4.2-31,11.8c0,5.2,3.2,8.4,10.8,8.4
				C1008.3,182.3,1018.4,180.9,1023.1,176.2z"/>
		</g>
		<g>
			<path class="st1" d="M1138.3,200.1c0,10.1-3,13-9.8,13H1111c-8.6,0-12.3-3.7-12.3-12.3V44.2c0-8.6,3.7-12.3,12.3-12.3h30
				c8.6,0,12.3,3.7,12.3,12.3v36.7c7.6-5.4,18.5-9.1,30.8-9.1c36.2,0,57.9,25.9,57.9,68.9c0,47.8-23.9,75.3-65.5,75.3
				C1163.4,216.1,1148.4,211.1,1138.3,200.1z M1186.6,142c0-17-4.9-25.1-16-25.1c-6.2,0-13,2.2-17.2,6.2v44.1
				c3.9,2.5,8.4,3.9,13.5,3.9C1180.2,171,1186.6,161.4,1186.6,142z"/>
		</g>
		<g>
			<path class="st1" d="M1259.7,167.8V44.2c0-8.6,3.7-12.3,12.3-12.3h30c8.6,0,12.3,3.7,12.3,12.3v118.2c0,5.9,2.2,8.4,6.9,8.4h1.2
				c6.6,0,9.4,3,9.4,10.6v18.5c0,8.4-3.4,12.1-12.1,14.3c-5.4,1.5-11.1,2-16.2,2C1271,216.1,1259.7,203.8,1259.7,167.8z"/>
		</g>
		<g>
			<path class="st1" d="M1340.2,143.9c0-46.8,25.9-72.1,73.4-72.1c39.1,0,63.5,17.7,63.5,46c0,23.6-15.3,35.7-48,37.7l-33,2.2
				c2,10.3,9.4,14.5,25.6,14.5c11.1,0,24.6-2.5,34.2-6.4c10.1-4.2,17.2-2.5,17.2,6.4v18.2c0,8.6-4.4,14.5-13.8,18
				c-12.6,4.7-29.8,7.6-45.3,7.6C1363.6,216.1,1340.2,193.4,1340.2,143.9z M1408.9,129.1c13-1,18.5-3.7,18.5-10.1
				c0-5.9-5.2-9.4-14.5-9.4c-9.8,0-15.5,6.9-17,20.4L1408.9,129.1z"/>
		</g>
	</g>
</g>
</svg>
