<svg xmlns="http://www.w3.org/2000/svg" width="186.137" height="20" viewBox="0 0 186.137 20"><defs><style>.a{fill:#ffb08a;}.b{fill:#fff;}</style></defs><g transform="translate(0 0)"><path class="a" d="M0,19.978V.665H9.823c4.982,0,8.276,2.483,8.276,6.759,0,4.773-3.923,6.9-8.248,6.9H5.813v5.656Zm9.279-9.546c2.09,0,2.921-1.131,2.921-3.007A2.585,2.585,0,0,0,9.279,4.555H5.813v5.876Z" transform="translate(0 -0.321)"/><path class="a" d="M36.29,19.978V15.757h5.241V4.887H36.29V.665H52.585V4.887H47.344v10.87h5.241v4.221Z" transform="translate(-17.532 -0.322)"/><path class="a" d="M69.256,9.972C69.256,3.784,73.752,0,80.224,0c7.933,0,10.8,3.646,10.8,7.182a8.523,8.523,0,0,1-.057.884l-5.728.774a7.813,7.813,0,0,0,.086-1.1c0-2.459-2.205-3.509-4.725-3.509-3.121,0-5.327,1.768-5.327,5.746,0,4.227,2.491,5.829,5.5,5.829,2.406,0,4.669-1.243,4.669-3.508a5.928,5.928,0,0,0-.115-1.188l5.642.58a9.073,9.073,0,0,1,.057.911c0,3.729-2.835,7.4-10.567,7.4-7.217,0-11.2-3.84-11.2-10.028" transform="translate(-33.458 0)"/><path class="a" d="M130.235,19.978l-5.04-8.58-3.752,3.725v4.856H115.63V.665h5.813V8.832L129.6.665h6.644l-7.074,6.98,7.56,12.333Z" transform="translate(-55.862 -0.322)"/><g transform="translate(82.631 0.344)"><path class="b" d="M181.2,19.978V5h-6.586V.665H193.6V5h-6.586V19.978Z" transform="translate(-166.991 -0.665)"/><path class="b" d="M222.1,19.978,220.866,16.8h-8.419l-1.232,3.173h-6.071L213.392.665h6.558l8.219,19.313Zm-5.47-14.1-2.807,7.2h5.613Z" transform="translate(-181.739 -0.665)"/><path class="b" d="M251.628,19.978V.665h9.651C267.408.665,268.7,3.7,268.7,5.6a4.4,4.4,0,0,1-3.379,4.221v.027c3.237.441,4.783,2.235,4.783,4.635,0,2.649-1.976,5.491-7.447,5.491Zm8.678-11.284c1.6,0,2.462-.855,2.462-2.069,0-1.1-.686-1.959-2.434-1.959h-2.892V8.694Zm1.346,7.284c1.46,0,2.549-.524,2.549-2.069,0-1.3-.86-2.1-2.778-2.1h-3.981v4.166Z" transform="translate(-204.196 -0.665)"/><path class="b" d="M291.354,19.978V.665h5.813V15.646H307.62v4.332Z" transform="translate(-223.388 -0.665)"/><path class="b" d="M326.591,19.978V.665h17.326V4.914H332.4V8.17h9.68v4H332.4v3.587h11.513v4.221Z" transform="translate(-240.411 -0.665)"/><path class="b" d="M159.863,28.133c0-2.262,2.207-2.443,4.2-2.75,1.032-.163,1.918-.289,1.918-1.212a1.054,1.054,0,0,0-1.176-1.158,1.153,1.153,0,0,0-1.23,1.23,1.215,1.215,0,0,0,.072.434l-3.184.145a3.324,3.324,0,0,1-.054-.6c0-2.171,1.918-3.329,4.577-3.329,2.244,0,4.451.8,4.451,3.836V27.59c0,.561.308.833.724.833a1.324,1.324,0,0,0,.741-.235v2.08a5.558,5.558,0,0,1-2.207.416,2.155,2.155,0,0,1-2.3-1.827,3.808,3.808,0,0,1-3.582,1.809c-1.5,0-2.949-.8-2.949-2.533m6.025-1.9a2.444,2.444,0,0,1-1.1.434c-.651.127-1.284.271-1.284,1a.864.864,0,0,0,.941.868,1.319,1.319,0,0,0,1.448-1.285Z" transform="translate(-159.863 -11.173)"/></g></g></svg>