<?xml version="1.0" encoding="UTF-8"?><svg id="Layer_2" xmlns="http://www.w3.org/2000/svg" viewBox="0 0 477.66 223.91"><g id="Layer_1-2"><path d="m28.34,58.86l10.56-.92c.5,4.23,1.66,7.7,3.49,10.42,1.83,2.71,4.66,4.9,8.51,6.58,3.85,1.67,8.17,2.51,12.98,2.51,4.27,0,8.04-.63,11.31-1.9,3.27-1.27,5.7-3.01,7.3-5.22,1.6-2.21,2.4-4.62,2.4-7.24s-.77-4.97-2.31-6.95c-1.54-1.98-4.08-3.64-7.62-4.99-2.27-.88-7.29-2.26-15.06-4.13-7.77-1.87-13.21-3.63-16.33-5.28-4.04-2.12-7.05-4.74-9.03-7.88-1.98-3.13-2.97-6.65-2.97-10.53,0-4.27,1.21-8.26,3.64-11.97,2.42-3.71,5.96-6.53,10.62-8.45,4.65-1.92,9.83-2.89,15.52-2.89,6.27,0,11.8,1.01,16.59,3.03s8.47,4.99,11.05,8.92c2.58,3.92,3.96,8.37,4.15,13.33l-10.73.81c-.58-5.35-2.53-9.39-5.86-12.12-3.33-2.73-8.24-4.1-14.74-4.1s-11.71,1.24-14.8,3.72c-3.1,2.48-4.65,5.47-4.65,8.97,0,3.04,1.1,5.54,3.29,7.5,2.15,1.96,7.78,3.97,16.88,6.03,9.1,2.06,15.34,3.86,18.73,5.4,4.92,2.27,8.56,5.15,10.91,8.63,2.35,3.48,3.52,7.49,3.52,12.03s-1.29,8.74-3.87,12.72c-2.58,3.98-6.28,7.08-11.11,9.29-4.83,2.21-10.26,3.32-16.3,3.32-7.66,0-14.07-1.12-19.24-3.35-5.17-2.23-9.23-5.59-12.18-10.07-2.94-4.48-4.49-9.55-4.65-15.21Z" fill="#fff" stroke-width="0"/><path d="m144.9,78.48c-3.85,3.27-7.55,5.58-11.11,6.92-3.56,1.35-7.38,2.02-11.45,2.02-6.73,0-11.91-1.64-15.52-4.93-3.62-3.29-5.42-7.49-5.42-12.61,0-3,.68-5.74,2.05-8.22,1.36-2.48,3.15-4.47,5.37-5.97,2.21-1.5,4.7-2.63,7.47-3.4,2.04-.54,5.12-1.06,9.23-1.56,8.39-1,14.56-2.19,18.52-3.58.04-1.42.06-2.33.06-2.71,0-4.23-.98-7.21-2.94-8.94-2.65-2.35-6.6-3.52-11.83-3.52-4.89,0-8.49.86-10.82,2.57-2.33,1.71-4.05,4.74-5.16,9.09l-10.16-1.39c.92-4.35,2.44-7.86,4.56-10.53,2.12-2.67,5.17-4.73,9.17-6.17,4-1.44,8.64-2.16,13.91-2.16s9.48.62,12.75,1.85c3.27,1.23,5.67,2.78,7.21,4.65,1.54,1.87,2.62,4.22,3.23,7.07.35,1.77.52,4.96.52,9.58v13.85c0,9.66.22,15.76.66,18.32.44,2.56,1.32,5.01,2.63,7.36h-10.85c-1.08-2.15-1.77-4.67-2.08-7.56Zm-.87-23.2c-3.77,1.54-9.43,2.85-16.96,3.92-4.27.62-7.29,1.31-9.06,2.08-1.77.77-3.14,1.9-4.1,3.38-.96,1.48-1.44,3.13-1.44,4.93,0,2.77,1.05,5.08,3.14,6.92,2.1,1.85,5.16,2.77,9.2,2.77s7.56-.87,10.68-2.63c3.12-1.75,5.4-4.15,6.87-7.18,1.12-2.35,1.67-5.81,1.67-10.39v-3.81Z" fill="#fff" stroke-width="0"/><path d="m165.97,86.04V1.44h10.39v48.24l24.58-24.93h13.44l-23.43,22.74,25.79,38.55h-12.81l-20.25-31.33-7.33,7.04v24.29h-10.39Z" fill="#fff" stroke-width="0"/><path d="m262.23,66.3l10.73,1.33c-1.69,6.27-4.83,11.14-9.41,14.6-4.58,3.46-10.43,5.19-17.54,5.19-8.96,0-16.07-2.76-21.32-8.28-5.25-5.52-7.88-13.26-7.88-23.23s2.65-18.31,7.96-24.01c5.31-5.69,12.19-8.54,20.66-8.54s14.89,2.79,20.08,8.37c5.19,5.58,7.79,13.43,7.79,23.54,0,.62-.02,1.54-.06,2.77h-45.7c.38,6.73,2.29,11.89,5.71,15.46,3.42,3.58,7.69,5.37,12.81,5.37,3.81,0,7.06-1,9.75-3,2.69-2,4.83-5.19,6.41-9.58Zm-34.1-16.79h34.22c-.46-5.15-1.77-9.02-3.92-11.6-3.31-4-7.6-6-12.87-6-4.77,0-8.78,1.6-12.03,4.79-3.25,3.19-5.05,7.46-5.4,12.81Z" fill="#fff" stroke-width="0"/><path d="m310.25,86.04V1.44h31.74c6.46,0,11.65.86,15.55,2.57,3.9,1.71,6.96,4.35,9.18,7.91,2.21,3.56,3.32,7.28,3.32,11.17,0,3.62-.98,7.02-2.94,10.21-1.96,3.19-4.92,5.77-8.89,7.73,5.12,1.5,9.05,4.06,11.8,7.67,2.75,3.62,4.13,7.89,4.13,12.81,0,3.96-.84,7.65-2.51,11.05-1.67,3.4-3.74,6.03-6.2,7.88-2.46,1.85-5.55,3.24-9.26,4.18-3.71.94-8.26,1.41-13.65,1.41h-32.26Zm11.19-49.05h18.29c4.96,0,8.52-.33,10.68-.98,2.85-.85,4.99-2.25,6.43-4.21,1.44-1.96,2.16-4.42,2.16-7.39,0-2.81-.67-5.28-2.02-7.42-1.35-2.14-3.27-3.6-5.77-4.39-2.5-.79-6.79-1.18-12.87-1.18h-16.91v25.56Zm0,39.07h21.06c3.62,0,6.15-.13,7.62-.4,2.58-.46,4.73-1.23,6.46-2.31,1.73-1.08,3.15-2.64,4.27-4.7,1.12-2.06,1.67-4.43,1.67-7.13,0-3.15-.81-5.9-2.42-8.22-1.62-2.33-3.86-3.96-6.72-4.91-2.87-.94-6.99-1.41-12.38-1.41h-19.56v29.08Z" fill="#fff" stroke-width="0"/><path d="m423.47,78.48c-3.85,3.27-7.55,5.58-11.11,6.92-3.56,1.35-7.38,2.02-11.45,2.02-6.73,0-11.91-1.64-15.52-4.93-3.62-3.29-5.42-7.49-5.42-12.61,0-3,.68-5.74,2.05-8.22,1.36-2.48,3.15-4.47,5.37-5.97,2.21-1.5,4.7-2.63,7.47-3.4,2.04-.54,5.12-1.06,9.23-1.56,8.39-1,14.56-2.19,18.52-3.58.04-1.42.06-2.33.06-2.71,0-4.23-.98-7.21-2.94-8.94-2.65-2.35-6.6-3.52-11.83-3.52-4.89,0-8.49.86-10.82,2.57-2.33,1.71-4.05,4.74-5.16,9.09l-10.16-1.39c.92-4.35,2.44-7.86,4.56-10.53,2.12-2.67,5.17-4.73,9.17-6.17,4-1.44,8.64-2.16,13.91-2.16s9.48.62,12.75,1.85c3.27,1.23,5.67,2.78,7.21,4.65,1.54,1.87,2.62,4.22,3.23,7.07.35,1.77.52,4.96.52,9.58v13.85c0,9.66.22,15.76.66,18.32.44,2.56,1.32,5.01,2.63,7.36h-10.85c-1.08-2.15-1.77-4.67-2.08-7.56Zm-.87-23.2c-3.77,1.54-9.43,2.85-16.96,3.92-4.27.62-7.29,1.31-9.06,2.08-1.77.77-3.14,1.9-4.1,3.38-.96,1.48-1.44,3.13-1.44,4.93,0,2.77,1.05,5.08,3.14,6.92,2.1,1.85,5.16,2.77,9.2,2.77s7.56-.87,10.68-2.63c3.12-1.75,5.4-4.15,6.87-7.18,1.12-2.35,1.67-5.81,1.67-10.39v-3.81Z" fill="#fff" stroke-width="0"/><path d="m444.36,86.04V24.76h9.35v9.29c2.38-4.35,4.59-7.21,6.61-8.6,2.02-1.38,4.24-2.08,6.67-2.08,3.5,0,7.06,1.12,10.68,3.35l-3.58,9.64c-2.54-1.5-5.08-2.25-7.62-2.25-2.27,0-4.31.68-6.12,2.05-1.81,1.37-3.1,3.26-3.87,5.68-1.15,3.69-1.73,7.73-1.73,12.12v32.08h-10.39Z" fill="#fff" stroke-width="0"/><path d="m51.07,189.05c-3.42,3.81-7.16,6.67-11.19,8.57-4.04,1.9-8.41,2.86-13.1,2.86-8.66,0-15.52-2.92-20.6-8.77-4.12-4.77-6.17-10.1-6.17-15.98,0-5.23,1.68-9.95,5.05-14.17,3.37-4.21,8.4-7.91,15.09-11.11-3.81-4.39-6.35-7.94-7.62-10.68-1.27-2.73-1.9-5.37-1.9-7.91,0-5.08,1.99-9.49,5.97-13.24,3.98-3.75,8.99-5.63,15.03-5.63s10.49,1.77,14.17,5.31c3.67,3.54,5.51,7.79,5.51,12.75,0,8.04-5.33,14.91-15.98,20.6l15.18,19.33c1.73-3.38,3.08-7.31,4.04-11.77l10.79,2.31c-1.85,7.39-4.35,13.46-7.5,18.23,3.89,5.16,8.29,9.48,13.21,12.98l-6.98,8.25c-4.19-2.69-8.52-6.67-12.98-11.94Zm-6.52-8.19l-19.04-23.6c-5.62,3.35-9.41,6.45-11.37,9.32-1.96,2.87-2.94,5.7-2.94,8.51,0,3.42,1.37,6.98,4.1,10.68,2.73,3.69,6.6,5.54,11.6,5.54,3.12,0,6.34-.97,9.67-2.91,3.33-1.94,5.99-4.45,7.99-7.53Zm-14.6-35.89c4.5-2.65,7.42-4.98,8.74-6.98,1.33-2,1.99-4.21,1.99-6.64,0-2.89-.91-5.24-2.74-7.07-1.83-1.83-4.11-2.74-6.84-2.74s-5.15.9-7.01,2.71c-1.87,1.81-2.8,4.02-2.8,6.64,0,1.31.34,2.68,1.01,4.13.67,1.44,1.68,2.97,3.03,4.59l4.62,5.37Z" fill="#fff" stroke-width="0"/><path d="m108.15,199.04v-84.59h11.19v84.59h-11.19Z" fill="#fff" stroke-width="0"/><path d="m127.54,199.04v-8.42l39.01-44.78c-4.42.23-8.33.35-11.71.35h-24.99v-8.42h50.09v6.87l-33.18,38.89-6.41,7.1c4.65-.35,9.02-.52,13.1-.52h28.33v8.94h-54.24Z" fill="#fff" stroke-width="0"/><path d="m227.37,191.48c-3.85,3.27-7.55,5.58-11.11,6.92-3.56,1.35-7.38,2.02-11.45,2.02-6.73,0-11.91-1.64-15.52-4.93-3.62-3.29-5.42-7.49-5.42-12.61,0-3,.68-5.74,2.05-8.22,1.36-2.48,3.15-4.47,5.37-5.97,2.21-1.5,4.7-2.63,7.47-3.4,2.04-.54,5.12-1.06,9.23-1.56,8.39-1,14.56-2.19,18.52-3.58.04-1.42.06-2.33.06-2.71,0-4.23-.98-7.21-2.94-8.94-2.65-2.35-6.6-3.52-11.83-3.52-4.89,0-8.49.86-10.82,2.57-2.33,1.71-4.05,4.74-5.16,9.09l-10.16-1.39c.92-4.35,2.44-7.86,4.56-10.53,2.12-2.67,5.17-4.73,9.17-6.17,4-1.44,8.64-2.16,13.91-2.16s9.48.62,12.75,1.85c3.27,1.23,5.67,2.78,7.21,4.65,1.54,1.87,2.62,4.22,3.23,7.07.35,1.77.52,4.96.52,9.58v13.85c0,9.66.22,15.76.66,18.32.44,2.56,1.32,5.01,2.63,7.36h-10.85c-1.08-2.15-1.77-4.67-2.08-7.56Zm-.87-23.2c-3.77,1.54-9.43,2.85-16.96,3.92-4.27.62-7.29,1.31-9.06,2.08-1.77.77-3.14,1.9-4.1,3.38-.96,1.48-1.44,3.13-1.44,4.93,0,2.77,1.05,5.08,3.14,6.92,2.1,1.85,5.16,2.77,9.2,2.77s7.56-.87,10.68-2.63c3.12-1.75,5.4-4.15,6.87-7.18,1.12-2.35,1.67-5.81,1.67-10.39v-3.81Z" fill="#fff" stroke-width="0"/><path d="m248.44,199.04v-84.59h10.39v48.24l24.58-24.93h13.44l-23.43,22.74,25.79,38.55h-12.81l-20.25-31.33-7.33,7.04v24.29h-10.39Z" fill="#fff" stroke-width="0"/><path d="m342.73,191.48c-3.85,3.27-7.55,5.58-11.11,6.92-3.56,1.35-7.38,2.02-11.45,2.02-6.73,0-11.91-1.64-15.52-4.93-3.62-3.29-5.42-7.49-5.42-12.61,0-3,.68-5.74,2.05-8.22,1.36-2.48,3.15-4.47,5.37-5.97,2.21-1.5,4.7-2.63,7.47-3.4,2.04-.54,5.12-1.06,9.23-1.56,8.39-1,14.56-2.19,18.52-3.58.04-1.42.06-2.33.06-2.71,0-4.23-.98-7.21-2.94-8.94-2.65-2.35-6.6-3.52-11.83-3.52-4.89,0-8.49.86-10.82,2.57-2.33,1.71-4.05,4.74-5.16,9.09l-10.16-1.39c.92-4.35,2.44-7.86,4.56-10.53,2.12-2.67,5.17-4.73,9.17-6.17,4-1.44,8.64-2.16,13.91-2.16s9.48.62,12.75,1.85c3.27,1.23,5.67,2.78,7.21,4.65,1.54,1.87,2.62,4.22,3.23,7.07.35,1.77.52,4.96.52,9.58v13.85c0,9.66.22,15.76.66,18.32.44,2.56,1.32,5.01,2.63,7.36h-10.85c-1.08-2.15-1.77-4.67-2.08-7.56Zm-.87-23.2c-3.77,1.54-9.43,2.85-16.96,3.92-4.27.62-7.29,1.31-9.06,2.08-1.77.77-3.14,1.9-4.1,3.38-.96,1.48-1.44,3.13-1.44,4.93,0,2.77,1.05,5.08,3.14,6.92,2.1,1.85,5.16,2.77,9.2,2.77s7.56-.87,10.68-2.63c3.12-1.75,5.4-4.15,6.87-7.18,1.12-2.35,1.67-5.81,1.67-10.39v-3.81Z" fill="#fff" stroke-width="0"/><path d="m363.28,222.64l-1.15-9.75c2.27.61,4.25.92,5.94.92,2.31,0,4.15-.39,5.54-1.15,1.38-.77,2.52-1.85,3.4-3.23.65-1.04,1.71-3.62,3.17-7.73.19-.58.5-1.42.92-2.54l-23.25-61.4h11.19l12.75,35.49c1.65,4.5,3.14,9.23,4.44,14.2,1.19-4.77,2.62-9.42,4.27-13.96l13.1-35.72h10.39l-23.31,62.32c-2.5,6.73-4.44,11.37-5.83,13.91-1.85,3.42-3.96,5.93-6.35,7.53-2.39,1.6-5.23,2.39-8.54,2.39-2,0-4.23-.42-6.69-1.27Z" fill="#fff" stroke-width="0"/><path d="m458.1,191.48c-3.85,3.27-7.55,5.58-11.11,6.92-3.56,1.35-7.38,2.02-11.45,2.02-6.73,0-11.91-1.64-15.52-4.93-3.62-3.29-5.42-7.49-5.42-12.61,0-3,.68-5.74,2.05-8.22,1.36-2.48,3.15-4.47,5.37-5.97,2.21-1.5,4.7-2.63,7.47-3.4,2.04-.54,5.12-1.06,9.23-1.56,8.39-1,14.56-2.19,18.52-3.58.04-1.42.06-2.33.06-2.71,0-4.23-.98-7.21-2.94-8.94-2.65-2.35-6.6-3.52-11.83-3.52-4.89,0-8.49.86-10.82,2.57-2.33,1.71-4.05,4.74-5.16,9.09l-10.16-1.39c.92-4.35,2.44-7.86,4.56-10.53,2.12-2.67,5.17-4.73,9.17-6.17,4-1.44,8.64-2.16,13.91-2.16s9.48.62,12.75,1.85c3.27,1.23,5.67,2.78,7.21,4.65,1.54,1.87,2.62,4.22,3.23,7.07.35,1.77.52,4.96.52,9.58v13.85c0,9.66.22,15.76.66,18.32.44,2.56,1.32,5.01,2.63,7.36h-10.85c-1.08-2.15-1.77-4.67-2.08-7.56Zm-.87-23.2c-3.77,1.54-9.43,2.85-16.96,3.92-4.27.62-7.29,1.31-9.06,2.08-1.77.77-3.14,1.9-4.1,3.38-.96,1.48-1.44,3.13-1.44,4.93,0,2.77,1.05,5.08,3.14,6.92,2.1,1.85,5.16,2.77,9.2,2.77s7.56-.87,10.68-2.63c3.12-1.75,5.4-4.15,6.87-7.18,1.12-2.35,1.67-5.81,1.67-10.39v-3.81Z" fill="#fff" stroke-width="0"/></g></svg>