<?xml version="1.0" encoding="utf-8"?>
<!-- Generator: Adobe Illustrator 28.1.0, SVG Export Plug-In . SVG Version: 6.00 Build 0)  -->
<svg version="1.1" id="Layer_1" xmlns="http://www.w3.org/2000/svg" xmlns:xlink="http://www.w3.org/1999/xlink" x="0px" y="0px"
	 viewBox="0 0 445.2 56.9" style="enable-background:new 0 0 445.2 56.9;" xml:space="preserve">
<style type="text/css">
	.st0{fill:#FFFFFF;}
</style>
<g id="Lager_2">
	<g id="Lager_1-2">
		<path class="st0" d="M23.4,29.3l16.2,18.5L19.2,15.3l-1.7,11.9L0,6.8l22.3,35.8L23.4,29.3z M78.9,3l17.6,3.7V0h-47v6.7L67.1,3
			v52.7h11.8V3z M135.8,38.7l-10.2,10.9l-11.1-11.8l10.7-22.7L135.8,38.7z M143.4,55.7h13L131,0h-1.9l-26.6,55.7h3.6L113,41
			l12.6,14.7L137.3,42L143.4,55.7z M209.8,55.7h1.2V0h-3.8v36.5L172.8,0h-1.1v55.7h3.6V19.1L209.8,55.7z M272.7,55.7h1.3V0h-3.8
			v36.5L235.8,0h-1.1v55.7h3.6V19.1L272.7,55.7z M297.4,55.7h30.5v-6.5l-18.6,4.5v-25l14.1,2.6v-7.5L309.4,26V2l18.6,4.5V0h-30.5
			V55.7z M371.8,35.2c-3.2,2.6-8.4,2.8-10,2.8h-0.6h-1V2.8h1c5.2,0,14.8,0,17,11.7C380.5,26,374.5,33,371.8,35.2 M395.7,46.2l-2.1-2
			c-0.7,0.7-1.8,1.8-3.8,3.5c-1.2,1.1-2.7,1.8-4.3,1.8c-2.3,0-4.2-1.5-5.8-3l-0.9-0.8c-1.8-1.8-3.6-4.9-6.9-5.5v-0.5
			c11.1-3.8,17.2-12.1,16.4-22.1c-0.6-7.2-4.3-12.2-11-14.9C373.1,1,369,0,360.4,0h-12.1v55.7h12.1V43.4h1c5.6,0,9,4.8,11.4,8
			s4.4,5.5,7.4,5.5c1.5-0.1,3.1-0.4,4.4-1.2C389,53.6,394,48.2,395.7,46.2 M445.2,6.8l-17.5,20.4L426,15.3l-20.4,32.5l16.1-18.5
			l1.1,13.3L445.2,6.8z"/>
	</g>
</g>
</svg>
